%TF.GenerationSoftware,KiCad,Pcbnew,7.0.2-0*%
%TF.CreationDate,2023-08-13T20:03:35+08:00*%
%TF.ProjectId,Shield,53686965-6c64-42e6-9b69-6361645f7063,rev?*%
%TF.SameCoordinates,Original*%
%TF.FileFunction,Legend,Top*%
%TF.FilePolarity,Positive*%
%FSLAX46Y46*%
G04 Gerber Fmt 4.6, Leading zero omitted, Abs format (unit mm)*
G04 Created by KiCad (PCBNEW 7.0.2-0) date 2023-08-13 20:03:35*
%MOMM*%
%LPD*%
G01*
G04 APERTURE LIST*
%ADD10C,0.150000*%
G04 APERTURE END LIST*
D10*
X139200000Y-115000000D02*
G75*
G03*
X140400000Y-116200000I1200000J0D01*
G01*
X148800000Y-86000000D02*
G75*
G03*
X147600000Y-84800000I-1200000J0D01*
G01*
X140400000Y-84800000D02*
X147600000Y-84800000D01*
X147600000Y-116200000D02*
G75*
G03*
X148800000Y-115000000I0J1200000D01*
G01*
X139200000Y-115000000D02*
X139200000Y-86000000D01*
X148800000Y-86000000D02*
X148800000Y-115000000D01*
X147600000Y-116200000D02*
X140400000Y-116200000D01*
X140400000Y-84800000D02*
G75*
G03*
X139200000Y-86000000I0J-1200000D01*
G01*
%TO.C,kibuzzard-64D61F96*%
G36*
X146890329Y-103900720D02*
G01*
X146967005Y-103955965D01*
X147017964Y-104034070D01*
X147034950Y-104121065D01*
X147034950Y-104244255D01*
X146554890Y-104244255D01*
X146554890Y-104122335D01*
X146572194Y-104032006D01*
X146624105Y-103954060D01*
X146701734Y-103900244D01*
X146796190Y-103882305D01*
X146890329Y-103900720D01*
G37*
G36*
X146870556Y-112254568D02*
G01*
X146931939Y-112278698D01*
X146982880Y-112318915D01*
X147034315Y-112395750D01*
X147051460Y-112481475D01*
X147033839Y-112567359D01*
X146980975Y-112644670D01*
X146929258Y-112685239D01*
X146868086Y-112709581D01*
X146797460Y-112717695D01*
X146726834Y-112709652D01*
X146665662Y-112685522D01*
X146613945Y-112645305D01*
X146561081Y-112568470D01*
X146543460Y-112482745D01*
X146560922Y-112396861D01*
X146613310Y-112319550D01*
X146664957Y-112278981D01*
X146726763Y-112254639D01*
X146798730Y-112246525D01*
X146870556Y-112254568D01*
G37*
G36*
X146870556Y-109687898D02*
G01*
X146931939Y-109712028D01*
X146982880Y-109752245D01*
X147034315Y-109829080D01*
X147051460Y-109914805D01*
X147033839Y-110000689D01*
X146980975Y-110078000D01*
X146929258Y-110118569D01*
X146868086Y-110142911D01*
X146797460Y-110151025D01*
X146726834Y-110142982D01*
X146665662Y-110118852D01*
X146613945Y-110078635D01*
X146561081Y-110001800D01*
X146543460Y-109916075D01*
X146560922Y-109830191D01*
X146613310Y-109752880D01*
X146664957Y-109712311D01*
X146726763Y-109687969D01*
X146798730Y-109679855D01*
X146870556Y-109687898D01*
G37*
G36*
X146870556Y-105529918D02*
G01*
X146931939Y-105554048D01*
X146982880Y-105594265D01*
X147034315Y-105671100D01*
X147051460Y-105756825D01*
X147033839Y-105842709D01*
X146980975Y-105920020D01*
X146929258Y-105960589D01*
X146868086Y-105984931D01*
X146797460Y-105993045D01*
X146726834Y-105985002D01*
X146665662Y-105960872D01*
X146613945Y-105920655D01*
X146561081Y-105843820D01*
X146543460Y-105758095D01*
X146560922Y-105672211D01*
X146613310Y-105594900D01*
X146664957Y-105554331D01*
X146726763Y-105529989D01*
X146798730Y-105521875D01*
X146870556Y-105529918D01*
G37*
G36*
X147596713Y-104645575D02*
G01*
X147596713Y-105754285D01*
X147596713Y-106413415D01*
X147596713Y-107651665D01*
X147596713Y-108451765D01*
X147596713Y-109260755D01*
X147596713Y-109912265D01*
X147596713Y-110921915D01*
X147596713Y-111239415D01*
X147596713Y-112478935D01*
X147596713Y-112942485D01*
X147596713Y-113207068D01*
X146800000Y-113738211D01*
X146003287Y-113207068D01*
X146003287Y-112942485D01*
X146003287Y-112486555D01*
X146318670Y-112486555D01*
X146327560Y-112572915D01*
X146354230Y-112656735D01*
X146396458Y-112734523D01*
X146452020Y-112802785D01*
X146521711Y-112859935D01*
X146606325Y-112904385D01*
X146701734Y-112932960D01*
X146803810Y-112942485D01*
X146896996Y-112934032D01*
X146983515Y-112908671D01*
X147063366Y-112866404D01*
X147136550Y-112807230D01*
X147197669Y-112735991D01*
X147241325Y-112657529D01*
X147267519Y-112571843D01*
X147276250Y-112478935D01*
X147267400Y-112386225D01*
X147240849Y-112301135D01*
X147196597Y-112223665D01*
X147134645Y-112153815D01*
X147060112Y-112096030D01*
X146978117Y-112054755D01*
X146888662Y-112029990D01*
X146791745Y-112021735D01*
X146695185Y-112030387D01*
X146606801Y-112056342D01*
X146526593Y-112099602D01*
X146454560Y-112160165D01*
X146395108Y-112232476D01*
X146352642Y-112310977D01*
X146327163Y-112395671D01*
X146318670Y-112486555D01*
X146003287Y-112486555D01*
X146003287Y-111828695D01*
X146331370Y-111828695D01*
X146338990Y-111890925D01*
X146368835Y-111927120D01*
X146439320Y-111939185D01*
X147147980Y-111939185D01*
X147192430Y-111937280D01*
X147226720Y-111925215D01*
X147252438Y-111892195D01*
X147261010Y-111828695D01*
X147252438Y-111763290D01*
X147226720Y-111729635D01*
X147193700Y-111717570D01*
X147149250Y-111715665D01*
X146731420Y-111715665D01*
X146777704Y-111680176D01*
X146838664Y-111633821D01*
X146914300Y-111576600D01*
X147004611Y-111508514D01*
X147109598Y-111429562D01*
X147229260Y-111339745D01*
X147253390Y-111307995D01*
X147261010Y-111239415D01*
X147252438Y-111174010D01*
X147226720Y-111140355D01*
X147193700Y-111128290D01*
X147149250Y-111126385D01*
X146444400Y-111126385D01*
X146379630Y-111134005D01*
X146352960Y-111149880D01*
X146337720Y-111182900D01*
X146331370Y-111241320D01*
X146338990Y-111301645D01*
X146368835Y-111337840D01*
X146439320Y-111349905D01*
X146868580Y-111349905D01*
X146822754Y-111384901D01*
X146763170Y-111429774D01*
X146689827Y-111484525D01*
X146602727Y-111549154D01*
X146501867Y-111623661D01*
X146387250Y-111708045D01*
X146354230Y-111737255D01*
X146338355Y-111768370D01*
X146331370Y-111828695D01*
X146003287Y-111828695D01*
X146003287Y-110559330D01*
X146267870Y-110559330D01*
X146272950Y-110589175D01*
X146328830Y-110632355D01*
X147183540Y-111041295D01*
X147247040Y-111056535D01*
X147279425Y-111041930D01*
X147313080Y-110985415D01*
X147332130Y-110921915D01*
X147322605Y-110886990D01*
X147302920Y-110867940D01*
X147271170Y-110852065D01*
X146424080Y-110444395D01*
X146360580Y-110426615D01*
X146322797Y-110443760D01*
X146288190Y-110495195D01*
X146267870Y-110559330D01*
X146003287Y-110559330D01*
X146003287Y-109919885D01*
X146318670Y-109919885D01*
X146327560Y-110006245D01*
X146354230Y-110090065D01*
X146396458Y-110167852D01*
X146452020Y-110236115D01*
X146521711Y-110293265D01*
X146606325Y-110337715D01*
X146701734Y-110366290D01*
X146803810Y-110375815D01*
X146896996Y-110367362D01*
X146983515Y-110342001D01*
X147063366Y-110299734D01*
X147136550Y-110240560D01*
X147197669Y-110169321D01*
X147241325Y-110090859D01*
X147267519Y-110005173D01*
X147276250Y-109912265D01*
X147267400Y-109819555D01*
X147240849Y-109734465D01*
X147196597Y-109656995D01*
X147134645Y-109587145D01*
X147060112Y-109529360D01*
X146978117Y-109488085D01*
X146888662Y-109463320D01*
X146791745Y-109455065D01*
X146695185Y-109463717D01*
X146606801Y-109489673D01*
X146526593Y-109532932D01*
X146454560Y-109593495D01*
X146395108Y-109665806D01*
X146352642Y-109744307D01*
X146327163Y-109829001D01*
X146318670Y-109919885D01*
X146003287Y-109919885D01*
X146003287Y-109256945D01*
X146330100Y-109256945D01*
X146353595Y-109348385D01*
X146441860Y-109372515D01*
X147147980Y-109372515D01*
X147212750Y-109364895D01*
X147248945Y-109331240D01*
X147261010Y-109260755D01*
X147252438Y-109195350D01*
X147226720Y-109161695D01*
X147193700Y-109149630D01*
X147149250Y-109147725D01*
X146909220Y-109147725D01*
X146909220Y-108898805D01*
X146902870Y-108834035D01*
X146868263Y-108797840D01*
X146797460Y-108785775D01*
X146731738Y-108794030D01*
X146697130Y-108818795D01*
X146685065Y-108852450D01*
X146683160Y-108897535D01*
X146683160Y-109147725D01*
X146554890Y-109147725D01*
X146554890Y-108759105D01*
X146552985Y-108714020D01*
X146541555Y-108680365D01*
X146507900Y-108653695D01*
X146443130Y-108646075D01*
X146378360Y-108653695D01*
X146344070Y-108679730D01*
X146332005Y-108712750D01*
X146330100Y-108756565D01*
X146330100Y-109256945D01*
X146003287Y-109256945D01*
X146003287Y-108447955D01*
X146330100Y-108447955D01*
X146353595Y-108539395D01*
X146441860Y-108563525D01*
X147147980Y-108563525D01*
X147212750Y-108555905D01*
X147248945Y-108522250D01*
X147261010Y-108451765D01*
X147252438Y-108386360D01*
X147226720Y-108352705D01*
X147193700Y-108340640D01*
X147149250Y-108338735D01*
X146909220Y-108338735D01*
X146909220Y-108089815D01*
X146902870Y-108025045D01*
X146868263Y-107988850D01*
X146797460Y-107976785D01*
X146731738Y-107985040D01*
X146697130Y-108009805D01*
X146685065Y-108043460D01*
X146683160Y-108088545D01*
X146683160Y-108338735D01*
X146554890Y-108338735D01*
X146554890Y-107950115D01*
X146552985Y-107905030D01*
X146541555Y-107871375D01*
X146507900Y-107844705D01*
X146443130Y-107837085D01*
X146378360Y-107844705D01*
X146344070Y-107870740D01*
X146332005Y-107903760D01*
X146330100Y-107947575D01*
X146330100Y-108447955D01*
X146003287Y-108447955D01*
X146003287Y-107289080D01*
X146267870Y-107289080D01*
X146272950Y-107318925D01*
X146328830Y-107362105D01*
X147183540Y-107771045D01*
X147247040Y-107786285D01*
X147279425Y-107771680D01*
X147313080Y-107715165D01*
X147332130Y-107651665D01*
X147322605Y-107616740D01*
X147302920Y-107597690D01*
X147271170Y-107581815D01*
X146424080Y-107174145D01*
X146360580Y-107156365D01*
X146322797Y-107173510D01*
X146288190Y-107224945D01*
X146267870Y-107289080D01*
X146003287Y-107289080D01*
X146003287Y-106973485D01*
X146330100Y-106973485D01*
X146338672Y-107038890D01*
X146364390Y-107072545D01*
X146398045Y-107084610D01*
X146441860Y-107086515D01*
X147146710Y-107086515D01*
X147212750Y-107078895D01*
X147247992Y-107045240D01*
X147259740Y-106974755D01*
X147251168Y-106909350D01*
X147225450Y-106875695D01*
X147191795Y-106863630D01*
X147147980Y-106861725D01*
X146888900Y-106861725D01*
X146888900Y-106525175D01*
X147146710Y-106525175D01*
X147212750Y-106517555D01*
X147247992Y-106483900D01*
X147259740Y-106413415D01*
X147251168Y-106348010D01*
X147225450Y-106314355D01*
X147191795Y-106302290D01*
X147147980Y-106300385D01*
X146443130Y-106300385D01*
X146377090Y-106306735D01*
X146351690Y-106324515D01*
X146336450Y-106357535D01*
X146330100Y-106415955D01*
X146337720Y-106476915D01*
X146364390Y-106511205D01*
X146398045Y-106523270D01*
X146441860Y-106525175D01*
X146702210Y-106525175D01*
X146702210Y-106861725D01*
X146443130Y-106861725D01*
X146377090Y-106868075D01*
X146341848Y-106902682D01*
X146330100Y-106973485D01*
X146003287Y-106973485D01*
X146003287Y-105761905D01*
X146318670Y-105761905D01*
X146327560Y-105848265D01*
X146354230Y-105932085D01*
X146396458Y-106009872D01*
X146452020Y-106078135D01*
X146521711Y-106135285D01*
X146606325Y-106179735D01*
X146701734Y-106208310D01*
X146803810Y-106217835D01*
X146896996Y-106209382D01*
X146983515Y-106184021D01*
X147063366Y-106141754D01*
X147136550Y-106082580D01*
X147197669Y-106011341D01*
X147241325Y-105932879D01*
X147267519Y-105847193D01*
X147276250Y-105754285D01*
X147267400Y-105661575D01*
X147240849Y-105576485D01*
X147196597Y-105499015D01*
X147134645Y-105429165D01*
X147060112Y-105371380D01*
X146978117Y-105330105D01*
X146888662Y-105305340D01*
X146791745Y-105297085D01*
X146695185Y-105305737D01*
X146606801Y-105331692D01*
X146526593Y-105374952D01*
X146454560Y-105435515D01*
X146395108Y-105507826D01*
X146352642Y-105586327D01*
X146327163Y-105671021D01*
X146318670Y-105761905D01*
X146003287Y-105761905D01*
X146003287Y-105101505D01*
X146330100Y-105101505D01*
X146338672Y-105166910D01*
X146364390Y-105200565D01*
X146398045Y-105212630D01*
X146441860Y-105214535D01*
X147147980Y-105214535D01*
X147212750Y-105206915D01*
X147248945Y-105173260D01*
X147261010Y-105102775D01*
X147261010Y-104645575D01*
X147248310Y-104579535D01*
X147220370Y-104557945D01*
X147166395Y-104551595D01*
X147112420Y-104557945D01*
X147082575Y-104583345D01*
X147073050Y-104644305D01*
X147073050Y-104989745D01*
X146443130Y-104989745D01*
X146377090Y-104996095D01*
X146341848Y-105030702D01*
X146330100Y-105101505D01*
X146003287Y-105101505D01*
X146003287Y-104356015D01*
X146328830Y-104356015D01*
X146337402Y-104421420D01*
X146363120Y-104455075D01*
X146396140Y-104467140D01*
X146440590Y-104469045D01*
X147146710Y-104469045D01*
X147227990Y-104453805D01*
X147251803Y-104420150D01*
X147259740Y-104357285D01*
X147259740Y-104124875D01*
X147251088Y-104031332D01*
X147225132Y-103945011D01*
X147181873Y-103865914D01*
X147121310Y-103794040D01*
X147048642Y-103734310D01*
X146969069Y-103691646D01*
X146882590Y-103666048D01*
X146789205Y-103657515D01*
X146696178Y-103666246D01*
X146610770Y-103692440D01*
X146532982Y-103736096D01*
X146462815Y-103797215D01*
X146404752Y-103869843D01*
X146363279Y-103948027D01*
X146338395Y-104031768D01*
X146330100Y-104121065D01*
X146328830Y-104356015D01*
X146003287Y-104356015D01*
X146003287Y-103657515D01*
X146003287Y-103392932D01*
X146800000Y-102861789D01*
X147596713Y-103392932D01*
X147596713Y-103657515D01*
X147596713Y-104124875D01*
X147596713Y-104645575D01*
G37*
%TO.C,G\u002A\u002A\u002A*%
G36*
X144089029Y-96519512D02*
G01*
X144286313Y-96521088D01*
X144445137Y-96523739D01*
X144566279Y-96527485D01*
X144650519Y-96532346D01*
X144698635Y-96538344D01*
X144708277Y-96541215D01*
X144766647Y-96586875D01*
X144795015Y-96650695D01*
X144791545Y-96722393D01*
X144754404Y-96791686D01*
X144753206Y-96793092D01*
X144704916Y-96849252D01*
X143895525Y-96854899D01*
X143682911Y-96855874D01*
X143495747Y-96855693D01*
X143336599Y-96854399D01*
X143208034Y-96852033D01*
X143112617Y-96848639D01*
X143052916Y-96844258D01*
X143034057Y-96840747D01*
X142980555Y-96801950D01*
X142942538Y-96740806D01*
X142928708Y-96673647D01*
X142931848Y-96648950D01*
X142956792Y-96599962D01*
X142995019Y-96558707D01*
X143009090Y-96548807D01*
X143026278Y-96540703D01*
X143050455Y-96534216D01*
X143085494Y-96529166D01*
X143135268Y-96525374D01*
X143203650Y-96522661D01*
X143294512Y-96520848D01*
X143411727Y-96519754D01*
X143559168Y-96519201D01*
X143740707Y-96519008D01*
X143852506Y-96518992D01*
X144089029Y-96519512D01*
G37*
G36*
X143748712Y-98724297D02*
G01*
X143895525Y-98725086D01*
X144704916Y-98730733D01*
X144753206Y-98786893D01*
X144793385Y-98856566D01*
X144794313Y-98929556D01*
X144778087Y-98973643D01*
X144766375Y-98994545D01*
X144750919Y-99011822D01*
X144728072Y-99025820D01*
X144694190Y-99036881D01*
X144645626Y-99045350D01*
X144578735Y-99051571D01*
X144489871Y-99055887D01*
X144375390Y-99058644D01*
X144231646Y-99060184D01*
X144054993Y-99060853D01*
X143852506Y-99060993D01*
X143651249Y-99060920D01*
X143486151Y-99060581D01*
X143353339Y-99059797D01*
X143248940Y-99058389D01*
X143169082Y-99056177D01*
X143109891Y-99052981D01*
X143067496Y-99048623D01*
X143038023Y-99042923D01*
X143017599Y-99035701D01*
X143002352Y-99026779D01*
X142995019Y-99021278D01*
X142954497Y-98976745D01*
X142931848Y-98931035D01*
X142933672Y-98866012D01*
X142963135Y-98800528D01*
X143011535Y-98750911D01*
X143034057Y-98739237D01*
X143068083Y-98734211D01*
X143139564Y-98730143D01*
X143245934Y-98727076D01*
X143384626Y-98725050D01*
X143553074Y-98724110D01*
X143748712Y-98724297D01*
G37*
G36*
X143874952Y-95538442D02*
G01*
X144017647Y-95540060D01*
X144152981Y-95543017D01*
X144274319Y-95547274D01*
X144375027Y-95552791D01*
X144448469Y-95559526D01*
X144486289Y-95566777D01*
X144606118Y-95629376D01*
X144701262Y-95720757D01*
X144753416Y-95806090D01*
X144775182Y-95858146D01*
X144789238Y-95909273D01*
X144797196Y-95970448D01*
X144800670Y-96052649D01*
X144801301Y-96131977D01*
X144801497Y-96355442D01*
X143775689Y-96364241D01*
X143534387Y-96366407D01*
X143329295Y-96368653D01*
X143156593Y-96371307D01*
X143012461Y-96374696D01*
X142893078Y-96379149D01*
X142794625Y-96384993D01*
X142713280Y-96392556D01*
X142645223Y-96402166D01*
X142586634Y-96414151D01*
X142533693Y-96428839D01*
X142482579Y-96446557D01*
X142429472Y-96467635D01*
X142392956Y-96482919D01*
X142188547Y-96590496D01*
X142003024Y-96730768D01*
X141841617Y-96898797D01*
X141709556Y-97089649D01*
X141668300Y-97166837D01*
X141586151Y-97363750D01*
X141537693Y-97557777D01*
X141519841Y-97761845D01*
X141519607Y-97789992D01*
X141538962Y-98019191D01*
X141595086Y-98239481D01*
X141685072Y-98446817D01*
X141806010Y-98637156D01*
X141954992Y-98806453D01*
X142129109Y-98950665D01*
X142325452Y-99065748D01*
X142483244Y-99129744D01*
X142547847Y-99149679D01*
X142615269Y-99166548D01*
X142689332Y-99180597D01*
X142773857Y-99192069D01*
X142872667Y-99201209D01*
X142989582Y-99208262D01*
X143128424Y-99213473D01*
X143293014Y-99217085D01*
X143487174Y-99219343D01*
X143714725Y-99220493D01*
X143905792Y-99220772D01*
X144801497Y-99221119D01*
X144801301Y-99446297D01*
X144800101Y-99550998D01*
X144795654Y-99626594D01*
X144786366Y-99683977D01*
X144770646Y-99734039D01*
X144753416Y-99773895D01*
X144680863Y-99883646D01*
X144579229Y-99968554D01*
X144486289Y-100013208D01*
X144443850Y-100021030D01*
X144368031Y-100027671D01*
X144265467Y-100033090D01*
X144142792Y-100037247D01*
X144006641Y-100040101D01*
X143863650Y-100041611D01*
X143720453Y-100041738D01*
X143583686Y-100040441D01*
X143459983Y-100037679D01*
X143355979Y-100033411D01*
X143278310Y-100027598D01*
X143235769Y-100020837D01*
X143143142Y-99979892D01*
X143053481Y-99914440D01*
X142980973Y-99836087D01*
X142952157Y-99788861D01*
X142912667Y-99706925D01*
X142751211Y-99695278D01*
X142504061Y-99657853D01*
X142262459Y-99583459D01*
X142030706Y-99475140D01*
X141813103Y-99335938D01*
X141613953Y-99168898D01*
X141437554Y-98977061D01*
X141288210Y-98763471D01*
X141199649Y-98597499D01*
X141132207Y-98441356D01*
X141084089Y-98297545D01*
X141052663Y-98153595D01*
X141035299Y-97997038D01*
X141029367Y-97815404D01*
X141029299Y-97789992D01*
X141033971Y-97604294D01*
X141049742Y-97445252D01*
X141079242Y-97300396D01*
X141125102Y-97157257D01*
X141189953Y-97003364D01*
X141199649Y-96982486D01*
X141329523Y-96750357D01*
X141489883Y-96539569D01*
X141676739Y-96352927D01*
X141886102Y-96193234D01*
X142113983Y-96063294D01*
X142356393Y-95965910D01*
X142609341Y-95903886D01*
X142761204Y-95885068D01*
X142912636Y-95873123D01*
X142952142Y-95791155D01*
X143008035Y-95710605D01*
X143089393Y-95636173D01*
X143182024Y-95579466D01*
X143235769Y-95559148D01*
X143283294Y-95551875D01*
X143363267Y-95546184D01*
X143469055Y-95542036D01*
X143594021Y-95539390D01*
X143731532Y-95538206D01*
X143874952Y-95538442D01*
G37*
%TD*%
M02*
