%TF.GenerationSoftware,KiCad,Pcbnew,7.0.2-0*%
%TF.CreationDate,2023-08-13T19:48:24+08:00*%
%TF.ProjectId,Music_32_V2,4d757369-635f-4333-925f-56322e6b6963,rev?*%
%TF.SameCoordinates,Original*%
%TF.FileFunction,Copper,L4,Bot*%
%TF.FilePolarity,Positive*%
%FSLAX46Y46*%
G04 Gerber Fmt 4.6, Leading zero omitted, Abs format (unit mm)*
G04 Created by KiCad (PCBNEW 7.0.2-0) date 2023-08-13 19:48:24*
%MOMM*%
%LPD*%
G01*
G04 APERTURE LIST*
G04 Aperture macros list*
%AMRoundRect*
0 Rectangle with rounded corners*
0 $1 Rounding radius*
0 $2 $3 $4 $5 $6 $7 $8 $9 X,Y pos of 4 corners*
0 Add a 4 corners polygon primitive as box body*
4,1,4,$2,$3,$4,$5,$6,$7,$8,$9,$2,$3,0*
0 Add four circle primitives for the rounded corners*
1,1,$1+$1,$2,$3*
1,1,$1+$1,$4,$5*
1,1,$1+$1,$6,$7*
1,1,$1+$1,$8,$9*
0 Add four rect primitives between the rounded corners*
20,1,$1+$1,$2,$3,$4,$5,0*
20,1,$1+$1,$4,$5,$6,$7,0*
20,1,$1+$1,$6,$7,$8,$9,0*
20,1,$1+$1,$8,$9,$2,$3,0*%
G04 Aperture macros list end*
%TA.AperFunction,ComponentPad*%
%ADD10C,0.500000*%
%TD*%
%TA.AperFunction,ComponentPad*%
%ADD11O,1.000000X2.100000*%
%TD*%
%TA.AperFunction,ComponentPad*%
%ADD12O,1.000000X1.600000*%
%TD*%
%TA.AperFunction,SMDPad,CuDef*%
%ADD13R,2.900000X2.900000*%
%TD*%
%TA.AperFunction,SMDPad,CuDef*%
%ADD14R,1.000000X0.750000*%
%TD*%
%TA.AperFunction,SMDPad,CuDef*%
%ADD15RoundRect,0.100000X-0.100000X-1.100000X0.100000X-1.100000X0.100000X1.100000X-0.100000X1.100000X0*%
%TD*%
%TA.AperFunction,SMDPad,CuDef*%
%ADD16RoundRect,0.147500X-0.172500X0.147500X-0.172500X-0.147500X0.172500X-0.147500X0.172500X0.147500X0*%
%TD*%
%TA.AperFunction,ComponentPad*%
%ADD17C,1.000000*%
%TD*%
%TA.AperFunction,ViaPad*%
%ADD18C,0.600000*%
%TD*%
%TA.AperFunction,Conductor*%
%ADD19C,0.200000*%
%TD*%
%TA.AperFunction,Conductor*%
%ADD20C,0.300000*%
%TD*%
G04 APERTURE END LIST*
D10*
%TO.P,U2,41_1,GND*%
%TO.N,GND*%
X146660000Y-125900000D03*
X148060000Y-125900000D03*
X145950000Y-125200000D03*
X147400000Y-125200000D03*
X148750000Y-125200000D03*
X146650000Y-124500000D03*
X148060000Y-124500000D03*
X145950000Y-123800000D03*
X147400000Y-123800000D03*
X148750000Y-123800000D03*
X146650000Y-123050000D03*
X148060000Y-123050000D03*
%TD*%
D11*
%TO.P,J3,S1,SHIELD*%
%TO.N,GND*%
X149100000Y-151625000D03*
D12*
X149100000Y-155805000D03*
D11*
X157740000Y-151625000D03*
D12*
X157740000Y-155805000D03*
%TD*%
D10*
%TO.P,U3,33,PAD*%
%TO.N,GND*%
X160270000Y-81900000D03*
X160270000Y-83100000D03*
X160270000Y-84300000D03*
X161470000Y-81900000D03*
X161470000Y-83100000D03*
D13*
X161470000Y-83100000D03*
D10*
X161470000Y-84300000D03*
X162670000Y-81900000D03*
X162670000Y-83100000D03*
X162670000Y-84300000D03*
%TD*%
D14*
%TO.P,SW3,1,1*%
%TO.N,IO5*%
X143270000Y-132625000D03*
X137270000Y-132625000D03*
%TO.P,SW3,2,2*%
%TO.N,GND*%
X143270000Y-136375000D03*
X137270000Y-136375000D03*
%TD*%
%TO.P,SW5,1,1*%
%TO.N,IO6*%
X156420000Y-145875000D03*
X150420000Y-145875000D03*
%TO.P,SW5,2,2*%
%TO.N,GND*%
X156420000Y-149625000D03*
X150420000Y-149625000D03*
%TD*%
%TO.P,SW4,1,1*%
%TO.N,IO3*%
X169670000Y-132625000D03*
X163670000Y-132625000D03*
%TO.P,SW4,2,2*%
%TO.N,GND*%
X169670000Y-136375000D03*
X163670000Y-136375000D03*
%TD*%
%TO.P,SW1,1,1*%
%TO.N,IO7*%
X156420000Y-132625000D03*
X150420000Y-132625000D03*
%TO.P,SW1,2,2*%
%TO.N,GND*%
X156420000Y-136375000D03*
X150420000Y-136375000D03*
%TD*%
D15*
%TO.P,U8,1,GND*%
%TO.N,GND*%
X146920000Y-94800000D03*
%TO.P,U8,2,LEDK*%
%TO.N,Net-(Q4-D)*%
X147720000Y-94800000D03*
%TO.P,U8,3,LEDA*%
%TO.N,Net-(U8-LEDA)*%
X148520000Y-94800000D03*
%TO.P,U8,4,VCC*%
%TO.N,+3.3V*%
X149320000Y-94800000D03*
%TO.P,U8,5,GND*%
%TO.N,GND*%
X150120000Y-94800000D03*
%TO.P,U8,6,GND*%
X150920000Y-94800000D03*
%TO.P,U8,7,D/C*%
%TO.N,DISPLAY_DC*%
X151720000Y-94800000D03*
%TO.P,U8,8,CS*%
%TO.N,DISPLAY_CS*%
X152520000Y-94800000D03*
%TO.P,U8,9,SCL*%
%TO.N,CLK*%
X153320000Y-94800000D03*
%TO.P,U8,10,SDA*%
%TO.N,MOSI*%
X154120000Y-94800000D03*
%TO.P,U8,11,RESET*%
%TO.N,DISPLAY_RESET*%
X154920000Y-94800000D03*
%TO.P,U8,12,GND*%
%TO.N,GND*%
X155720000Y-94800000D03*
%TD*%
D14*
%TO.P,SW2,1,1*%
%TO.N,IO0*%
X156420000Y-119375000D03*
X150420000Y-119375000D03*
%TO.P,SW2,2,2*%
%TO.N,GND*%
X156420000Y-123125000D03*
X150420000Y-123125000D03*
%TD*%
%TO.P,SW6,1,1*%
%TO.N,/EN*%
X143986762Y-152555000D03*
X137986762Y-152555000D03*
%TO.P,SW6,2,2*%
%TO.N,GND*%
X143986762Y-156305000D03*
X137986762Y-156305000D03*
%TD*%
D16*
%TO.P,D5,1,K*%
%TO.N,Net-(D5-K)*%
X164900000Y-156835001D03*
%TO.P,D5,2,A*%
%TO.N,VBUS*%
X164900000Y-157805001D03*
%TD*%
D17*
%TO.P,MK1,1,-*%
%TO.N,/Codec/M2-*%
X168670000Y-63300000D03*
%TO.P,MK1,2,+*%
%TO.N,/Codec/M2+*%
X168670000Y-61900000D03*
%TD*%
D16*
%TO.P,D4,1,K*%
%TO.N,Net-(D4-K)*%
X163900000Y-156850000D03*
%TO.P,D4,2,A*%
%TO.N,VBUS*%
X163900000Y-157820000D03*
%TD*%
D18*
%TO.N,IO7*%
X147350000Y-135209500D03*
X147300000Y-132850000D03*
%TO.N,GND*%
X146700000Y-134450000D03*
X168800000Y-125750000D03*
X145400000Y-134450000D03*
X164650000Y-89400000D03*
X147300000Y-90450000D03*
X172100000Y-141750000D03*
X138500000Y-79850000D03*
X172300000Y-136550000D03*
X155500000Y-147200000D03*
X136500000Y-79850000D03*
X155500000Y-123150000D03*
X148300000Y-74350000D03*
X157500000Y-136450000D03*
X159155000Y-155805000D03*
X140500000Y-79850000D03*
X139080000Y-133330000D03*
X150120000Y-96630000D03*
X146600000Y-63500000D03*
X167000000Y-80800000D03*
X145700000Y-129950000D03*
X160400000Y-77650000D03*
X154800000Y-130050000D03*
X134500000Y-79850000D03*
X172300000Y-142950000D03*
X139100000Y-136850000D03*
X153800000Y-134150000D03*
X160900000Y-74950000D03*
X149400000Y-71050000D03*
X139800000Y-61700000D03*
X170100000Y-147950000D03*
X153000000Y-112750000D03*
X146900000Y-93050000D03*
X164100000Y-149950000D03*
X166000000Y-77950000D03*
X132718399Y-84304600D03*
X142699500Y-134430000D03*
X142700000Y-79850000D03*
X172600000Y-135350000D03*
X159400000Y-147850000D03*
X166250000Y-79550000D03*
X165600000Y-148850000D03*
X157800000Y-80150000D03*
X139800000Y-113150000D03*
X160476089Y-88773911D03*
X156200000Y-110450000D03*
X151700000Y-112750000D03*
X147200000Y-87350000D03*
X160800000Y-151250000D03*
X172600000Y-133850000D03*
X164700000Y-135950000D03*
X151450000Y-139300000D03*
X152200000Y-80250000D03*
X158620000Y-88550000D03*
X150920000Y-96630000D03*
X144100000Y-134450000D03*
X164594500Y-76450000D03*
X157100000Y-82950000D03*
X155900000Y-79950000D03*
X142300000Y-127950000D03*
X145500000Y-111800000D03*
X149600000Y-146850000D03*
X150800000Y-63800000D03*
X147200000Y-130150000D03*
X149919503Y-64700000D03*
X149100000Y-112750000D03*
X159100000Y-131800000D03*
X172300000Y-144450000D03*
X167000000Y-83500000D03*
X151650000Y-147200000D03*
X150400000Y-112750000D03*
X167000000Y-82600000D03*
X167000000Y-81650000D03*
X152800000Y-90650000D03*
X165950000Y-88950000D03*
X160400000Y-147850000D03*
X151000000Y-130050000D03*
X132400000Y-76800000D03*
%TO.N,HOLD*%
X149120000Y-64700000D03*
X143450000Y-135209500D03*
X143450000Y-127950000D03*
%TO.N,IO0*%
X155500000Y-119350000D03*
%TO.N,IO5*%
X144700000Y-135209500D03*
X144700000Y-130500000D03*
%TO.N,IO3*%
X161150000Y-130900000D03*
%TO.N,IO6*%
X146050000Y-135209500D03*
X146000000Y-132850000D03*
%TO.N,/EN*%
X142100000Y-135209500D03*
X141571232Y-132952640D03*
%TO.N,+3.3V*%
X149300000Y-96650000D03*
X148300000Y-137050000D03*
X168200000Y-78450000D03*
X136500000Y-77350000D03*
X168200000Y-92650000D03*
X159595000Y-89150000D03*
X156600000Y-78250000D03*
X160030000Y-131770000D03*
X132700000Y-86350000D03*
X152300000Y-135150000D03*
X168900000Y-135150000D03*
X132400000Y-79300000D03*
X157100000Y-81970000D03*
%TO.N,ADCVREF*%
X164450000Y-81700000D03*
X159400000Y-75300000D03*
X163650000Y-73650000D03*
X165350000Y-79550000D03*
%TO.N,+3.3VA*%
X165350000Y-86550000D03*
X164650000Y-82600000D03*
%TO.N,/Codec/M2+*%
X161400000Y-77650000D03*
%TO.N,/Codec/M2-*%
X162300000Y-77650000D03*
%TO.N,/Codec/M1+*%
X163300000Y-77500000D03*
X162850000Y-85950000D03*
%TO.N,/Codec/M1-*%
X162000000Y-85950000D03*
X164097147Y-77438681D03*
%TO.N,Net-(U3-HEADSET)*%
X167250000Y-77850000D03*
X159050000Y-86100000D03*
%TO.N,BATT+*%
X162600000Y-154150000D03*
X165400000Y-152250000D03*
X148800000Y-149450000D03*
%TO.N,VBUS*%
X159600000Y-153250000D03*
%TO.N,Net-(D4-K)*%
X163900000Y-155850000D03*
%TO.N,Net-(D5-K)*%
X164900000Y-155850000D03*
%TO.N,MISO*%
X134900000Y-83250000D03*
X137500000Y-79850000D03*
X145990000Y-112740000D03*
%TO.N,CLK*%
X134900000Y-85450000D03*
X141500000Y-79850000D03*
X152340000Y-108950000D03*
%TO.N,MOSI*%
X139500000Y-79850000D03*
X134900000Y-87650000D03*
X153600000Y-110950000D03*
%TO.N,SD_CS*%
X142200000Y-112750000D03*
X132680000Y-88730000D03*
%TO.N,Net-(Q4-D)*%
X148000000Y-93050000D03*
%TO.N,SDA*%
X148500000Y-127950000D03*
X159884251Y-79973740D03*
X151100000Y-74550000D03*
%TO.N,SCL*%
X152900000Y-81450000D03*
X149800000Y-130250000D03*
%TO.N,HEADSET_INT*%
X153600000Y-130250000D03*
X160000000Y-86050000D03*
%TO.N,Net-(U8-LEDA)*%
X148300000Y-96650000D03*
%TO.N,DISPLAY_RESET*%
X154880000Y-112880000D03*
%TO.N,RTC_INT*%
X152300000Y-79050000D03*
X152340000Y-127950000D03*
%TO.N,MCLK*%
X155500000Y-125550000D03*
X155900000Y-80950000D03*
%TO.N,DISPLAY_CS*%
X151070000Y-111800000D03*
%TO.N,DISPLAY_DC*%
X149200000Y-109450000D03*
%TD*%
D19*
%TO.N,IO7*%
X149025000Y-132625000D02*
X148800000Y-132850000D01*
X147350000Y-135209500D02*
X147350000Y-132900000D01*
X150420000Y-132625000D02*
X149025000Y-132625000D01*
X147350000Y-132900000D02*
X147300000Y-132850000D01*
X148800000Y-132850000D02*
X147300000Y-132850000D01*
%TO.N,GND*%
X143986762Y-156305000D02*
X146645000Y-156305000D01*
X147145000Y-155805000D02*
X149100000Y-155805000D01*
X155675000Y-123125000D02*
X155700000Y-123150000D01*
D20*
X163670000Y-136375000D02*
X164275000Y-136375000D01*
D19*
X155500000Y-122950000D02*
X155600000Y-123050000D01*
D20*
X157500000Y-136450000D02*
X156495000Y-136450000D01*
D19*
X155720000Y-94800000D02*
X155720000Y-93570000D01*
X146920000Y-93070000D02*
X146920000Y-94800000D01*
X143270000Y-136375000D02*
X143270000Y-136020000D01*
D20*
X150420000Y-149625000D02*
X150420000Y-150305000D01*
X169670000Y-136375000D02*
X172125000Y-136375000D01*
D19*
X137986762Y-156305000D02*
X143986762Y-156305000D01*
X155700000Y-123150000D02*
X155500000Y-123150000D01*
X155720000Y-93570000D02*
X152800000Y-90650000D01*
X150120000Y-94800000D02*
X150120000Y-96630000D01*
D20*
X150420000Y-150305000D02*
X149100000Y-151625000D01*
X156420000Y-150305000D02*
X157740000Y-151625000D01*
D19*
X143270000Y-136020000D02*
X142699500Y-135449500D01*
D20*
X156420000Y-136375000D02*
X150420000Y-136375000D01*
D19*
X146645000Y-156305000D02*
X147145000Y-155805000D01*
D20*
X156420000Y-149625000D02*
X156420000Y-150305000D01*
D19*
X149425000Y-123125000D02*
X148750000Y-123800000D01*
X155500000Y-123150000D02*
X155500000Y-122950000D01*
X146900000Y-93050000D02*
X146920000Y-93070000D01*
D20*
X172125000Y-136375000D02*
X172300000Y-136550000D01*
D19*
X156420000Y-123125000D02*
X155675000Y-123125000D01*
X150420000Y-123125000D02*
X149425000Y-123125000D01*
D20*
X164275000Y-136375000D02*
X164700000Y-135950000D01*
D19*
X142699500Y-135449500D02*
X142699500Y-134430000D01*
X150920000Y-94800000D02*
X150920000Y-96630000D01*
%TO.N,HOLD*%
X143450000Y-129548529D02*
X142350000Y-130648529D01*
X142300000Y-68150000D02*
X130900000Y-79550000D01*
X149120000Y-64700000D02*
X149120000Y-65950000D01*
X143450000Y-134331971D02*
X143450000Y-135209500D01*
X143400000Y-127900000D02*
X143450000Y-127950000D01*
X143450000Y-127950000D02*
X143450000Y-129548529D01*
X143400000Y-120050000D02*
X143400000Y-127900000D01*
X130900000Y-79550000D02*
X130900000Y-90450000D01*
X139100000Y-98650000D02*
X139100000Y-115750000D01*
X142350000Y-130648529D02*
X142350000Y-133231971D01*
X130900000Y-90450000D02*
X139100000Y-98650000D01*
X139100000Y-115750000D02*
X143400000Y-120050000D01*
X142350000Y-133231971D02*
X143450000Y-134331971D01*
X146920000Y-68150000D02*
X142300000Y-68150000D01*
X149120000Y-65950000D02*
X146920000Y-68150000D01*
%TO.N,IO0*%
X156420000Y-119375000D02*
X155525000Y-119375000D01*
X155525000Y-119375000D02*
X155500000Y-119350000D01*
%TO.N,IO5*%
X144675000Y-132625000D02*
X144700000Y-132650000D01*
X144700000Y-130500000D02*
X144700000Y-132650000D01*
X143270000Y-132625000D02*
X144675000Y-132625000D01*
X144700000Y-132650000D02*
X144700000Y-135209500D01*
%TO.N,IO3*%
X162175000Y-132625000D02*
X161150000Y-131600000D01*
X161150000Y-131600000D02*
X161150000Y-130900000D01*
X163670000Y-132625000D02*
X162175000Y-132625000D01*
%TO.N,IO6*%
X146050000Y-135209500D02*
X146050000Y-132900000D01*
X146050000Y-139550000D02*
X150500000Y-144000000D01*
X146050000Y-135209500D02*
X146050000Y-139550000D01*
X150500000Y-144000000D02*
X150500000Y-145795000D01*
X146050000Y-132900000D02*
X146000000Y-132850000D01*
%TO.N,/EN*%
X142100000Y-150050000D02*
X143986762Y-151936762D01*
X141571232Y-132952640D02*
X141550000Y-132973872D01*
X141550000Y-134659500D02*
X142100000Y-135209500D01*
X143986762Y-151936762D02*
X143986762Y-152555000D01*
X141550000Y-132973872D02*
X141550000Y-134659500D01*
X143986762Y-152555000D02*
X137986762Y-152555000D01*
X142100000Y-135209500D02*
X142100000Y-150050000D01*
D20*
%TO.N,+3.3V*%
X132600000Y-86350000D02*
X132700000Y-86350000D01*
X156200000Y-82870000D02*
X157100000Y-81970000D01*
X157100000Y-78750000D02*
X157100000Y-81970000D01*
X132600000Y-86350000D02*
X131900000Y-85650000D01*
X168600000Y-78850000D02*
X168200000Y-78450000D01*
X131900000Y-85650000D02*
X131900000Y-79800000D01*
X168600000Y-92250000D02*
X168600000Y-78850000D01*
X148500000Y-135550000D02*
X148500000Y-136850000D01*
X148500000Y-136850000D02*
X148300000Y-137050000D01*
X168200000Y-92650000D02*
X168600000Y-92250000D01*
X134350000Y-77350000D02*
X136500000Y-77350000D01*
D19*
X149320000Y-96630000D02*
X149300000Y-96650000D01*
D20*
X159595000Y-88245000D02*
X156200000Y-84850000D01*
D19*
X149320000Y-94800000D02*
X149320000Y-96630000D01*
D20*
X159595000Y-89150000D02*
X159595000Y-88245000D01*
X132700000Y-86350000D02*
X132700000Y-86450000D01*
X160000000Y-135150000D02*
X160000000Y-131800000D01*
X160000000Y-135150000D02*
X168900000Y-135150000D01*
X148900000Y-135150000D02*
X148500000Y-135550000D01*
X131900000Y-79800000D02*
X134350000Y-77350000D01*
X156200000Y-84850000D02*
X156200000Y-82870000D01*
X160000000Y-131800000D02*
X160030000Y-131770000D01*
X132700000Y-86450000D02*
X132600000Y-86350000D01*
X156600000Y-78250000D02*
X157100000Y-78750000D01*
X152300000Y-135150000D02*
X160000000Y-135150000D01*
X152300000Y-135150000D02*
X148900000Y-135150000D01*
D19*
%TO.N,ADCVREF*%
X164500000Y-81700000D02*
X165350000Y-80850000D01*
X160150000Y-73650000D02*
X159400000Y-74400000D01*
X159400000Y-74400000D02*
X159400000Y-75300000D01*
X163650000Y-73650000D02*
X160150000Y-73650000D01*
X164450000Y-81700000D02*
X164500000Y-81700000D01*
X165350000Y-80850000D02*
X165350000Y-79550000D01*
D20*
%TO.N,+3.3VA*%
X165350000Y-83300000D02*
X164650000Y-82600000D01*
X165350000Y-86550000D02*
X165350000Y-83300000D01*
D19*
%TO.N,/Codec/M2+*%
X161624999Y-76659315D02*
X165425000Y-72859314D01*
X165425000Y-65145000D02*
X168670000Y-61900000D01*
X165425000Y-72859314D02*
X165425000Y-65145000D01*
X161400000Y-77650000D02*
X161624999Y-77425001D01*
X161624999Y-77425001D02*
X161624999Y-76659315D01*
%TO.N,/Codec/M2-*%
X162075001Y-76774999D02*
X165825000Y-73025000D01*
X162075001Y-77425001D02*
X162075001Y-76774999D01*
X167906397Y-63300000D02*
X168670000Y-63300000D01*
X165825000Y-73025000D02*
X165825000Y-65381397D01*
X162300000Y-77650000D02*
X162075001Y-77425001D01*
X165825000Y-65381397D02*
X167906397Y-63300000D01*
%TO.N,/Codec/M1+*%
X162850000Y-85950000D02*
X163400000Y-85400000D01*
X163400000Y-85400000D02*
X163400000Y-77600000D01*
X163300000Y-77500000D02*
X163350000Y-77600000D01*
X163400000Y-77600000D02*
X163300000Y-77500000D01*
%TO.N,/Codec/M1-*%
X163100000Y-86550000D02*
X162600000Y-86550000D01*
X163800000Y-77848529D02*
X163800000Y-85850000D01*
X164097147Y-77438681D02*
X164097147Y-77551382D01*
X163800000Y-85850000D02*
X163100000Y-86550000D01*
X162600000Y-86550000D02*
X162000000Y-85950000D01*
X164097147Y-77551382D02*
X163800000Y-77848529D01*
%TO.N,Net-(U3-HEADSET)*%
X159750000Y-85250000D02*
X160450000Y-85250000D01*
X167950000Y-85100000D02*
X167950000Y-79600000D01*
X160950000Y-86600000D02*
X161800000Y-87450000D01*
X167950000Y-79600000D02*
X167250000Y-78900000D01*
X161800000Y-87450000D02*
X165600000Y-87450000D01*
X159050000Y-86100000D02*
X159050000Y-85950000D01*
X165600000Y-87450000D02*
X167950000Y-85100000D01*
X160950000Y-85750000D02*
X160950000Y-86600000D01*
X167250000Y-78900000D02*
X167250000Y-77850000D01*
X159050000Y-85950000D02*
X159750000Y-85250000D01*
X160450000Y-85250000D02*
X160950000Y-85750000D01*
D20*
%TO.N,BATT+*%
X160300000Y-152450000D02*
X159000000Y-152450000D01*
X147600000Y-150650000D02*
X148800000Y-149450000D01*
X162000000Y-154150000D02*
X160300000Y-152450000D01*
X157500000Y-153950000D02*
X148200000Y-153950000D01*
X163500000Y-154150000D02*
X162600000Y-154150000D01*
X162600000Y-154150000D02*
X162000000Y-154150000D01*
X159000000Y-152450000D02*
X157500000Y-153950000D01*
X165400000Y-152250000D02*
X163500000Y-154150000D01*
X148200000Y-153950000D02*
X147600000Y-153350000D01*
X147600000Y-153350000D02*
X147600000Y-150650000D01*
D19*
%TO.N,VBUS*%
X159600000Y-155250000D02*
X159600000Y-153350000D01*
X164900000Y-157805001D02*
X163914999Y-157805001D01*
X163900000Y-157820000D02*
X162170000Y-157820000D01*
X159600000Y-155250000D02*
X162170000Y-157820000D01*
%TO.N,Net-(D4-K)*%
X163900000Y-155850000D02*
X163900000Y-156850000D01*
%TO.N,Net-(D5-K)*%
X164900000Y-155850000D02*
X164900000Y-156835001D01*
%TO.N,MISO*%
X142000000Y-109350000D02*
X142000000Y-96550000D01*
X142000000Y-96550000D02*
X133500000Y-88050000D01*
X145390000Y-112740000D02*
X142000000Y-109350000D01*
X145990000Y-112740000D02*
X145390000Y-112740000D01*
X134500000Y-83250000D02*
X134900000Y-83250000D01*
X137500000Y-79850000D02*
X137500000Y-82150000D01*
X133500000Y-88050000D02*
X133500000Y-84250000D01*
X137500000Y-82150000D02*
X136400000Y-83250000D01*
X133500000Y-84250000D02*
X134500000Y-83250000D01*
X136400000Y-83250000D02*
X134900000Y-83250000D01*
%TO.N,CLK*%
X141500000Y-85450000D02*
X141500000Y-79850000D01*
X153320000Y-107780000D02*
X153320000Y-94800000D01*
X141500000Y-85450000D02*
X146600000Y-85450000D01*
X146600000Y-85450000D02*
X153320000Y-92170000D01*
X134900000Y-85450000D02*
X141500000Y-85450000D01*
X153320000Y-92170000D02*
X153320000Y-94800000D01*
X152340000Y-108760000D02*
X153320000Y-107780000D01*
X152340000Y-108950000D02*
X152340000Y-108760000D01*
%TO.N,MOSI*%
X144000000Y-93650000D02*
X138000000Y-87650000D01*
X153600000Y-109050000D02*
X155050000Y-107600000D01*
X138000000Y-87650000D02*
X134900000Y-87650000D01*
X134100000Y-85050000D02*
X134100000Y-86950000D01*
X134700000Y-84450000D02*
X134100000Y-85050000D01*
X149600000Y-114450000D02*
X144000000Y-108850000D01*
X153600000Y-110950000D02*
X153600000Y-113850000D01*
X153000000Y-114450000D02*
X149600000Y-114450000D01*
X154120000Y-97170000D02*
X154120000Y-94800000D01*
X153600000Y-113850000D02*
X153000000Y-114450000D01*
X134800000Y-87650000D02*
X134900000Y-87650000D01*
X134100000Y-86950000D02*
X134800000Y-87650000D01*
X139500000Y-79850000D02*
X139500000Y-82550000D01*
X155050000Y-107600000D02*
X155050000Y-98100000D01*
X137600000Y-84450000D02*
X134700000Y-84450000D01*
X144000000Y-108850000D02*
X144000000Y-93650000D01*
X139500000Y-82550000D02*
X137600000Y-84450000D01*
X153600000Y-110950000D02*
X153600000Y-109050000D01*
X155050000Y-98100000D02*
X154120000Y-97170000D01*
%TO.N,SD_CS*%
X142200000Y-111450000D02*
X142200000Y-112750000D01*
X140500000Y-109750000D02*
X142200000Y-111450000D01*
X140500000Y-97150000D02*
X140500000Y-109750000D01*
X132680000Y-88730000D02*
X132680000Y-89330000D01*
X132680000Y-89330000D02*
X140500000Y-97150000D01*
%TO.N,Net-(Q4-D)*%
X147720000Y-93330000D02*
X147720000Y-94800000D01*
X148000000Y-93050000D02*
X147720000Y-93330000D01*
%TO.N,SDA*%
X148500000Y-127550000D02*
X152600000Y-123450000D01*
X152600000Y-123450000D02*
X152600000Y-118250000D01*
X157100000Y-77550000D02*
X151100000Y-77550000D01*
X148500000Y-127950000D02*
X148500000Y-127550000D01*
X157500000Y-113350000D02*
X157500000Y-93950000D01*
X157500000Y-93950000D02*
X151100000Y-87550000D01*
X159884251Y-79973740D02*
X159523740Y-79973740D01*
X151100000Y-74550000D02*
X151100000Y-78850000D01*
X159523740Y-79973740D02*
X157100000Y-77550000D01*
X151100000Y-77550000D02*
X151100000Y-78850000D01*
X151100000Y-87550000D02*
X151100000Y-78850000D01*
X152600000Y-118250000D02*
X157500000Y-113350000D01*
%TO.N,SCL*%
X152900000Y-81450000D02*
X152900000Y-87150000D01*
X158700000Y-92950000D02*
X158700000Y-114050000D01*
X149800000Y-127950000D02*
X149800000Y-130250000D01*
X152900000Y-87150000D02*
X158700000Y-92950000D01*
X153700000Y-119050000D02*
X153700000Y-124050000D01*
X158700000Y-114050000D02*
X153700000Y-119050000D01*
X153700000Y-124050000D02*
X149800000Y-127950000D01*
%TO.N,HEADSET_INT*%
X163100000Y-120050000D02*
X153600000Y-129550000D01*
X163100000Y-90550000D02*
X163100000Y-120050000D01*
X160000000Y-86050000D02*
X160000000Y-87450000D01*
X160000000Y-87450000D02*
X163100000Y-90550000D01*
X153600000Y-129550000D02*
X153600000Y-130250000D01*
%TO.N,Net-(U8-LEDA)*%
X148520000Y-94800000D02*
X148520000Y-96430000D01*
X148520000Y-96430000D02*
X148300000Y-96650000D01*
%TO.N,DISPLAY_RESET*%
X156250000Y-108150000D02*
X156250000Y-97600000D01*
X154880000Y-109520000D02*
X156250000Y-108150000D01*
X156250000Y-97600000D02*
X154920000Y-96270000D01*
X154920000Y-96270000D02*
X154920000Y-94800000D01*
X154880000Y-112880000D02*
X154880000Y-109520000D01*
%TO.N,RTC_INT*%
X160100000Y-92550000D02*
X154000000Y-86450000D01*
X155700000Y-121150000D02*
X157500000Y-121150000D01*
X154000000Y-86450000D02*
X154000000Y-80750000D01*
X157500000Y-121150000D02*
X160100000Y-118550000D01*
X160100000Y-118550000D02*
X160100000Y-92550000D01*
X154700000Y-124650000D02*
X154700000Y-122150000D01*
X152340000Y-127010000D02*
X154700000Y-124650000D01*
X154000000Y-80750000D02*
X152300000Y-79050000D01*
X154700000Y-122150000D02*
X155700000Y-121150000D01*
X152340000Y-127950000D02*
X152340000Y-127010000D01*
%TO.N,MCLK*%
X155500000Y-125550000D02*
X161700000Y-119350000D01*
X161700000Y-92550000D02*
X155400000Y-86250000D01*
X155400000Y-81450000D02*
X155900000Y-80950000D01*
X155400000Y-86250000D02*
X155400000Y-81450000D01*
X161700000Y-119350000D02*
X161700000Y-92550000D01*
%TO.N,DISPLAY_CS*%
X152520000Y-99230000D02*
X151070000Y-100680000D01*
X152520000Y-99230000D02*
X152520000Y-94800000D01*
X151070000Y-100680000D02*
X151070000Y-111800000D01*
%TO.N,DISPLAY_DC*%
X151700000Y-97350000D02*
X151700000Y-94820000D01*
X149200000Y-109450000D02*
X149200000Y-99850000D01*
X149200000Y-99850000D02*
X151700000Y-97350000D01*
%TD*%
M02*
