%TF.GenerationSoftware,KiCad,Pcbnew,7.0.2-0*%
%TF.CreationDate,2023-08-13T19:48:24+08:00*%
%TF.ProjectId,Music_32_V2,4d757369-635f-4333-925f-56322e6b6963,rev?*%
%TF.SameCoordinates,Original*%
%TF.FileFunction,Soldermask,Bot*%
%TF.FilePolarity,Negative*%
%FSLAX46Y46*%
G04 Gerber Fmt 4.6, Leading zero omitted, Abs format (unit mm)*
G04 Created by KiCad (PCBNEW 7.0.2-0) date 2023-08-13 19:48:24*
%MOMM*%
%LPD*%
G01*
G04 APERTURE LIST*
G04 Aperture macros list*
%AMRoundRect*
0 Rectangle with rounded corners*
0 $1 Rounding radius*
0 $2 $3 $4 $5 $6 $7 $8 $9 X,Y pos of 4 corners*
0 Add a 4 corners polygon primitive as box body*
4,1,4,$2,$3,$4,$5,$6,$7,$8,$9,$2,$3,0*
0 Add four circle primitives for the rounded corners*
1,1,$1+$1,$2,$3*
1,1,$1+$1,$4,$5*
1,1,$1+$1,$6,$7*
1,1,$1+$1,$8,$9*
0 Add four rect primitives between the rounded corners*
20,1,$1+$1,$2,$3,$4,$5,0*
20,1,$1+$1,$4,$5,$6,$7,0*
20,1,$1+$1,$6,$7,$8,$9,0*
20,1,$1+$1,$8,$9,$2,$3,0*%
G04 Aperture macros list end*
%ADD10C,2.200000*%
%ADD11C,1.400000*%
%ADD12C,0.900000*%
%ADD13C,0.650000*%
%ADD14O,1.000000X2.100000*%
%ADD15O,1.000000X1.600000*%
%ADD16R,1.000000X0.750000*%
%ADD17RoundRect,0.100000X-0.100000X-1.100000X0.100000X-1.100000X0.100000X1.100000X-0.100000X1.100000X0*%
%ADD18RoundRect,0.147500X-0.172500X0.147500X-0.172500X-0.147500X0.172500X-0.147500X0.172500X0.147500X0*%
%ADD19C,1.000000*%
G04 APERTURE END LIST*
D10*
%TO.C,H4*%
X172590000Y-154950000D03*
%TD*%
%TO.C,H3*%
X134250000Y-62800000D03*
%TD*%
D11*
%TO.C,J2*%
X162320000Y-71730000D03*
%TD*%
D12*
%TO.C,SW7*%
X170875000Y-126030000D03*
X170875000Y-123030000D03*
%TD*%
D13*
%TO.C,J3*%
X150530000Y-152125000D03*
X156310000Y-152125000D03*
D14*
X149100000Y-151625000D03*
D15*
X149100000Y-155805000D03*
D14*
X157740000Y-151625000D03*
D15*
X157740000Y-155805000D03*
%TD*%
D10*
%TO.C,H2*%
X172590000Y-62800000D03*
%TD*%
%TO.C,H1*%
X134250000Y-154950000D03*
%TD*%
D16*
%TO.C,SW3*%
X143270000Y-132625000D03*
X137270000Y-132625000D03*
X143270000Y-136375000D03*
X137270000Y-136375000D03*
%TD*%
%TO.C,SW5*%
X156420000Y-145875000D03*
X150420000Y-145875000D03*
X156420000Y-149625000D03*
X150420000Y-149625000D03*
%TD*%
%TO.C,SW4*%
X169670000Y-132625000D03*
X163670000Y-132625000D03*
X169670000Y-136375000D03*
X163670000Y-136375000D03*
%TD*%
%TO.C,SW1*%
X156420000Y-132625000D03*
X150420000Y-132625000D03*
X156420000Y-136375000D03*
X150420000Y-136375000D03*
%TD*%
D17*
%TO.C,U8*%
X146920000Y-94800000D03*
X147720000Y-94800000D03*
X148520000Y-94800000D03*
X149320000Y-94800000D03*
X150120000Y-94800000D03*
X150920000Y-94800000D03*
X151720000Y-94800000D03*
X152520000Y-94800000D03*
X153320000Y-94800000D03*
X154120000Y-94800000D03*
X154920000Y-94800000D03*
X155720000Y-94800000D03*
%TD*%
D16*
%TO.C,SW2*%
X156420000Y-119375000D03*
X150420000Y-119375000D03*
X156420000Y-123125000D03*
X150420000Y-123125000D03*
%TD*%
%TO.C,SW6*%
X143986762Y-152555000D03*
X137986762Y-152555000D03*
X143986762Y-156305000D03*
X137986762Y-156305000D03*
%TD*%
D18*
%TO.C,D5*%
X164900000Y-156835001D03*
X164900000Y-157805001D03*
%TD*%
D19*
%TO.C,MK1*%
X168670000Y-63300000D03*
X168670000Y-61900000D03*
%TD*%
D18*
%TO.C,D4*%
X163900000Y-156850000D03*
X163900000Y-157820000D03*
%TD*%
M02*
