%TF.GenerationSoftware,KiCad,Pcbnew,7.0.2-0*%
%TF.CreationDate,2023-08-13T19:48:24+08:00*%
%TF.ProjectId,Music_32_V2,4d757369-635f-4333-925f-56322e6b6963,rev?*%
%TF.SameCoordinates,Original*%
%TF.FileFunction,Paste,Top*%
%TF.FilePolarity,Positive*%
%FSLAX46Y46*%
G04 Gerber Fmt 4.6, Leading zero omitted, Abs format (unit mm)*
G04 Created by KiCad (PCBNEW 7.0.2-0) date 2023-08-13 19:48:24*
%MOMM*%
%LPD*%
G01*
G04 APERTURE LIST*
G04 Aperture macros list*
%AMRoundRect*
0 Rectangle with rounded corners*
0 $1 Rounding radius*
0 $2 $3 $4 $5 $6 $7 $8 $9 X,Y pos of 4 corners*
0 Add a 4 corners polygon primitive as box body*
4,1,4,$2,$3,$4,$5,$6,$7,$8,$9,$2,$3,0*
0 Add four circle primitives for the rounded corners*
1,1,$1+$1,$2,$3*
1,1,$1+$1,$4,$5*
1,1,$1+$1,$6,$7*
1,1,$1+$1,$8,$9*
0 Add four rect primitives between the rounded corners*
20,1,$1+$1,$2,$3,$4,$5,0*
20,1,$1+$1,$4,$5,$6,$7,0*
20,1,$1+$1,$6,$7,$8,$9,0*
20,1,$1+$1,$8,$9,$2,$3,0*%
%AMOutline4P*
0 Free polygon, 4 corners , with rotation*
0 The origin of the aperture is its center*
0 number of corners: always 4*
0 $1 to $8 corner X, Y*
0 $9 Rotation angle, in degrees counterclockwise*
0 create outline with 4 corners*
4,1,4,$1,$2,$3,$4,$5,$6,$7,$8,$1,$2,$9*%
G04 Aperture macros list end*
%ADD10C,0.010000*%
%ADD11C,0.120000*%
%ADD12RoundRect,0.062500X-0.117500X-0.062500X0.117500X-0.062500X0.117500X0.062500X-0.117500X0.062500X0*%
%ADD13RoundRect,0.225000X0.225000X0.250000X-0.225000X0.250000X-0.225000X-0.250000X0.225000X-0.250000X0*%
%ADD14RoundRect,0.140000X0.140000X0.170000X-0.140000X0.170000X-0.140000X-0.170000X0.140000X-0.170000X0*%
%ADD15RoundRect,0.140000X0.170000X-0.140000X0.170000X0.140000X-0.170000X0.140000X-0.170000X-0.140000X0*%
%ADD16RoundRect,0.182500X-0.182500X-0.462500X0.182500X-0.462500X0.182500X0.462500X-0.182500X0.462500X0*%
%ADD17RoundRect,0.062500X-0.300000X-0.062500X0.300000X-0.062500X0.300000X0.062500X-0.300000X0.062500X0*%
%ADD18RoundRect,0.225000X-0.225000X-0.250000X0.225000X-0.250000X0.225000X0.250000X-0.225000X0.250000X0*%
%ADD19RoundRect,0.160000X0.485000X-0.160000X0.485000X0.160000X-0.485000X0.160000X-0.485000X-0.160000X0*%
%ADD20RoundRect,0.062500X0.062500X-0.287500X0.062500X0.287500X-0.062500X0.287500X-0.062500X-0.287500X0*%
%ADD21RoundRect,0.135000X0.185000X-0.135000X0.185000X0.135000X-0.185000X0.135000X-0.185000X-0.135000X0*%
%ADD22RoundRect,0.140000X-0.170000X0.140000X-0.170000X-0.140000X0.170000X-0.140000X0.170000X0.140000X0*%
%ADD23RoundRect,0.150000X-0.150000X0.512500X-0.150000X-0.512500X0.150000X-0.512500X0.150000X0.512500X0*%
%ADD24RoundRect,0.135000X-0.185000X0.135000X-0.185000X-0.135000X0.185000X-0.135000X0.185000X0.135000X0*%
%ADD25R,1.100000X0.700000*%
%ADD26R,0.930000X0.900000*%
%ADD27R,0.780000X1.050000*%
%ADD28R,1.830000X1.140000*%
%ADD29R,2.800000X0.860000*%
%ADD30R,3.330000X0.700000*%
%ADD31RoundRect,0.140000X-0.140000X-0.170000X0.140000X-0.170000X0.140000X0.170000X-0.140000X0.170000X0*%
%ADD32RoundRect,0.250000X0.250000X1.500000X-0.250000X1.500000X-0.250000X-1.500000X0.250000X-1.500000X0*%
%ADD33RoundRect,0.250001X0.499999X1.449999X-0.499999X1.449999X-0.499999X-1.449999X0.499999X-1.449999X0*%
%ADD34RoundRect,0.062500X-0.062500X0.117500X-0.062500X-0.117500X0.062500X-0.117500X0.062500X0.117500X0*%
%ADD35RoundRect,0.225000X0.250000X-0.225000X0.250000X0.225000X-0.250000X0.225000X-0.250000X-0.225000X0*%
%ADD36RoundRect,0.062500X0.117500X0.062500X-0.117500X0.062500X-0.117500X-0.062500X0.117500X-0.062500X0*%
%ADD37Outline4P,-1.250000X-0.800000X1.250000X-0.800000X1.250000X0.800000X-1.250000X0.800000X0.000000*%
%ADD38R,0.350000X1.800000*%
%ADD39R,2.500000X3.200000*%
%ADD40R,0.900000X1.500000*%
%ADD41R,1.500000X0.900000*%
%ADD42R,0.900000X0.900000*%
%ADD43RoundRect,0.135000X-0.135000X-0.185000X0.135000X-0.185000X0.135000X0.185000X-0.135000X0.185000X0*%
%ADD44R,0.400000X0.350000*%
%ADD45R,0.399000X0.910000*%
%ADD46R,0.810000X0.910000*%
%ADD47RoundRect,0.225000X-0.250000X0.225000X-0.250000X-0.225000X0.250000X-0.225000X0.250000X0.225000X0*%
%ADD48RoundRect,0.150000X0.150000X-0.512500X0.150000X0.512500X-0.150000X0.512500X-0.150000X-0.512500X0*%
%ADD49RoundRect,0.135000X0.135000X0.185000X-0.135000X0.185000X-0.135000X-0.185000X0.135000X-0.185000X0*%
%ADD50RoundRect,0.218750X-0.218750X-0.256250X0.218750X-0.256250X0.218750X0.256250X-0.218750X0.256250X0*%
%ADD51R,0.800000X1.000000*%
%ADD52R,1.500000X0.700000*%
%ADD53R,0.625000X0.250000*%
%ADD54R,0.400000X0.500000*%
%ADD55R,0.300000X1.150000*%
%ADD56R,0.350000X0.400000*%
%ADD57R,0.910000X0.399000*%
%ADD58R,0.910000X0.810000*%
%ADD59RoundRect,0.250000X0.300000X0.300000X-0.300000X0.300000X-0.300000X-0.300000X0.300000X-0.300000X0*%
%ADD60RoundRect,0.062500X0.062500X-0.117500X0.062500X0.117500X-0.062500X0.117500X-0.062500X-0.117500X0*%
%ADD61RoundRect,0.218750X0.256250X-0.218750X0.256250X0.218750X-0.256250X0.218750X-0.256250X-0.218750X0*%
%ADD62R,0.900000X1.000000*%
%ADD63RoundRect,0.250000X-0.380000X-0.380000X0.380000X-0.380000X0.380000X0.380000X-0.380000X0.380000X0*%
%ADD64RoundRect,0.050000X-0.300000X-0.050000X0.300000X-0.050000X0.300000X0.050000X-0.300000X0.050000X0*%
%ADD65RoundRect,0.050000X-0.050000X-0.300000X0.050000X-0.300000X0.050000X0.300000X-0.050000X0.300000X0*%
%ADD66R,1.100000X0.600000*%
G04 APERTURE END LIST*
%TO.C,U10*%
D10*
X150012500Y-73200000D02*
X149412500Y-73200000D01*
X149412500Y-72600000D01*
X150012500Y-72600000D01*
X150012500Y-73200000D01*
G36*
X150012500Y-73200000D02*
G01*
X149412500Y-73200000D01*
X149412500Y-72600000D01*
X150012500Y-72600000D01*
X150012500Y-73200000D01*
G37*
D11*
%TO.C,Q3*%
X163820000Y-148505000D02*
X163320000Y-148505000D01*
X163320000Y-148505000D02*
X163320000Y-147655000D01*
X163320000Y-147655000D02*
X163820000Y-147655000D01*
X163820000Y-147655000D02*
X163820000Y-148505000D01*
G36*
X163820000Y-148505000D02*
G01*
X163320000Y-148505000D01*
X163320000Y-147655000D01*
X163820000Y-147655000D01*
X163820000Y-148505000D01*
G37*
X162520000Y-148480000D02*
X162020000Y-148480000D01*
X162020000Y-148480000D02*
X162020000Y-147630000D01*
X162020000Y-147630000D02*
X162520000Y-147630000D01*
X162520000Y-147630000D02*
X162520000Y-148480000D01*
G36*
X162520000Y-148480000D02*
G01*
X162020000Y-148480000D01*
X162020000Y-147630000D01*
X162520000Y-147630000D01*
X162520000Y-148480000D01*
G37*
%TD*%
D12*
%TO.C,D1*%
X154920000Y-147200000D03*
X154080000Y-147200000D03*
%TD*%
D13*
%TO.C,C13*%
X140630000Y-134450000D03*
X139080000Y-134450000D03*
%TD*%
D14*
%TO.C,C2*%
X140730000Y-112450000D03*
X139770000Y-112450000D03*
%TD*%
D15*
%TO.C,C14*%
X157900000Y-82930000D03*
X157900000Y-81970000D03*
%TD*%
D14*
%TO.C,C47*%
X151092500Y-71000000D03*
X150132500Y-71000000D03*
%TD*%
D16*
%TO.C,U5*%
X161400000Y-152550000D03*
D17*
X160387500Y-151800000D03*
X160387500Y-152300000D03*
X160387500Y-152800000D03*
X160387500Y-153300000D03*
X162412500Y-153300000D03*
X162412500Y-152800000D03*
X162412500Y-152300000D03*
X162412500Y-151800000D03*
%TD*%
D18*
%TO.C,C37*%
X170174998Y-135387501D03*
X171724998Y-135387501D03*
%TD*%
D19*
%TO.C,U9*%
X150030000Y-137150000D03*
D20*
X149280000Y-138150000D03*
X149780000Y-138150000D03*
X150280000Y-138150000D03*
X150780000Y-138150000D03*
X150780000Y-136150000D03*
X150280000Y-136150000D03*
X149780000Y-136150000D03*
X149280000Y-136150000D03*
%TD*%
D21*
%TO.C,R14*%
X159595000Y-87845000D03*
X159595000Y-86825000D03*
%TD*%
D14*
%TO.C,C17*%
X166310000Y-80775000D03*
X165350000Y-80775000D03*
%TD*%
D22*
%TO.C,C7*%
X146050000Y-133470000D03*
X146050000Y-134430000D03*
%TD*%
D23*
%TO.C,U6*%
X167500000Y-149950000D03*
X165600000Y-149950000D03*
X166550000Y-152225000D03*
%TD*%
D21*
%TO.C,R34*%
X152800000Y-92385001D03*
X152800000Y-91365001D03*
%TD*%
D24*
%TO.C,R15*%
X167220000Y-76090000D03*
X167220000Y-77110000D03*
%TD*%
D15*
%TO.C,C25*%
X164300000Y-87780000D03*
X164300000Y-86820000D03*
%TD*%
D25*
%TO.C,J4*%
X133820000Y-89830000D03*
X133820000Y-88730000D03*
X133820000Y-87630000D03*
X133820000Y-86530000D03*
X133820000Y-85430000D03*
X133820000Y-84330000D03*
X133820000Y-83230000D03*
X133820000Y-82130000D03*
D26*
X146285000Y-91620000D03*
D27*
X146360000Y-87355000D03*
D28*
X133835000Y-93710000D03*
D29*
X134320000Y-81050000D03*
D30*
X145085000Y-93930000D03*
X145085000Y-80970000D03*
%TD*%
D31*
%TO.C,C33*%
X170420000Y-141749998D03*
X171380000Y-141749998D03*
%TD*%
D32*
%TO.C,BT1*%
X142720000Y-155180000D03*
X140720000Y-155180000D03*
D33*
X145070000Y-149430000D03*
X138370000Y-149430000D03*
%TD*%
D14*
%TO.C,C15*%
X166310000Y-81675000D03*
X165350000Y-81675000D03*
%TD*%
D21*
%TO.C,R24*%
X152000000Y-149200001D03*
X152000000Y-148180001D03*
%TD*%
D22*
%TO.C,C3*%
X143450000Y-133470000D03*
X143450000Y-134430000D03*
%TD*%
D21*
%TO.C,R9*%
X154930000Y-134360000D03*
X154930000Y-133340000D03*
%TD*%
D22*
%TO.C,C23*%
X163295000Y-78295000D03*
X163295000Y-79255000D03*
%TD*%
D15*
%TO.C,C38*%
X132400000Y-78480000D03*
X132400000Y-77520000D03*
%TD*%
D24*
%TO.C,R12*%
X158520000Y-78265000D03*
X158520000Y-79285000D03*
%TD*%
D34*
%TO.C,D10*%
X134500000Y-79070000D03*
X134500000Y-78230000D03*
%TD*%
D18*
%TO.C,C31*%
X169979997Y-142950000D03*
X171529997Y-142950000D03*
%TD*%
D24*
%TO.C,R39*%
X141500000Y-78060000D03*
X141500000Y-79080000D03*
%TD*%
D15*
%TO.C,C40*%
X164100000Y-151730000D03*
X164100000Y-150770000D03*
%TD*%
D21*
%TO.C,R27*%
X163900000Y-155150000D03*
X163900000Y-154130000D03*
%TD*%
%TO.C,R1*%
X147350000Y-137010000D03*
X147350000Y-135990000D03*
%TD*%
D35*
%TO.C,C41*%
X165970000Y-91425000D03*
X165970000Y-89875000D03*
%TD*%
D36*
%TO.C,D2*%
X152280000Y-147200000D03*
X153120000Y-147200000D03*
%TD*%
D24*
%TO.C,R38*%
X139500000Y-78060000D03*
X139500000Y-79080000D03*
%TD*%
D22*
%TO.C,C6*%
X159100000Y-130010000D03*
X159100000Y-130970000D03*
%TD*%
%TO.C,C43*%
X172949998Y-142007501D03*
X172949998Y-142967501D03*
%TD*%
D37*
%TO.C,J2*%
X158570000Y-66630000D03*
X158570000Y-71630000D03*
X166070000Y-64030000D03*
X158570000Y-64030000D03*
X166070000Y-70630000D03*
X166070000Y-72630000D03*
%TD*%
D21*
%TO.C,R20*%
X162295000Y-77035000D03*
X162295000Y-76015000D03*
%TD*%
%TO.C,R25*%
X155250000Y-149210000D03*
X155250000Y-148190000D03*
%TD*%
D24*
%TO.C,R13*%
X160420000Y-78290000D03*
X160420000Y-79310000D03*
%TD*%
D21*
%TO.C,R17*%
X168190000Y-77110000D03*
X168190000Y-76090000D03*
%TD*%
D22*
%TO.C,C21*%
X161395000Y-78295000D03*
X161395000Y-79255000D03*
%TD*%
D15*
%TO.C,C27*%
X160400000Y-77005000D03*
X160400000Y-76045000D03*
%TD*%
D38*
%TO.C,J1*%
X165070000Y-133230000D03*
X164570000Y-133230000D03*
X164070000Y-133230000D03*
X163570000Y-133230000D03*
X163070000Y-133230000D03*
X162570000Y-133230000D03*
X162070000Y-133230000D03*
X161570000Y-133230000D03*
D39*
X167020000Y-135130000D03*
X159620000Y-135130000D03*
%TD*%
D40*
%TO.C,U2*%
X139640000Y-131750000D03*
X140910000Y-131750000D03*
X142180000Y-131750000D03*
X143450000Y-131750000D03*
X144720000Y-131750000D03*
X145990000Y-131750000D03*
X147260000Y-131750000D03*
X148530000Y-131750000D03*
X149800000Y-131750000D03*
X151070000Y-131750000D03*
X152340000Y-131750000D03*
X153610000Y-131750000D03*
X154880000Y-131750000D03*
X156150000Y-131750000D03*
D41*
X157400000Y-129985000D03*
X157400000Y-128715000D03*
X157400000Y-127445000D03*
X157400000Y-126175000D03*
X157400000Y-124905000D03*
X157400000Y-123635000D03*
X157400000Y-122365000D03*
X157400000Y-121095000D03*
X157400000Y-119825000D03*
X157400000Y-118555000D03*
X157400000Y-117285000D03*
X157400000Y-116015000D03*
D40*
X156150000Y-114250000D03*
X154880000Y-114250000D03*
X153610000Y-114250000D03*
X152340000Y-114250000D03*
X151070000Y-114250000D03*
X149800000Y-114250000D03*
X148530000Y-114250000D03*
X147260000Y-114250000D03*
X145990000Y-114250000D03*
X144720000Y-114250000D03*
X143450000Y-114250000D03*
X142180000Y-114250000D03*
X140910000Y-114250000D03*
X139640000Y-114250000D03*
D42*
X147360000Y-124500000D03*
X147360000Y-125900000D03*
X147360000Y-123100000D03*
X148760000Y-125900000D03*
X148760000Y-124500000D03*
X148760000Y-123100000D03*
X145960000Y-125900000D03*
X145960000Y-124500000D03*
X145960000Y-123100000D03*
%TD*%
D24*
%TO.C,R11*%
X159470000Y-78265000D03*
X159470000Y-79285000D03*
%TD*%
D14*
%TO.C,C9*%
X140735000Y-133250000D03*
X139775000Y-133250000D03*
%TD*%
D43*
%TO.C,R26*%
X160400000Y-154350000D03*
X161420000Y-154350000D03*
%TD*%
%TO.C,R2*%
X139720000Y-111450000D03*
X140740000Y-111450000D03*
%TD*%
%TO.C,R18*%
X165345000Y-84500000D03*
X166365000Y-84500000D03*
%TD*%
D44*
%TO.C,Q4*%
X151350000Y-92425000D03*
D45*
X151394500Y-91550000D03*
D44*
X151350000Y-90675000D03*
X150050000Y-92425000D03*
X150700000Y-92425000D03*
D46*
X150379000Y-91550000D03*
D44*
X150050000Y-90675000D03*
X150700000Y-90675000D03*
%TD*%
D21*
%TO.C,R5*%
X144700000Y-137020000D03*
X144700000Y-136000000D03*
%TD*%
D18*
%TO.C,C32*%
X169979995Y-144449999D03*
X171529995Y-144449999D03*
%TD*%
D15*
%TO.C,C26*%
X158620000Y-87830000D03*
X158620000Y-86870000D03*
%TD*%
D21*
%TO.C,R23*%
X159400000Y-147210000D03*
X159400000Y-146190000D03*
%TD*%
D14*
%TO.C,C44*%
X162900000Y-87850000D03*
X161940000Y-87850000D03*
%TD*%
D31*
%TO.C,C12*%
X156050000Y-135250000D03*
X157010000Y-135250000D03*
%TD*%
D22*
%TO.C,C30*%
X160400000Y-146200000D03*
X160400000Y-147160000D03*
%TD*%
D47*
%TO.C,C28*%
X165600000Y-146475000D03*
X165600000Y-148025000D03*
%TD*%
D48*
%TO.C,U4*%
X170450000Y-140287500D03*
X171400000Y-140287500D03*
X172350000Y-140287500D03*
X172350000Y-138012500D03*
X170450000Y-138012500D03*
%TD*%
D49*
%TO.C,R35*%
X149290000Y-97550000D03*
X148270000Y-97550000D03*
%TD*%
D21*
%TO.C,R36*%
X154900000Y-112210000D03*
X154900000Y-111190000D03*
%TD*%
D50*
%TO.C,F1*%
X147212500Y-148450000D03*
X148787500Y-148450000D03*
%TD*%
D21*
%TO.C,R28*%
X164900000Y-155150000D03*
X164900000Y-154130000D03*
%TD*%
D24*
%TO.C,R19*%
X161395000Y-76015000D03*
X161395000Y-77035000D03*
%TD*%
D43*
%TO.C,R22*%
X163140000Y-144950000D03*
X164160000Y-144950000D03*
%TD*%
%TO.C,R21*%
X165345000Y-85450000D03*
X166365000Y-85450000D03*
%TD*%
D24*
%TO.C,R37*%
X135500000Y-78040000D03*
X135500000Y-79060000D03*
%TD*%
D51*
%TO.C,SW7*%
X169765000Y-128180000D03*
X171975000Y-128180000D03*
X169765000Y-120880000D03*
X171975000Y-120880000D03*
D52*
X169115000Y-126780000D03*
X169115000Y-123780000D03*
X169115000Y-122280000D03*
%TD*%
D22*
%TO.C,C1*%
X147350000Y-133470000D03*
X147350000Y-134430000D03*
%TD*%
D15*
%TO.C,C19*%
X160595000Y-87815000D03*
X160595000Y-86855000D03*
%TD*%
D43*
%TO.C,R29*%
X160290000Y-150550000D03*
X161310000Y-150550000D03*
%TD*%
D24*
%TO.C,R16*%
X159405000Y-76015000D03*
X159405000Y-77035000D03*
%TD*%
D14*
%TO.C,C10*%
X155010000Y-135250000D03*
X154050000Y-135250000D03*
%TD*%
D31*
%TO.C,C45*%
X150200000Y-97550000D03*
X151160000Y-97550000D03*
%TD*%
D53*
%TO.C,U10*%
X148300000Y-72150000D03*
X148300000Y-72650000D03*
X148300000Y-73150000D03*
X148300000Y-73650000D03*
X151125000Y-73650000D03*
X151125000Y-73150000D03*
X151125000Y-72650000D03*
X151125000Y-72150000D03*
%TD*%
D54*
%TO.C,Q3*%
X163850000Y-146200000D03*
X163200000Y-146200000D03*
X162550000Y-146200000D03*
X161900000Y-146200000D03*
X161910000Y-149170000D03*
X162560000Y-149170000D03*
X163210000Y-149170000D03*
X163860000Y-149170000D03*
%TD*%
D21*
%TO.C,R10*%
X156130000Y-134360000D03*
X156130000Y-133340000D03*
%TD*%
%TO.C,R8*%
X142000000Y-137010000D03*
X142000000Y-135990000D03*
%TD*%
%TO.C,FB1*%
X165970000Y-93860000D03*
X165970000Y-92840000D03*
%TD*%
D14*
%TO.C,C16*%
X166305000Y-83550000D03*
X165345000Y-83550000D03*
%TD*%
%TO.C,C20*%
X162900000Y-86800000D03*
X161940000Y-86800000D03*
%TD*%
D13*
%TO.C,C34*%
X161575000Y-155750000D03*
X160025000Y-155750000D03*
%TD*%
D23*
%TO.C,U7*%
X163349999Y-89250000D03*
X161449999Y-89250000D03*
X162399999Y-91525000D03*
%TD*%
D55*
%TO.C,J3*%
X150070000Y-151060000D03*
X150870000Y-151060000D03*
X152170000Y-151060000D03*
X153170000Y-151060000D03*
X153670000Y-151060000D03*
X154670000Y-151060000D03*
X155970000Y-151060000D03*
X156770000Y-151060000D03*
X156470000Y-151060000D03*
X155670000Y-151060000D03*
X155170000Y-151060000D03*
X154170000Y-151060000D03*
X152670000Y-151060000D03*
X151670000Y-151060000D03*
X151170000Y-151060000D03*
X150370000Y-151060000D03*
%TD*%
D56*
%TO.C,Q1*%
X147125000Y-145405500D03*
D57*
X148000000Y-145450000D03*
D56*
X148875000Y-145405500D03*
X147125000Y-144105500D03*
X147125000Y-144755500D03*
D58*
X148000000Y-144434500D03*
D56*
X148875000Y-144105500D03*
X148875000Y-144755500D03*
%TD*%
D14*
%TO.C,C18*%
X166305000Y-82600000D03*
X165345000Y-82600000D03*
%TD*%
D24*
%TO.C,R40*%
X137500000Y-78040000D03*
X137500000Y-79060000D03*
%TD*%
D59*
%TO.C,D3*%
X161300000Y-144350000D03*
X158500000Y-144350000D03*
%TD*%
D34*
%TO.C,D7*%
X136500000Y-79070000D03*
X136500000Y-78230000D03*
%TD*%
D18*
%TO.C,C35*%
X170199997Y-133877504D03*
X171749997Y-133877504D03*
%TD*%
D22*
%TO.C,C8*%
X142000000Y-133470000D03*
X142000000Y-134430000D03*
%TD*%
D24*
%TO.C,R4*%
X157200000Y-111190000D03*
X157200000Y-112210000D03*
%TD*%
D21*
%TO.C,R7*%
X146050000Y-137010000D03*
X146050000Y-135990000D03*
%TD*%
D60*
%TO.C,D6*%
X148100000Y-90730000D03*
X148100000Y-91570000D03*
%TD*%
D15*
%TO.C,C4*%
X156200000Y-112180000D03*
X156200000Y-111220000D03*
%TD*%
D24*
%TO.C,R41*%
X152330000Y-133440000D03*
X152330000Y-134460000D03*
%TD*%
D31*
%TO.C,C36*%
X170494997Y-136577505D03*
X171454997Y-136577505D03*
%TD*%
D22*
%TO.C,C24*%
X164245000Y-78295000D03*
X164245000Y-79255000D03*
%TD*%
D61*
%TO.C,F2*%
X158100000Y-147987500D03*
X158100000Y-146412500D03*
%TD*%
D62*
%TO.C,U1*%
X142400000Y-63500000D03*
X143900000Y-63500000D03*
X145400000Y-63500000D03*
X147700000Y-63500000D03*
X149200000Y-63500000D03*
D42*
X140800000Y-61700000D03*
X150800000Y-61700000D03*
%TD*%
D63*
%TO.C,U3*%
X160745000Y-82375000D03*
X160745000Y-83825000D03*
X162195000Y-82375000D03*
X162195000Y-83825000D03*
D64*
X159470000Y-81700000D03*
X159470000Y-82100000D03*
X159470000Y-82500000D03*
X159470000Y-82900000D03*
X159470000Y-83300000D03*
X159470000Y-83700000D03*
X159470000Y-84100000D03*
X159470000Y-84500000D03*
D65*
X160070000Y-85100000D03*
X160470000Y-85100000D03*
X160870000Y-85100000D03*
X161270000Y-85100000D03*
X161670000Y-85100000D03*
X162070000Y-85100000D03*
X162470000Y-85100000D03*
X162870000Y-85100000D03*
D64*
X163470000Y-84500000D03*
X163470000Y-84100000D03*
X163470000Y-83700000D03*
X163470000Y-83300000D03*
X163470000Y-82900000D03*
X163470000Y-82500000D03*
X163470000Y-82100000D03*
X163470000Y-81700000D03*
D65*
X162870000Y-81100000D03*
X162470000Y-81100000D03*
X162070000Y-81100000D03*
X161670000Y-81100000D03*
X161270000Y-81100000D03*
X160870000Y-81100000D03*
X160470000Y-81100000D03*
X160070000Y-81100000D03*
%TD*%
D22*
%TO.C,C22*%
X162345000Y-78295000D03*
X162345000Y-79255000D03*
%TD*%
D34*
%TO.C,D8*%
X140500000Y-79090000D03*
X140500000Y-78250000D03*
%TD*%
D21*
%TO.C,R33*%
X173949998Y-142997501D03*
X173949998Y-141977501D03*
%TD*%
D66*
%TO.C,Y1*%
X146412500Y-72600000D03*
X146412500Y-71200000D03*
%TD*%
D31*
%TO.C,C46*%
X149820000Y-139300000D03*
X150780000Y-139300000D03*
%TD*%
D34*
%TO.C,D9*%
X138500000Y-79090000D03*
X138500000Y-78250000D03*
%TD*%
D21*
%TO.C,R6*%
X160030000Y-131010000D03*
X160030000Y-129990000D03*
%TD*%
D22*
%TO.C,C42*%
X164670000Y-90120000D03*
X164670000Y-91080000D03*
%TD*%
D56*
%TO.C,Q2*%
X167600000Y-147900000D03*
D57*
X168475000Y-147944500D03*
D56*
X169350000Y-147900000D03*
X167600000Y-146600000D03*
X167600000Y-147250000D03*
D58*
X168475000Y-146929000D03*
D56*
X169350000Y-146600000D03*
X169350000Y-147250000D03*
%TD*%
D18*
%TO.C,C29*%
X147225000Y-146834500D03*
X148775000Y-146834500D03*
%TD*%
D13*
%TO.C,C11*%
X140630000Y-135850000D03*
X139080000Y-135850000D03*
%TD*%
D21*
%TO.C,R3*%
X143450000Y-137010000D03*
X143450000Y-135990000D03*
%TD*%
D22*
%TO.C,C5*%
X144730000Y-133470000D03*
X144730000Y-134430000D03*
%TD*%
M02*
