%TF.GenerationSoftware,KiCad,Pcbnew,7.0.2-0*%
%TF.CreationDate,2023-08-13T19:48:24+08:00*%
%TF.ProjectId,Music_32_V2,4d757369-635f-4333-925f-56322e6b6963,rev?*%
%TF.SameCoordinates,Original*%
%TF.FileFunction,Legend,Bot*%
%TF.FilePolarity,Positive*%
%FSLAX46Y46*%
G04 Gerber Fmt 4.6, Leading zero omitted, Abs format (unit mm)*
G04 Created by KiCad (PCBNEW 7.0.2-0) date 2023-08-13 19:48:24*
%MOMM*%
%LPD*%
G01*
G04 APERTURE LIST*
%ADD10C,0.500000*%
%ADD11C,0.150000*%
%ADD12C,0.120000*%
%ADD13C,0.100000*%
G04 APERTURE END LIST*
D10*
X163200000Y-156250000D02*
X165600000Y-156250000D01*
X165600000Y-158450000D01*
X163200000Y-158450000D01*
X163200000Y-156250000D01*
D11*
%TO.C,U8*%
X158458095Y-95377619D02*
X159029523Y-95377619D01*
X158743809Y-95377619D02*
X158743809Y-94377619D01*
X158743809Y-94377619D02*
X158839047Y-94520476D01*
X158839047Y-94520476D02*
X158934285Y-94615714D01*
X158934285Y-94615714D02*
X159029523Y-94663333D01*
X158077142Y-94472857D02*
X158029523Y-94425238D01*
X158029523Y-94425238D02*
X157934285Y-94377619D01*
X157934285Y-94377619D02*
X157696190Y-94377619D01*
X157696190Y-94377619D02*
X157600952Y-94425238D01*
X157600952Y-94425238D02*
X157553333Y-94472857D01*
X157553333Y-94472857D02*
X157505714Y-94568095D01*
X157505714Y-94568095D02*
X157505714Y-94663333D01*
X157505714Y-94663333D02*
X157553333Y-94806190D01*
X157553333Y-94806190D02*
X158124761Y-95377619D01*
X158124761Y-95377619D02*
X157505714Y-95377619D01*
X144158095Y-95277619D02*
X144729523Y-95277619D01*
X144443809Y-95277619D02*
X144443809Y-94277619D01*
X144443809Y-94277619D02*
X144539047Y-94420476D01*
X144539047Y-94420476D02*
X144634285Y-94515714D01*
X144634285Y-94515714D02*
X144729523Y-94563333D01*
D12*
%TO.C,SW3*%
X143020000Y-133500000D02*
X143020000Y-135500000D01*
X142020000Y-136800000D02*
X141570000Y-137250000D01*
X142020000Y-132200000D02*
X141570000Y-131750000D01*
X141570000Y-137250000D02*
X138970000Y-137250000D01*
X141570000Y-131750000D02*
X138970000Y-131750000D01*
X138520000Y-136800000D02*
X138970000Y-137250000D01*
X138520000Y-132200000D02*
X138970000Y-131750000D01*
X137520000Y-133500000D02*
X137520000Y-135500000D01*
%TO.C,SW5*%
X156170000Y-146750000D02*
X156170000Y-148750000D01*
X155170000Y-150050000D02*
X154720000Y-150500000D01*
X155170000Y-145450000D02*
X154720000Y-145000000D01*
X154720000Y-150500000D02*
X152120000Y-150500000D01*
X154720000Y-145000000D02*
X152120000Y-145000000D01*
X151670000Y-150050000D02*
X152120000Y-150500000D01*
X151670000Y-145450000D02*
X152120000Y-145000000D01*
X150670000Y-146750000D02*
X150670000Y-148750000D01*
%TO.C,SW4*%
X169420000Y-133500000D02*
X169420000Y-135500000D01*
X168420000Y-136800000D02*
X167970000Y-137250000D01*
X168420000Y-132200000D02*
X167970000Y-131750000D01*
X167970000Y-137250000D02*
X165370000Y-137250000D01*
X167970000Y-131750000D02*
X165370000Y-131750000D01*
X164920000Y-136800000D02*
X165370000Y-137250000D01*
X164920000Y-132200000D02*
X165370000Y-131750000D01*
X163920000Y-133500000D02*
X163920000Y-135500000D01*
%TO.C,SW1*%
X156170000Y-133500000D02*
X156170000Y-135500000D01*
X155170000Y-136800000D02*
X154720000Y-137250000D01*
X155170000Y-132200000D02*
X154720000Y-131750000D01*
X154720000Y-137250000D02*
X152120000Y-137250000D01*
X154720000Y-131750000D02*
X152120000Y-131750000D01*
X151670000Y-136800000D02*
X152120000Y-137250000D01*
X151670000Y-132200000D02*
X152120000Y-131750000D01*
X150670000Y-133500000D02*
X150670000Y-135500000D01*
%TO.C,U8*%
X163020000Y-113600000D02*
X140620000Y-113600000D01*
X163020000Y-113100000D02*
X163020000Y-113600000D01*
X163020000Y-108400000D02*
X163020000Y-113100000D01*
X157020000Y-108400000D02*
X163020000Y-108400000D01*
X157020000Y-104100000D02*
X157020000Y-108400000D01*
X157020000Y-104100000D02*
X157020000Y-93600000D01*
X145620000Y-108400000D02*
X140620000Y-108400000D01*
X145620000Y-104100000D02*
X145620000Y-108400000D01*
X145620000Y-104100000D02*
X145620000Y-93600000D01*
X140620000Y-113600000D02*
X140620000Y-113100000D01*
X140620000Y-108400000D02*
X140620000Y-113100000D01*
X170720000Y-65300000D02*
X136120000Y-65300000D01*
X136120000Y-65300000D02*
X136120000Y-113100000D01*
X136120000Y-113100000D02*
X170720000Y-113100000D01*
X170720000Y-113100000D02*
X170720000Y-65300000D01*
%TO.C,SW2*%
X156170000Y-120250000D02*
X156170000Y-122250000D01*
X155170000Y-123550000D02*
X154720000Y-124000000D01*
X155170000Y-118950000D02*
X154720000Y-118500000D01*
X154720000Y-124000000D02*
X152120000Y-124000000D01*
X154720000Y-118500000D02*
X152120000Y-118500000D01*
X151670000Y-123550000D02*
X152120000Y-124000000D01*
X151670000Y-118950000D02*
X152120000Y-118500000D01*
X150670000Y-120250000D02*
X150670000Y-122250000D01*
%TO.C,SW6*%
X143736762Y-153430000D02*
X143736762Y-155430000D01*
X142736762Y-156730000D02*
X142286762Y-157180000D01*
X142736762Y-152130000D02*
X142286762Y-151680000D01*
X142286762Y-157180000D02*
X139686762Y-157180000D01*
X142286762Y-151680000D02*
X139686762Y-151680000D01*
X139236762Y-156730000D02*
X139686762Y-157180000D01*
X139236762Y-152130000D02*
X139686762Y-151680000D01*
X138236762Y-153430000D02*
X138236762Y-155430000D01*
D13*
%TO.C,D5*%
X164950000Y-156230001D02*
G75*
G03*
X164950000Y-156230001I-50000J0D01*
G01*
D12*
%TO.C,MK1*%
X170120000Y-62600000D02*
G75*
G03*
X170120000Y-62600000I-2000000J0D01*
G01*
D13*
%TO.C,D4*%
X163950000Y-156245000D02*
G75*
G03*
X163950000Y-156245000I-50000J0D01*
G01*
%TD*%
M02*
