M48
; DRILL file {KiCad 7.0.2-0} date 2023 August 13, Sunday 19:48:26
; FORMAT={-:-/ absolute / inch / decimal}
; #@! TF.CreationDate,2023-08-13T19:48:26+08:00
; #@! TF.GenerationSoftware,Kicad,Pcbnew,7.0.2-0
; #@! TF.FileFunction,Plated,1,4,PTH
FMAT,2
INCH
; #@! TA.AperFunction,Plated,PTH,ComponentDrill
T1C0.0079
; #@! TA.AperFunction,Plated,PTH,ViaDrill
T2C0.0118
; #@! TA.AperFunction,Plated,PTH,ComponentDrill
T3C0.0118
; #@! TA.AperFunction,Plated,PTH,ComponentDrill
T4C0.0197
; #@! TA.AperFunction,Plated,PTH,ComponentDrill
T5C0.0236
%
G90
G05
T1
X6.3098Y-3.2244
X6.3098Y-3.2717
X6.3098Y-3.3189
X6.3571Y-3.2244
X6.3571Y-3.2717
X6.3571Y-3.3189
X6.4043Y-3.2244
X6.4043Y-3.2717
X6.4043Y-3.3189
T2
X5.2126Y-3.0236
X5.2126Y-3.122
X5.2236Y-3.4933
X5.2244Y-3.3996
X5.2251Y-3.3191
X5.2953Y-3.1437
X5.311Y-3.2776
X5.311Y-3.3642
X5.311Y-3.4508
X5.374Y-3.0453
X5.374Y-3.1437
X5.4134Y-3.1437
X5.4528Y-3.1437
X5.4756Y-5.2492
X5.4764Y-5.3878
X5.4921Y-3.1437
X5.5039Y-2.4291
X5.5039Y-4.4547
X5.5315Y-3.1437
X5.5709Y-3.1437
X5.5737Y-5.2344
X5.5945Y-5.3232
X5.5984Y-4.439
X5.6024Y-5.0374
X5.6181Y-5.2925
X5.6181Y-3.1437
X5.6476Y-5.0374
X5.6476Y-5.3232
X5.6732Y-5.2933
X5.6969Y-5.1378
X5.6969Y-5.3232
X5.7244Y-5.2933
X5.7283Y-4.4016
X5.7362Y-5.1161
X5.7476Y-4.4386
X5.748Y-5.2303
X5.75Y-5.3232
X5.7717Y-2.5
X5.7756Y-5.2933
X5.7835Y-3.6634
X5.7953Y-3.439
X5.7953Y-5.124
X5.7992Y-3.561
X5.7992Y-5.2303
X5.8012Y-5.3232
X5.8268Y-3.6634
X5.8386Y-2.9272
X5.8386Y-3.8051
X5.8386Y-5.3957
X5.8465Y-5.0374
X5.8583Y-5.8839
X5.8701Y-4.439
X5.8709Y-2.5472
X5.874Y-4.3091
X5.878Y-3.8051
X5.8819Y-2.7972
X5.8898Y-5.7815
X5.8976Y-5.128
X5.9023Y-2.5472
X5.9102Y-3.8043
X5.9213Y-4.439
X5.937Y-2.5118
X5.9417Y-3.8043
X5.9449Y-5.1201
X5.9476Y-4.4016
X5.9488Y-2.935
X5.9626Y-5.4843
X5.9705Y-5.7953
X5.9724Y-4.439
X5.9921Y-3.1594
X5.9961Y-3.1122
X5.9961Y-5.3209
X5.9976Y-4.2894
X5.9976Y-5.0374
X6.0157Y-3.5689
X6.0197Y-3.2067
X6.0236Y-4.439
X6.0472Y-4.3681
X6.0472Y-5.128
X6.0551Y-5.2815
X6.0945Y-5.1201
X6.0976Y-4.4441
X6.122Y-4.6988
X6.122Y-4.8484
X6.122Y-4.9429
X6.122Y-5.7953
X6.1378Y-3.1476
X6.1378Y-3.187
X6.1496Y-4.3484
X6.1654Y-3.0807
X6.185Y-3.2272
X6.185Y-3.2657
X6.2008Y-5.372
X6.2126Y-3.1555
X6.2449Y-3.4862
X6.2618Y-3.3898
X6.2638Y-5.189
X6.2659Y-6.1341
X6.2756Y-2.9646
X6.2756Y-5.8209
X6.2833Y-3.5098
X6.2835Y-6.0335
X6.2947Y-3.1486
X6.2992Y-3.3878
X6.3004Y-5.1878
X6.315Y-3.0571
X6.315Y-5.8209
X6.318Y-3.495
X6.3307Y-5.9547
X6.3346Y-2.9508
X6.3445Y-5.1535
X6.3543Y-3.0571
X6.378Y-3.3839
X6.3898Y-3.0571
X6.4016Y-6.0689
X6.4114Y-3.3839
X6.4291Y-3.0512
X6.4429Y-2.8996
X6.4528Y-6.1358
X6.4605Y-3.0488
X6.4606Y-5.9035
X6.4744Y-3.2165
X6.4801Y-3.0098
X6.4823Y-3.252
X6.4823Y-3.5197
X6.4843Y-5.3524
X6.4921Y-6.1358
X6.5098Y-3.1319
X6.5098Y-3.4075
X6.5118Y-5.9941
X6.5197Y-5.8602
X6.5335Y-3.502
X6.5354Y-3.0689
X6.5453Y-3.1319
X6.5748Y-3.1811
X6.5748Y-3.2146
X6.5748Y-3.252
X6.5748Y-3.2874
X6.5846Y-3.065
X6.622Y-3.0886
X6.622Y-3.6476
X6.6457Y-4.9508
X6.6496Y-5.3209
X6.6969Y-5.8248
X6.7756Y-5.5807
X6.7835Y-5.376
X6.7835Y-5.628
X6.7835Y-5.687
X6.7953Y-5.2697
X6.7953Y-5.3287
T3
X5.7461Y-4.874
X5.7461Y-4.9291
X5.7736Y-4.8445
X5.7736Y-4.9016
X5.774Y-4.9567
X5.8031Y-4.874
X5.8031Y-4.9291
X5.8291Y-4.8445
X5.8291Y-4.9016
X5.8291Y-4.9567
X5.8563Y-4.874
X5.8563Y-4.9291
T4
X6.6406Y-2.437
X6.6406Y-2.4921
T5
G00X5.8701Y-5.9478
M15
G01X5.8701Y-5.9911
M16
G05
G00X5.8701Y-6.1222
M15
G01X5.8701Y-6.1459
M16
G05
G00X6.2102Y-5.9478
M15
G01X6.2102Y-5.9911
M16
G05
G00X6.2102Y-6.1222
M15
G01X6.2102Y-6.1459
M16
G05
T0
M30
