%TF.GenerationSoftware,KiCad,Pcbnew,7.0.2-0*%
%TF.CreationDate,2023-08-13T19:48:24+08:00*%
%TF.ProjectId,Music_32_V2,4d757369-635f-4333-925f-56322e6b6963,rev?*%
%TF.SameCoordinates,Original*%
%TF.FileFunction,Copper,L1,Top*%
%TF.FilePolarity,Positive*%
%FSLAX46Y46*%
G04 Gerber Fmt 4.6, Leading zero omitted, Abs format (unit mm)*
G04 Created by KiCad (PCBNEW 7.0.2-0) date 2023-08-13 19:48:24*
%MOMM*%
%LPD*%
G01*
G04 APERTURE LIST*
G04 Aperture macros list*
%AMRoundRect*
0 Rectangle with rounded corners*
0 $1 Rounding radius*
0 $2 $3 $4 $5 $6 $7 $8 $9 X,Y pos of 4 corners*
0 Add a 4 corners polygon primitive as box body*
4,1,4,$2,$3,$4,$5,$6,$7,$8,$9,$2,$3,0*
0 Add four circle primitives for the rounded corners*
1,1,$1+$1,$2,$3*
1,1,$1+$1,$4,$5*
1,1,$1+$1,$6,$7*
1,1,$1+$1,$8,$9*
0 Add four rect primitives between the rounded corners*
20,1,$1+$1,$2,$3,$4,$5,0*
20,1,$1+$1,$4,$5,$6,$7,0*
20,1,$1+$1,$6,$7,$8,$9,0*
20,1,$1+$1,$8,$9,$2,$3,0*%
%AMOutline4P*
0 Free polygon, 4 corners , with rotation*
0 The origin of the aperture is its center*
0 number of corners: always 4*
0 $1 to $8 corner X, Y*
0 $9 Rotation angle, in degrees counterclockwise*
0 create outline with 4 corners*
4,1,4,$1,$2,$3,$4,$5,$6,$7,$8,$1,$2,$9*%
G04 Aperture macros list end*
%TA.AperFunction,NonConductor*%
%ADD10C,0.100000*%
%TD*%
%TA.AperFunction,SMDPad,CuDef*%
%ADD11RoundRect,0.062500X-0.117500X-0.062500X0.117500X-0.062500X0.117500X0.062500X-0.117500X0.062500X0*%
%TD*%
%TA.AperFunction,SMDPad,CuDef*%
%ADD12RoundRect,0.225000X0.225000X0.250000X-0.225000X0.250000X-0.225000X-0.250000X0.225000X-0.250000X0*%
%TD*%
%TA.AperFunction,SMDPad,CuDef*%
%ADD13RoundRect,0.140000X0.140000X0.170000X-0.140000X0.170000X-0.140000X-0.170000X0.140000X-0.170000X0*%
%TD*%
%TA.AperFunction,SMDPad,CuDef*%
%ADD14RoundRect,0.140000X0.170000X-0.140000X0.170000X0.140000X-0.170000X0.140000X-0.170000X-0.140000X0*%
%TD*%
%TA.AperFunction,SMDPad,CuDef*%
%ADD15RoundRect,0.062500X-0.300000X-0.062500X0.300000X-0.062500X0.300000X0.062500X-0.300000X0.062500X0*%
%TD*%
%TA.AperFunction,SMDPad,CuDef*%
%ADD16R,0.900000X1.600000*%
%TD*%
%TA.AperFunction,SMDPad,CuDef*%
%ADD17RoundRect,0.225000X-0.225000X-0.250000X0.225000X-0.250000X0.225000X0.250000X-0.225000X0.250000X0*%
%TD*%
%TA.AperFunction,SMDPad,CuDef*%
%ADD18RoundRect,0.062500X0.062500X-0.287500X0.062500X0.287500X-0.062500X0.287500X-0.062500X-0.287500X0*%
%TD*%
%TA.AperFunction,SMDPad,CuDef*%
%ADD19R,1.600000X0.800000*%
%TD*%
%TA.AperFunction,SMDPad,CuDef*%
%ADD20RoundRect,0.135000X0.185000X-0.135000X0.185000X0.135000X-0.185000X0.135000X-0.185000X-0.135000X0*%
%TD*%
%TA.AperFunction,SMDPad,CuDef*%
%ADD21RoundRect,0.140000X-0.170000X0.140000X-0.170000X-0.140000X0.170000X-0.140000X0.170000X0.140000X0*%
%TD*%
%TA.AperFunction,SMDPad,CuDef*%
%ADD22RoundRect,0.150000X-0.150000X0.512500X-0.150000X-0.512500X0.150000X-0.512500X0.150000X0.512500X0*%
%TD*%
%TA.AperFunction,SMDPad,CuDef*%
%ADD23RoundRect,0.135000X-0.185000X0.135000X-0.185000X-0.135000X0.185000X-0.135000X0.185000X0.135000X0*%
%TD*%
%TA.AperFunction,SMDPad,CuDef*%
%ADD24R,1.100000X0.700000*%
%TD*%
%TA.AperFunction,SMDPad,CuDef*%
%ADD25R,0.930000X0.900000*%
%TD*%
%TA.AperFunction,SMDPad,CuDef*%
%ADD26R,0.780000X1.050000*%
%TD*%
%TA.AperFunction,SMDPad,CuDef*%
%ADD27R,1.830000X1.140000*%
%TD*%
%TA.AperFunction,SMDPad,CuDef*%
%ADD28R,2.800000X0.860000*%
%TD*%
%TA.AperFunction,SMDPad,CuDef*%
%ADD29R,3.330000X0.700000*%
%TD*%
%TA.AperFunction,SMDPad,CuDef*%
%ADD30RoundRect,0.140000X-0.140000X-0.170000X0.140000X-0.170000X0.140000X0.170000X-0.140000X0.170000X0*%
%TD*%
%TA.AperFunction,SMDPad,CuDef*%
%ADD31RoundRect,0.250000X0.250000X1.500000X-0.250000X1.500000X-0.250000X-1.500000X0.250000X-1.500000X0*%
%TD*%
%TA.AperFunction,SMDPad,CuDef*%
%ADD32RoundRect,0.250001X0.499999X1.449999X-0.499999X1.449999X-0.499999X-1.449999X0.499999X-1.449999X0*%
%TD*%
%TA.AperFunction,SMDPad,CuDef*%
%ADD33RoundRect,0.062500X-0.062500X0.117500X-0.062500X-0.117500X0.062500X-0.117500X0.062500X0.117500X0*%
%TD*%
%TA.AperFunction,SMDPad,CuDef*%
%ADD34C,3.000000*%
%TD*%
%TA.AperFunction,SMDPad,CuDef*%
%ADD35RoundRect,0.225000X0.250000X-0.225000X0.250000X0.225000X-0.250000X0.225000X-0.250000X-0.225000X0*%
%TD*%
%TA.AperFunction,SMDPad,CuDef*%
%ADD36RoundRect,0.062500X0.117500X0.062500X-0.117500X0.062500X-0.117500X-0.062500X0.117500X-0.062500X0*%
%TD*%
%TA.AperFunction,SMDPad,CuDef*%
%ADD37Outline4P,-1.250000X-0.800000X1.250000X-0.800000X1.250000X0.800000X-1.250000X0.800000X0.000000*%
%TD*%
%TA.AperFunction,SMDPad,CuDef*%
%ADD38R,0.350000X1.800000*%
%TD*%
%TA.AperFunction,SMDPad,CuDef*%
%ADD39R,2.500000X3.200000*%
%TD*%
%TA.AperFunction,SMDPad,CuDef*%
%ADD40R,0.900000X1.500000*%
%TD*%
%TA.AperFunction,SMDPad,CuDef*%
%ADD41R,1.500000X0.900000*%
%TD*%
%TA.AperFunction,ComponentPad*%
%ADD42C,0.500000*%
%TD*%
%TA.AperFunction,SMDPad,CuDef*%
%ADD43R,0.900000X0.900000*%
%TD*%
%TA.AperFunction,SMDPad,CuDef*%
%ADD44RoundRect,0.135000X-0.135000X-0.185000X0.135000X-0.185000X0.135000X0.185000X-0.135000X0.185000X0*%
%TD*%
%TA.AperFunction,SMDPad,CuDef*%
%ADD45R,0.400000X0.350000*%
%TD*%
%TA.AperFunction,SMDPad,CuDef*%
%ADD46R,0.399000X0.910000*%
%TD*%
%TA.AperFunction,SMDPad,CuDef*%
%ADD47R,0.810000X0.910000*%
%TD*%
%TA.AperFunction,SMDPad,CuDef*%
%ADD48RoundRect,0.225000X-0.250000X0.225000X-0.250000X-0.225000X0.250000X-0.225000X0.250000X0.225000X0*%
%TD*%
%TA.AperFunction,SMDPad,CuDef*%
%ADD49RoundRect,0.150000X0.150000X-0.512500X0.150000X0.512500X-0.150000X0.512500X-0.150000X-0.512500X0*%
%TD*%
%TA.AperFunction,SMDPad,CuDef*%
%ADD50RoundRect,0.135000X0.135000X0.185000X-0.135000X0.185000X-0.135000X-0.185000X0.135000X-0.185000X0*%
%TD*%
%TA.AperFunction,SMDPad,CuDef*%
%ADD51RoundRect,0.218750X-0.218750X-0.256250X0.218750X-0.256250X0.218750X0.256250X-0.218750X0.256250X0*%
%TD*%
%TA.AperFunction,SMDPad,CuDef*%
%ADD52R,0.800000X1.000000*%
%TD*%
%TA.AperFunction,SMDPad,CuDef*%
%ADD53R,1.500000X0.700000*%
%TD*%
%TA.AperFunction,SMDPad,CuDef*%
%ADD54R,0.625000X0.250000*%
%TD*%
%TA.AperFunction,SMDPad,CuDef*%
%ADD55R,1.600000X1.600000*%
%TD*%
%TA.AperFunction,SMDPad,CuDef*%
%ADD56R,0.400000X0.500000*%
%TD*%
%TA.AperFunction,SMDPad,CuDef*%
%ADD57R,1.115000X1.639980*%
%TD*%
%TA.AperFunction,SMDPad,CuDef*%
%ADD58R,1.100000X1.640000*%
%TD*%
%TA.AperFunction,SMDPad,CuDef*%
%ADD59R,0.300000X1.150000*%
%TD*%
%TA.AperFunction,ComponentPad*%
%ADD60O,1.000000X2.100000*%
%TD*%
%TA.AperFunction,ComponentPad*%
%ADD61O,1.000000X1.600000*%
%TD*%
%TA.AperFunction,SMDPad,CuDef*%
%ADD62R,0.350000X0.400000*%
%TD*%
%TA.AperFunction,SMDPad,CuDef*%
%ADD63R,0.910000X0.399000*%
%TD*%
%TA.AperFunction,SMDPad,CuDef*%
%ADD64R,0.910000X0.810000*%
%TD*%
%TA.AperFunction,SMDPad,CuDef*%
%ADD65RoundRect,0.250000X0.300000X0.300000X-0.300000X0.300000X-0.300000X-0.300000X0.300000X-0.300000X0*%
%TD*%
%TA.AperFunction,SMDPad,CuDef*%
%ADD66RoundRect,0.062500X0.062500X-0.117500X0.062500X0.117500X-0.062500X0.117500X-0.062500X-0.117500X0*%
%TD*%
%TA.AperFunction,SMDPad,CuDef*%
%ADD67RoundRect,0.218750X0.256250X-0.218750X0.256250X0.218750X-0.256250X0.218750X-0.256250X-0.218750X0*%
%TD*%
%TA.AperFunction,SMDPad,CuDef*%
%ADD68R,0.900000X1.000000*%
%TD*%
%TA.AperFunction,SMDPad,CuDef*%
%ADD69RoundRect,0.050000X-0.300000X-0.050000X0.300000X-0.050000X0.300000X0.050000X-0.300000X0.050000X0*%
%TD*%
%TA.AperFunction,SMDPad,CuDef*%
%ADD70RoundRect,0.050000X-0.050000X-0.300000X0.050000X-0.300000X0.050000X0.300000X-0.050000X0.300000X0*%
%TD*%
%TA.AperFunction,SMDPad,CuDef*%
%ADD71R,2.900000X2.900000*%
%TD*%
%TA.AperFunction,SMDPad,CuDef*%
%ADD72R,1.100000X0.600000*%
%TD*%
%TA.AperFunction,ComponentPad*%
%ADD73C,1.000000*%
%TD*%
%TA.AperFunction,ViaPad*%
%ADD74C,0.600000*%
%TD*%
%TA.AperFunction,Conductor*%
%ADD75C,0.300000*%
%TD*%
%TA.AperFunction,Conductor*%
%ADD76C,0.200000*%
%TD*%
%TA.AperFunction,Conductor*%
%ADD77C,0.150000*%
%TD*%
%TA.AperFunction,Conductor*%
%ADD78C,0.250000*%
%TD*%
%TA.AperFunction,Conductor*%
%ADD79C,0.600000*%
%TD*%
G04 APERTURE END LIST*
D10*
X155800000Y-64300000D02*
X151800000Y-64300000D01*
X151800000Y-60100000D01*
X155800000Y-60100000D01*
X155800000Y-64300000D01*
%TA.AperFunction,NonConductor*%
G36*
X155800000Y-64300000D02*
G01*
X151800000Y-64300000D01*
X151800000Y-60100000D01*
X155800000Y-60100000D01*
X155800000Y-64300000D01*
G37*
%TD.AperFunction*%
D11*
%TO.P,D1,1,A1*%
%TO.N,GND*%
X154920000Y-147200000D03*
%TO.P,D1,2,A2*%
%TO.N,D+*%
X154080000Y-147200000D03*
%TD*%
D12*
%TO.P,C13,1*%
%TO.N,+3.3V*%
X140630000Y-134450000D03*
%TO.P,C13,2*%
%TO.N,GND*%
X139080000Y-134450000D03*
%TD*%
D13*
%TO.P,C2,1*%
%TO.N,PWR*%
X140730000Y-112450000D03*
%TO.P,C2,2*%
%TO.N,GND*%
X139770000Y-112450000D03*
%TD*%
D14*
%TO.P,C14,1*%
%TO.N,GND*%
X157900000Y-82930000D03*
%TO.P,C14,2*%
%TO.N,+3.3V*%
X157900000Y-81970000D03*
%TD*%
D13*
%TO.P,C47,1*%
%TO.N,+3.3V*%
X151092500Y-71000000D03*
%TO.P,C47,2*%
%TO.N,GND*%
X150132500Y-71000000D03*
%TD*%
D15*
%TO.P,U5,1,TEMP*%
%TO.N,GND*%
X160387500Y-151800000D03*
%TO.P,U5,2,PROG*%
%TO.N,/Power/PROG*%
X160387500Y-152300000D03*
%TO.P,U5,3,GND*%
%TO.N,GND*%
X160387500Y-152800000D03*
%TO.P,U5,4,VCC*%
%TO.N,VBUS*%
X160387500Y-153300000D03*
%TO.P,U5,5,BAT*%
%TO.N,BATT+*%
X162412500Y-153300000D03*
%TO.P,U5,6,STDBY*%
%TO.N,/Power/STBY*%
X162412500Y-152800000D03*
%TO.P,U5,7,CHRG*%
%TO.N,/Power/CHRG*%
X162412500Y-152300000D03*
%TO.P,U5,8,CE*%
%TO.N,VBUS*%
X162412500Y-151800000D03*
D16*
%TO.P,U5,9,EP*%
%TO.N,GND*%
X161400000Y-152550000D03*
%TD*%
D17*
%TO.P,C37,1*%
%TO.N,+3.3V*%
X170174998Y-135387501D03*
%TO.P,C37,2*%
%TO.N,GND*%
X171724998Y-135387501D03*
%TD*%
D18*
%TO.P,U9,1,CTG*%
%TO.N,GND*%
X149280000Y-138150000D03*
%TO.P,U9,2,CELL*%
%TO.N,BATT+*%
X149780000Y-138150000D03*
%TO.P,U9,3,Vdd*%
X150280000Y-138150000D03*
%TO.P,U9,4,GND*%
%TO.N,GND*%
X150780000Y-138150000D03*
%TO.P,U9,5,ALRT*%
%TO.N,FUEL_INT*%
X150780000Y-136150000D03*
%TO.P,U9,6,QSTRT*%
%TO.N,GND*%
X150280000Y-136150000D03*
%TO.P,U9,7,SCL*%
%TO.N,SCL*%
X149780000Y-136150000D03*
%TO.P,U9,8,SDA*%
%TO.N,SDA*%
X149280000Y-136150000D03*
D19*
%TO.P,U9,9,EP*%
%TO.N,GND*%
X150030000Y-137150000D03*
%TD*%
D20*
%TO.P,R14,1*%
%TO.N,+3.3V*%
X159595000Y-87845000D03*
%TO.P,R14,2*%
%TO.N,HEADSET_INT*%
X159595000Y-86825000D03*
%TD*%
D13*
%TO.P,C17,1*%
%TO.N,GND*%
X166310000Y-80775000D03*
%TO.P,C17,2*%
%TO.N,Net-(U3-VMID)*%
X165350000Y-80775000D03*
%TD*%
D21*
%TO.P,C7,1*%
%TO.N,IO6*%
X146050000Y-133470000D03*
%TO.P,C7,2*%
%TO.N,GND*%
X146050000Y-134430000D03*
%TD*%
D22*
%TO.P,U6,1,Out*%
%TO.N,/Power/PSEN_GATE*%
X167500000Y-149950000D03*
%TO.P,U6,2,Gnd*%
%TO.N,GND*%
X165600000Y-149950000D03*
%TO.P,U6,3,Vin*%
%TO.N,BATT+*%
X166550000Y-152225000D03*
%TD*%
D20*
%TO.P,R34,1*%
%TO.N,DISPLAY_BACKLIGHT_EN*%
X152800000Y-92385001D03*
%TO.P,R34,2*%
%TO.N,GND*%
X152800000Y-91365001D03*
%TD*%
D23*
%TO.P,R15,1*%
%TO.N,/Codec/HP_Detect*%
X167220000Y-76090000D03*
%TO.P,R15,2*%
%TO.N,Net-(U3-HEADSET)*%
X167220000Y-77110000D03*
%TD*%
D14*
%TO.P,C25,1*%
%TO.N,GND*%
X164300000Y-87780000D03*
%TO.P,C25,2*%
%TO.N,Net-(U3-CPVSSP)*%
X164300000Y-86820000D03*
%TD*%
D24*
%TO.P,J4,1,DAT2*%
%TO.N,unconnected-(J4-DAT2-Pad1)*%
X133820000Y-89830000D03*
%TO.P,J4,2,DAT3/CD*%
%TO.N,SD_CS*%
X133820000Y-88730000D03*
%TO.P,J4,3,CMD*%
%TO.N,MOSI*%
X133820000Y-87630000D03*
%TO.P,J4,4,VDD*%
%TO.N,+3.3V*%
X133820000Y-86530000D03*
%TO.P,J4,5,CLK*%
%TO.N,CLK*%
X133820000Y-85430000D03*
%TO.P,J4,6,VSS*%
%TO.N,GND*%
X133820000Y-84330000D03*
%TO.P,J4,7,DAT0*%
%TO.N,MISO*%
X133820000Y-83230000D03*
%TO.P,J4,8,DAT1*%
%TO.N,unconnected-(J4-DAT1-Pad8)*%
X133820000Y-82130000D03*
D25*
%TO.P,J4,9,DET*%
%TO.N,SD_DETECT*%
X146285000Y-91620000D03*
D26*
%TO.P,J4,10,SHIELD*%
%TO.N,GND*%
X146360000Y-87355000D03*
D27*
%TO.P,J4,P1*%
%TO.N,N/C*%
X133835000Y-93710000D03*
D28*
%TO.P,J4,P2*%
X134320000Y-81050000D03*
D29*
%TO.P,J4,P3*%
X145085000Y-93930000D03*
%TO.P,J4,P4*%
X145085000Y-80970000D03*
%TD*%
D30*
%TO.P,C33,1*%
%TO.N,/Power/Vin*%
X170420000Y-141749998D03*
%TO.P,C33,2*%
%TO.N,GND*%
X171380000Y-141749998D03*
%TD*%
D31*
%TO.P,BT1,1*%
%TO.N,Net-(Q1-D)*%
X142720000Y-155180000D03*
%TO.P,BT1,2,+*%
%TO.N,/Power/Batt+_unfuse*%
X140720000Y-155180000D03*
D32*
%TO.P,BT1,MP*%
%TO.N,N/C*%
X145070000Y-149430000D03*
X138370000Y-149430000D03*
%TD*%
D13*
%TO.P,C15,1*%
%TO.N,GND*%
X166310000Y-81675000D03*
%TO.P,C15,2*%
%TO.N,ADCVREF*%
X165350000Y-81675000D03*
%TD*%
D20*
%TO.P,R24,1*%
%TO.N,/Power/CC1*%
X152000000Y-149200001D03*
%TO.P,R24,2*%
%TO.N,GND*%
X152000000Y-148180001D03*
%TD*%
D21*
%TO.P,C3,1*%
%TO.N,HOLD*%
X143450000Y-133470000D03*
%TO.P,C3,2*%
%TO.N,GND*%
X143450000Y-134430000D03*
%TD*%
D20*
%TO.P,R9,1*%
%TO.N,D-*%
X154930000Y-134360000D03*
%TO.P,R9,2*%
%TO.N,/TD-*%
X154930000Y-133340000D03*
%TD*%
D21*
%TO.P,C23,1*%
%TO.N,/Codec/M1+*%
X163295000Y-78295000D03*
%TO.P,C23,2*%
%TO.N,Net-(U3-MIC1P)*%
X163295000Y-79255000D03*
%TD*%
D14*
%TO.P,C38,1*%
%TO.N,+3.3V*%
X132400000Y-78480000D03*
%TO.P,C38,2*%
%TO.N,GND*%
X132400000Y-77520000D03*
%TD*%
D23*
%TO.P,R12,1*%
%TO.N,+3.3V*%
X158520000Y-78265000D03*
%TO.P,R12,2*%
%TO.N,SCL*%
X158520000Y-79285000D03*
%TD*%
D33*
%TO.P,D10,1,A1*%
%TO.N,GND*%
X134500000Y-79070000D03*
%TO.P,D10,2,A2*%
%TO.N,SD_CS*%
X134500000Y-78230000D03*
%TD*%
D17*
%TO.P,C31,1*%
%TO.N,/Power/Vin*%
X169979997Y-142950000D03*
%TO.P,C31,2*%
%TO.N,GND*%
X171529997Y-142950000D03*
%TD*%
D23*
%TO.P,R39,1*%
%TO.N,+3.3V*%
X141500000Y-78060000D03*
%TO.P,R39,2*%
%TO.N,CLK*%
X141500000Y-79080000D03*
%TD*%
D14*
%TO.P,C40,1*%
%TO.N,BATT+*%
X164100000Y-151730000D03*
%TO.P,C40,2*%
%TO.N,GND*%
X164100000Y-150770000D03*
%TD*%
D20*
%TO.P,R27,1*%
%TO.N,Net-(D4-K)*%
X163900000Y-155150000D03*
%TO.P,R27,2*%
%TO.N,/Power/STBY*%
X163900000Y-154130000D03*
%TD*%
%TO.P,R1,1*%
%TO.N,+3.3V*%
X147350000Y-137010000D03*
%TO.P,R1,2*%
%TO.N,IO7*%
X147350000Y-135990000D03*
%TD*%
D34*
%TO.P,TP3,1,1*%
%TO.N,Net-(U10-CLKOUT)*%
X154200000Y-74950000D03*
%TD*%
D35*
%TO.P,C41,1*%
%TO.N,+3.3VA*%
X165970000Y-91425000D03*
%TO.P,C41,2*%
%TO.N,GND*%
X165970000Y-89875000D03*
%TD*%
D36*
%TO.P,D2,1,A1*%
%TO.N,GND*%
X152280000Y-147200000D03*
%TO.P,D2,2,A2*%
%TO.N,D-*%
X153120000Y-147200000D03*
%TD*%
D23*
%TO.P,R38,1*%
%TO.N,+3.3V*%
X139500000Y-78060000D03*
%TO.P,R38,2*%
%TO.N,MOSI*%
X139500000Y-79080000D03*
%TD*%
D21*
%TO.P,C6,1*%
%TO.N,IO3*%
X159100000Y-130010000D03*
%TO.P,C6,2*%
%TO.N,GND*%
X159100000Y-130970000D03*
%TD*%
%TO.P,C43,1*%
%TO.N,/Power/REG_EN*%
X172949998Y-142007501D03*
%TO.P,C43,2*%
%TO.N,GND*%
X172949998Y-142967501D03*
%TD*%
D37*
%TO.P,J2,R1*%
%TO.N,Net-(J2-PadR1)*%
X158570000Y-66630000D03*
%TO.P,J2,R1N*%
%TO.N,N/C*%
X158570000Y-71630000D03*
%TO.P,J2,R2*%
%TO.N,/Codec/M1-*%
X166070000Y-64030000D03*
%TO.P,J2,S*%
%TO.N,/Codec/M1+*%
X158570000Y-64030000D03*
%TO.P,J2,T*%
%TO.N,Net-(J2-PadT)*%
X166070000Y-70630000D03*
%TO.P,J2,TN*%
%TO.N,/Codec/HP_Detect*%
X166070000Y-72630000D03*
%TD*%
D20*
%TO.P,R20,1*%
%TO.N,/Codec/M2-*%
X162295000Y-77035000D03*
%TO.P,R20,2*%
%TO.N,GND*%
X162295000Y-76015000D03*
%TD*%
%TO.P,R25,1*%
%TO.N,/Power/CC2*%
X155250000Y-149210000D03*
%TO.P,R25,2*%
%TO.N,GND*%
X155250000Y-148190000D03*
%TD*%
D23*
%TO.P,R13,1*%
%TO.N,GND*%
X160420000Y-78290000D03*
%TO.P,R13,2*%
%TO.N,Net-(U3-CE)*%
X160420000Y-79310000D03*
%TD*%
D20*
%TO.P,R17,1*%
%TO.N,+3.3V*%
X168190000Y-77110000D03*
%TO.P,R17,2*%
%TO.N,/Codec/HP_Detect*%
X168190000Y-76090000D03*
%TD*%
D21*
%TO.P,C21,1*%
%TO.N,/Codec/M2+*%
X161395000Y-78295000D03*
%TO.P,C21,2*%
%TO.N,Net-(U3-MIC2P)*%
X161395000Y-79255000D03*
%TD*%
D14*
%TO.P,C27,1*%
%TO.N,GND*%
X160400000Y-77005000D03*
%TO.P,C27,2*%
%TO.N,Net-(C27-Pad2)*%
X160400000Y-76045000D03*
%TD*%
D38*
%TO.P,J1,1,Pin_1*%
%TO.N,GND*%
X165070000Y-133230000D03*
%TO.P,J1,2,Pin_2*%
%TO.N,T1*%
X164570000Y-133230000D03*
%TO.P,J1,3,Pin_3*%
%TO.N,T2*%
X164070000Y-133230000D03*
%TO.P,J1,4,Pin_4*%
%TO.N,T3*%
X163570000Y-133230000D03*
%TO.P,J1,5,Pin_5*%
%TO.N,T4*%
X163070000Y-133230000D03*
%TO.P,J1,6,Pin_6*%
%TO.N,T5*%
X162570000Y-133230000D03*
%TO.P,J1,7,Pin_7*%
%TO.N,T6*%
X162070000Y-133230000D03*
%TO.P,J1,8,Pin_8*%
%TO.N,GND*%
X161570000Y-133230000D03*
D39*
%TO.P,J1,9*%
%TO.N,N/C*%
X167020000Y-135130000D03*
X159620000Y-135130000D03*
%TD*%
D40*
%TO.P,U2,1,GND*%
%TO.N,GND*%
X139640000Y-131750000D03*
%TO.P,U2,2,3V3*%
%TO.N,+3.3V*%
X140910000Y-131750000D03*
%TO.P,U2,3,EN*%
%TO.N,/EN*%
X142180000Y-131750000D03*
%TO.P,U2,4,IO4*%
%TO.N,HOLD*%
X143450000Y-131750000D03*
%TO.P,U2,5,IO5*%
%TO.N,IO5*%
X144720000Y-131750000D03*
%TO.P,U2,6,IO6*%
%TO.N,IO6*%
X145990000Y-131750000D03*
%TO.P,U2,7,IO7*%
%TO.N,IO7*%
X147260000Y-131750000D03*
%TO.P,U2,8,IO15*%
%TO.N,SDA*%
X148530000Y-131750000D03*
%TO.P,U2,9,IO16*%
%TO.N,SCL*%
X149800000Y-131750000D03*
%TO.P,U2,10,IO17*%
%TO.N,FUEL_INT*%
X151070000Y-131750000D03*
%TO.P,U2,11,IO18*%
%TO.N,RTC_INT*%
X152340000Y-131750000D03*
%TO.P,U2,12,IO8*%
%TO.N,HEADSET_INT*%
X153610000Y-131750000D03*
%TO.P,U2,13,IO19*%
%TO.N,/TD-*%
X154880000Y-131750000D03*
%TO.P,U2,14,IO20*%
%TO.N,/TD+*%
X156150000Y-131750000D03*
D41*
%TO.P,U2,15,IO3*%
%TO.N,IO3*%
X157400000Y-129985000D03*
%TO.P,U2,16,IO46*%
%TO.N,MCLK*%
X157400000Y-128715000D03*
%TO.P,U2,17,IO9*%
%TO.N,T6*%
X157400000Y-127445000D03*
%TO.P,U2,18,IO10*%
%TO.N,T5*%
X157400000Y-126175000D03*
%TO.P,U2,19,IO11*%
%TO.N,T4*%
X157400000Y-124905000D03*
%TO.P,U2,20,IO12*%
%TO.N,T3*%
X157400000Y-123635000D03*
%TO.P,U2,21,IO13*%
%TO.N,T2*%
X157400000Y-122365000D03*
%TO.P,U2,22,IO14*%
%TO.N,T1*%
X157400000Y-121095000D03*
%TO.P,U2,23,IO21*%
%TO.N,SDOUT*%
X157400000Y-119825000D03*
%TO.P,U2,24,IO47*%
%TO.N,LRCK*%
X157400000Y-118555000D03*
%TO.P,U2,25,IO48*%
%TO.N,SDIN*%
X157400000Y-117285000D03*
%TO.P,U2,26,IO45*%
%TO.N,SCLK*%
X157400000Y-116015000D03*
D40*
%TO.P,U2,27,IO0*%
%TO.N,IO0*%
X156150000Y-114250000D03*
%TO.P,U2,28,IO35*%
%TO.N,DISPLAY_RESET*%
X154880000Y-114250000D03*
%TO.P,U2,29,IO36*%
%TO.N,MOSI*%
X153610000Y-114250000D03*
%TO.P,U2,30,IO37*%
%TO.N,CLK*%
X152340000Y-114250000D03*
%TO.P,U2,31,IO38*%
%TO.N,DISPLAY_CS*%
X151070000Y-114250000D03*
%TO.P,U2,32,IO39*%
%TO.N,DISPLAY_DC*%
X149800000Y-114250000D03*
%TO.P,U2,33,IO40*%
%TO.N,DISPLAY_BACKLIGHT_EN*%
X148530000Y-114250000D03*
%TO.P,U2,34,IO41*%
%TO.N,SD_DETECT*%
X147260000Y-114250000D03*
%TO.P,U2,35,IO42*%
%TO.N,MISO*%
X145990000Y-114250000D03*
%TO.P,U2,36,RXD0*%
%TO.N,Net-(U2-RXD0)*%
X144720000Y-114250000D03*
%TO.P,U2,37,TXD0*%
%TO.N,Net-(U2-TXD0)*%
X143450000Y-114250000D03*
%TO.P,U2,38,IO2*%
%TO.N,SD_CS*%
X142180000Y-114250000D03*
%TO.P,U2,39,IO1*%
%TO.N,PWR*%
X140910000Y-114250000D03*
%TO.P,U2,40,GND*%
%TO.N,GND*%
X139640000Y-114250000D03*
D42*
%TO.P,U2,41_1,GND*%
X146660000Y-125900000D03*
X148060000Y-125900000D03*
X145950000Y-125200000D03*
X147400000Y-125200000D03*
X148750000Y-125200000D03*
X146650000Y-124500000D03*
D43*
X147360000Y-124500000D03*
D42*
X148060000Y-124500000D03*
X145950000Y-123800000D03*
X147400000Y-123800000D03*
X148750000Y-123800000D03*
X146650000Y-123050000D03*
X148060000Y-123050000D03*
D43*
%TO.P,U2,41_2,GND*%
X147360000Y-125900000D03*
%TO.P,U2,41_3,GND*%
X147360000Y-123100000D03*
%TO.P,U2,41_4,GND*%
X148760000Y-125900000D03*
%TO.P,U2,41_5,GND*%
X148760000Y-124500000D03*
%TO.P,U2,41_6,GND*%
X148760000Y-123100000D03*
%TO.P,U2,41_7,GND*%
X145960000Y-125900000D03*
%TO.P,U2,41_8,GND*%
X145960000Y-124500000D03*
%TO.P,U2,41_9,GND*%
X145960000Y-123100000D03*
%TD*%
D23*
%TO.P,R11,1*%
%TO.N,+3.3V*%
X159470000Y-78265000D03*
%TO.P,R11,2*%
%TO.N,SDA*%
X159470000Y-79285000D03*
%TD*%
D13*
%TO.P,C9,1*%
%TO.N,+3.3V*%
X140735000Y-133250000D03*
%TO.P,C9,2*%
%TO.N,GND*%
X139775000Y-133250000D03*
%TD*%
D44*
%TO.P,R26,1*%
%TO.N,VBUS*%
X160400000Y-154350000D03*
%TO.P,R26,2*%
%TO.N,Net-(C34-Pad1)*%
X161420000Y-154350000D03*
%TD*%
%TO.P,R2,1*%
%TO.N,+3.3V*%
X139720000Y-111450000D03*
%TO.P,R2,2*%
%TO.N,PWR*%
X140740000Y-111450000D03*
%TD*%
%TO.P,R18,1*%
%TO.N,Net-(U3-LOUT)*%
X165345000Y-84500000D03*
%TO.P,R18,2*%
%TO.N,Net-(J2-PadT)*%
X166365000Y-84500000D03*
%TD*%
D45*
%TO.P,Q4,1,G*%
%TO.N,DISPLAY_BACKLIGHT_EN*%
X151350000Y-92425000D03*
D46*
%TO.P,Q4,2,S*%
%TO.N,GND*%
X151394500Y-91550000D03*
D45*
X151350000Y-90675000D03*
%TO.P,Q4,3,D*%
%TO.N,Net-(Q4-D)*%
X150050000Y-92425000D03*
X150700000Y-92425000D03*
D47*
X150379000Y-91550000D03*
D45*
X150050000Y-90675000D03*
X150700000Y-90675000D03*
%TD*%
D20*
%TO.P,R5,1*%
%TO.N,+3.3V*%
X144700000Y-137020000D03*
%TO.P,R5,2*%
%TO.N,IO5*%
X144700000Y-136000000D03*
%TD*%
D17*
%TO.P,C32,1*%
%TO.N,/Power/Vin*%
X169979995Y-144449999D03*
%TO.P,C32,2*%
%TO.N,GND*%
X171529995Y-144449999D03*
%TD*%
D14*
%TO.P,C26,1*%
%TO.N,GND*%
X158620000Y-87830000D03*
%TO.P,C26,2*%
%TO.N,Net-(U3-HEADSET)*%
X158620000Y-86870000D03*
%TD*%
D20*
%TO.P,R23,1*%
%TO.N,GND*%
X159400000Y-147210000D03*
%TO.P,R23,2*%
%TO.N,VBUS*%
X159400000Y-146190000D03*
%TD*%
D13*
%TO.P,C44,1*%
%TO.N,GND*%
X162900000Y-87850000D03*
%TO.P,C44,2*%
%TO.N,+1V8*%
X161940000Y-87850000D03*
%TD*%
D30*
%TO.P,C12,1*%
%TO.N,D+*%
X156050000Y-135250000D03*
%TO.P,C12,2*%
%TO.N,GND*%
X157010000Y-135250000D03*
%TD*%
D21*
%TO.P,C30,1*%
%TO.N,VBUS*%
X160400000Y-146200000D03*
%TO.P,C30,2*%
%TO.N,GND*%
X160400000Y-147160000D03*
%TD*%
D48*
%TO.P,C28,1*%
%TO.N,BATT+*%
X165600000Y-146475000D03*
%TO.P,C28,2*%
%TO.N,GND*%
X165600000Y-148025000D03*
%TD*%
D49*
%TO.P,U4,1,VIN*%
%TO.N,/Power/Vin*%
X170450000Y-140287500D03*
%TO.P,U4,2,GND*%
%TO.N,GND*%
X171400000Y-140287500D03*
%TO.P,U4,3,CE*%
%TO.N,/Power/REG_EN*%
X172350000Y-140287500D03*
%TO.P,U4,4,NC*%
%TO.N,unconnected-(U4-NC-Pad4)*%
X172350000Y-138012500D03*
%TO.P,U4,5,VOUT*%
%TO.N,+3.3V*%
X170450000Y-138012500D03*
%TD*%
D50*
%TO.P,R35,1*%
%TO.N,+3.3V*%
X149290000Y-97550000D03*
%TO.P,R35,2*%
%TO.N,Net-(U8-LEDA)*%
X148270000Y-97550000D03*
%TD*%
D20*
%TO.P,R36,1*%
%TO.N,DISPLAY_RESET*%
X154900000Y-112210000D03*
%TO.P,R36,2*%
%TO.N,+3.3V*%
X154900000Y-111190000D03*
%TD*%
D51*
%TO.P,F1,1*%
%TO.N,/Power/Batt+_unfuse*%
X147212500Y-148450000D03*
%TO.P,F1,2*%
%TO.N,BATT+*%
X148787500Y-148450000D03*
%TD*%
D20*
%TO.P,R28,1*%
%TO.N,Net-(D5-K)*%
X164900000Y-155150000D03*
%TO.P,R28,2*%
%TO.N,/Power/CHRG*%
X164900000Y-154130000D03*
%TD*%
D23*
%TO.P,R19,1*%
%TO.N,Net-(C27-Pad2)*%
X161395000Y-76015000D03*
%TO.P,R19,2*%
%TO.N,/Codec/M2+*%
X161395000Y-77035000D03*
%TD*%
D44*
%TO.P,R22,1*%
%TO.N,/Power/PSEN_DRIVE*%
X163140000Y-144950000D03*
%TO.P,R22,2*%
%TO.N,BATT+*%
X164160000Y-144950000D03*
%TD*%
%TO.P,R21,1*%
%TO.N,Net-(U3-ROUT)*%
X165345000Y-85450000D03*
%TO.P,R21,2*%
%TO.N,Net-(J2-PadR1)*%
X166365000Y-85450000D03*
%TD*%
D23*
%TO.P,R37,1*%
%TO.N,+3.3V*%
X135500000Y-78040000D03*
%TO.P,R37,2*%
%TO.N,SD_CS*%
X135500000Y-79060000D03*
%TD*%
D52*
%TO.P,SW7,*%
%TO.N,*%
X169765000Y-128180000D03*
X171975000Y-128180000D03*
X169765000Y-120880000D03*
X171975000Y-120880000D03*
D53*
%TO.P,SW7,1,A*%
%TO.N,GND*%
X169115000Y-126780000D03*
%TO.P,SW7,2,B*%
%TO.N,/Power/REG_EN*%
X169115000Y-123780000D03*
%TO.P,SW7,3,C*%
%TO.N,unconnected-(SW7-C-Pad3)*%
X169115000Y-122280000D03*
%TD*%
D21*
%TO.P,C1,1*%
%TO.N,IO7*%
X147350000Y-133470000D03*
%TO.P,C1,2*%
%TO.N,GND*%
X147350000Y-134430000D03*
%TD*%
D14*
%TO.P,C19,1*%
%TO.N,GND*%
X160595000Y-87815000D03*
%TO.P,C19,2*%
%TO.N,+1V8*%
X160595000Y-86855000D03*
%TD*%
D44*
%TO.P,R29,1*%
%TO.N,/Power/PROG*%
X160290000Y-150550000D03*
%TO.P,R29,2*%
%TO.N,GND*%
X161310000Y-150550000D03*
%TD*%
D23*
%TO.P,R16,1*%
%TO.N,ADCVREF*%
X159405000Y-76015000D03*
%TO.P,R16,2*%
%TO.N,Net-(C27-Pad2)*%
X159405000Y-77035000D03*
%TD*%
D13*
%TO.P,C10,1*%
%TO.N,D-*%
X155010000Y-135250000D03*
%TO.P,C10,2*%
%TO.N,GND*%
X154050000Y-135250000D03*
%TD*%
D30*
%TO.P,C45,1*%
%TO.N,+3.3V*%
X150200000Y-97550000D03*
%TO.P,C45,2*%
%TO.N,GND*%
X151160000Y-97550000D03*
%TD*%
D54*
%TO.P,U10,1,OSCI*%
%TO.N,/Peripherals/OSCI*%
X148300000Y-72150000D03*
%TO.P,U10,2,OSCO*%
%TO.N,/Peripherals/OSCO*%
X148300000Y-72650000D03*
%TO.P,U10,3,~{INT}*%
%TO.N,RTC_INT*%
X148300000Y-73150000D03*
%TO.P,U10,4,VSS*%
%TO.N,GND*%
X148300000Y-73650000D03*
%TO.P,U10,5,SDA*%
%TO.N,SDA*%
X151125000Y-73650000D03*
%TO.P,U10,6,SCL*%
%TO.N,SCL*%
X151125000Y-73150000D03*
%TO.P,U10,7,CLKOUT*%
%TO.N,Net-(U10-CLKOUT)*%
X151125000Y-72650000D03*
%TO.P,U10,8,VDD*%
%TO.N,+3.3V*%
X151125000Y-72150000D03*
D55*
%TO.P,U10,EP,EP*%
%TO.N,GND*%
X149712500Y-72900000D03*
%TD*%
D56*
%TO.P,Q3,1,S2*%
%TO.N,BATT+*%
X163850000Y-146200000D03*
%TO.P,Q3,2,G2*%
%TO.N,/Power/PSEN_DRIVE*%
X163200000Y-146200000D03*
%TO.P,Q3,3,S2*%
%TO.N,/Power/Vin*%
X162550000Y-146200000D03*
%TO.P,Q3,4,G2*%
%TO.N,VBUS*%
X161900000Y-146200000D03*
D57*
%TO.P,Q3,5,D2*%
%TO.N,Net-(Q3A-D2-Pad7)*%
X162202500Y-148099990D03*
D56*
X161910000Y-149170000D03*
%TO.P,Q3,6,D2*%
X162560000Y-149170000D03*
D58*
%TO.P,Q3,7,D2*%
X163570000Y-148100000D03*
D56*
X163210000Y-149170000D03*
%TO.P,Q3,8,D2*%
X163860000Y-149170000D03*
%TD*%
D20*
%TO.P,R10,1*%
%TO.N,D+*%
X156130000Y-134360000D03*
%TO.P,R10,2*%
%TO.N,/TD+*%
X156130000Y-133340000D03*
%TD*%
%TO.P,R8,1*%
%TO.N,+3.3V*%
X142000000Y-137010000D03*
%TO.P,R8,2*%
%TO.N,/EN*%
X142000000Y-135990000D03*
%TD*%
%TO.P,FB1,1*%
%TO.N,+3.3V*%
X165970000Y-93860000D03*
%TO.P,FB1,2*%
%TO.N,+3.3VA*%
X165970000Y-92840000D03*
%TD*%
D13*
%TO.P,C16,1*%
%TO.N,GND*%
X166305000Y-83550000D03*
%TO.P,C16,2*%
%TO.N,Net-(U3-DACVREF)*%
X165345000Y-83550000D03*
%TD*%
%TO.P,C20,1*%
%TO.N,Net-(U3-CPBOT)*%
X162900000Y-86800000D03*
%TO.P,C20,2*%
%TO.N,Net-(U3-CPTOP)*%
X161940000Y-86800000D03*
%TD*%
D12*
%TO.P,C34,1*%
%TO.N,Net-(C34-Pad1)*%
X161575000Y-155750000D03*
%TO.P,C34,2*%
%TO.N,GND*%
X160025000Y-155750000D03*
%TD*%
D22*
%TO.P,U7,1,GND*%
%TO.N,GND*%
X163349999Y-89250000D03*
%TO.P,U7,2,VO*%
%TO.N,+1V8*%
X161449999Y-89250000D03*
%TO.P,U7,3,VI*%
%TO.N,+3.3VA*%
X162399999Y-91525000D03*
%TD*%
D59*
%TO.P,J3,A1,GND*%
%TO.N,GND*%
X150070000Y-151060000D03*
%TO.P,J3,A4,VBUS*%
%TO.N,/Power/VBUS_IN*%
X150870000Y-151060000D03*
%TO.P,J3,A5,CC1*%
%TO.N,/Power/CC1*%
X152170000Y-151060000D03*
%TO.P,J3,A6,D+*%
%TO.N,D+*%
X153170000Y-151060000D03*
%TO.P,J3,A7,D-*%
%TO.N,D-*%
X153670000Y-151060000D03*
%TO.P,J3,A8,SBU1*%
%TO.N,unconnected-(J3-SBU1-PadA8)*%
X154670000Y-151060000D03*
%TO.P,J3,A9,VBUS*%
%TO.N,/Power/VBUS_IN*%
X155970000Y-151060000D03*
%TO.P,J3,A12,GND*%
%TO.N,GND*%
X156770000Y-151060000D03*
%TO.P,J3,B1,GND*%
X156470000Y-151060000D03*
%TO.P,J3,B4,VBUS*%
%TO.N,/Power/VBUS_IN*%
X155670000Y-151060000D03*
%TO.P,J3,B5,CC2*%
%TO.N,/Power/CC2*%
X155170000Y-151060000D03*
%TO.P,J3,B6,D+*%
%TO.N,D+*%
X154170000Y-151060000D03*
%TO.P,J3,B7,D-*%
%TO.N,D-*%
X152670000Y-151060000D03*
%TO.P,J3,B8,SBU2*%
%TO.N,unconnected-(J3-SBU2-PadB8)*%
X151670000Y-151060000D03*
%TO.P,J3,B9,VBUS*%
%TO.N,/Power/VBUS_IN*%
X151170000Y-151060000D03*
%TO.P,J3,B12,GND*%
%TO.N,GND*%
X150370000Y-151060000D03*
D60*
%TO.P,J3,S1,SHIELD*%
X149100000Y-151625000D03*
D61*
X149100000Y-155805000D03*
D60*
X157740000Y-151625000D03*
D61*
X157740000Y-155805000D03*
%TD*%
D62*
%TO.P,Q1,1,G*%
%TO.N,/Power/Batt+_unfuse*%
X147125000Y-145405500D03*
D63*
%TO.P,Q1,2,S*%
%TO.N,GND*%
X148000000Y-145450000D03*
D62*
X148875000Y-145405500D03*
%TO.P,Q1,3,D*%
%TO.N,Net-(Q1-D)*%
X147125000Y-144105500D03*
X147125000Y-144755500D03*
D64*
X148000000Y-144434500D03*
D62*
X148875000Y-144105500D03*
X148875000Y-144755500D03*
%TD*%
D13*
%TO.P,C18,1*%
%TO.N,GND*%
X166305000Y-82600000D03*
%TO.P,C18,2*%
%TO.N,+3.3VA*%
X165345000Y-82600000D03*
%TD*%
D23*
%TO.P,R40,1*%
%TO.N,+3.3V*%
X137500000Y-78040000D03*
%TO.P,R40,2*%
%TO.N,MISO*%
X137500000Y-79060000D03*
%TD*%
D65*
%TO.P,D3,1,K*%
%TO.N,/Power/Vin*%
X161300000Y-144350000D03*
%TO.P,D3,2,A*%
%TO.N,VBUS*%
X158500000Y-144350000D03*
%TD*%
D33*
%TO.P,D7,1,A1*%
%TO.N,GND*%
X136500000Y-79070000D03*
%TO.P,D7,2,A2*%
%TO.N,MISO*%
X136500000Y-78230000D03*
%TD*%
D17*
%TO.P,C35,1*%
%TO.N,+3.3V*%
X170199997Y-133877504D03*
%TO.P,C35,2*%
%TO.N,GND*%
X171749997Y-133877504D03*
%TD*%
D21*
%TO.P,C8,1*%
%TO.N,/EN*%
X142000000Y-133470000D03*
%TO.P,C8,2*%
%TO.N,GND*%
X142000000Y-134430000D03*
%TD*%
D23*
%TO.P,R4,1*%
%TO.N,+3.3V*%
X157200000Y-111190000D03*
%TO.P,R4,2*%
%TO.N,IO0*%
X157200000Y-112210000D03*
%TD*%
D20*
%TO.P,R7,1*%
%TO.N,+3.3V*%
X146050000Y-137010000D03*
%TO.P,R7,2*%
%TO.N,IO6*%
X146050000Y-135990000D03*
%TD*%
D66*
%TO.P,D6,1,A1*%
%TO.N,GND*%
X148100000Y-90730000D03*
%TO.P,D6,2,A2*%
%TO.N,SD_DETECT*%
X148100000Y-91570000D03*
%TD*%
D14*
%TO.P,C4,1*%
%TO.N,IO0*%
X156200000Y-112180000D03*
%TO.P,C4,2*%
%TO.N,GND*%
X156200000Y-111220000D03*
%TD*%
D23*
%TO.P,R41,1*%
%TO.N,RTC_INT*%
X152330000Y-133440000D03*
%TO.P,R41,2*%
%TO.N,+3.3V*%
X152330000Y-134460000D03*
%TD*%
D34*
%TO.P,TP2,1,1*%
%TO.N,Net-(U2-RXD0)*%
X141600000Y-102950000D03*
%TD*%
D30*
%TO.P,C36,1*%
%TO.N,+3.3V*%
X170494997Y-136577505D03*
%TO.P,C36,2*%
%TO.N,GND*%
X171454997Y-136577505D03*
%TD*%
D21*
%TO.P,C24,1*%
%TO.N,/Codec/M1-*%
X164245000Y-78295000D03*
%TO.P,C24,2*%
%TO.N,Net-(U3-MIC1N)*%
X164245000Y-79255000D03*
%TD*%
D67*
%TO.P,F2,1*%
%TO.N,/Power/VBUS_IN*%
X158100000Y-147987500D03*
%TO.P,F2,2*%
%TO.N,VBUS*%
X158100000Y-146412500D03*
%TD*%
D68*
%TO.P,U1,1*%
%TO.N,PWR*%
X142400000Y-63500000D03*
%TO.P,U1,2*%
%TO.N,unconnected-(U1-Pad2)*%
X143900000Y-63500000D03*
%TO.P,U1,3\u002C4*%
%TO.N,GND*%
X145400000Y-63500000D03*
X147700000Y-63500000D03*
%TO.P,U1,5*%
%TO.N,HOLD*%
X149200000Y-63500000D03*
D43*
%TO.P,U1,6\u002C7*%
%TO.N,GND*%
X140800000Y-61700000D03*
X150800000Y-61700000D03*
%TD*%
D69*
%TO.P,U3,1,MCLK*%
%TO.N,MCLK*%
X159470000Y-81700000D03*
%TO.P,U3,2,DVDD*%
%TO.N,+3.3V*%
X159470000Y-82100000D03*
%TO.P,U3,3,PVDD*%
X159470000Y-82500000D03*
%TO.P,U3,4,DGND*%
%TO.N,GND*%
X159470000Y-82900000D03*
%TO.P,U3,5,SCLK*%
%TO.N,SCLK*%
X159470000Y-83300000D03*
%TO.P,U3,6,SDIN*%
%TO.N,SDIN*%
X159470000Y-83700000D03*
%TO.P,U3,7,LRCK*%
%TO.N,LRCK*%
X159470000Y-84100000D03*
%TO.P,U3,8,SDOUT*%
%TO.N,SDOUT*%
X159470000Y-84500000D03*
D70*
%TO.P,U3,9,HEADSET*%
%TO.N,Net-(U3-HEADSET)*%
X160070000Y-85100000D03*
%TO.P,U3,10,INOUT*%
%TO.N,HEADSET_INT*%
X160470000Y-85100000D03*
%TO.P,U3,11,CPVDD*%
%TO.N,+1V8*%
X160870000Y-85100000D03*
%TO.P,U3,12,CPTOP*%
%TO.N,Net-(U3-CPTOP)*%
X161270000Y-85100000D03*
%TO.P,U3,13,GMS0*%
%TO.N,/Codec/M1-*%
X161670000Y-85100000D03*
%TO.P,U3,14,CPGND*%
%TO.N,GND*%
X162070000Y-85100000D03*
%TO.P,U3,15,GMS1*%
%TO.N,/Codec/M1+*%
X162470000Y-85100000D03*
%TO.P,U3,16,CPBOT*%
%TO.N,Net-(U3-CPBOT)*%
X162870000Y-85100000D03*
D69*
%TO.P,U3,17,CPVSSP*%
%TO.N,Net-(U3-CPVSSP)*%
X163470000Y-84500000D03*
%TO.P,U3,18,ROUT*%
%TO.N,Net-(U3-ROUT)*%
X163470000Y-84100000D03*
%TO.P,U3,19,LOUT*%
%TO.N,Net-(U3-LOUT)*%
X163470000Y-83700000D03*
%TO.P,U3,20,DACVREF*%
%TO.N,Net-(U3-DACVREF)*%
X163470000Y-83300000D03*
%TO.P,U3,21,AVDD*%
%TO.N,+3.3VA*%
X163470000Y-82900000D03*
%TO.P,U3,22,AGND*%
%TO.N,GND*%
X163470000Y-82500000D03*
%TO.P,U3,23,ADCVREF*%
%TO.N,ADCVREF*%
X163470000Y-82100000D03*
%TO.P,U3,24,VMID*%
%TO.N,Net-(U3-VMID)*%
X163470000Y-81700000D03*
D70*
%TO.P,U3,25,MIC1N*%
%TO.N,Net-(U3-MIC1N)*%
X162870000Y-81100000D03*
%TO.P,U3,26,MIC1P*%
%TO.N,Net-(U3-MIC1P)*%
X162470000Y-81100000D03*
%TO.P,U3,27,MIC2N*%
%TO.N,Net-(U3-MIC2N)*%
X162070000Y-81100000D03*
%TO.P,U3,28,MIC2P*%
%TO.N,Net-(U3-MIC2P)*%
X161670000Y-81100000D03*
%TO.P,U3,29,SDINOUT1*%
%TO.N,unconnected-(U3-SDINOUT1-Pad29)*%
X161270000Y-81100000D03*
%TO.P,U3,30,CE*%
%TO.N,Net-(U3-CE)*%
X160870000Y-81100000D03*
%TO.P,U3,31,CDATA*%
%TO.N,SDA*%
X160470000Y-81100000D03*
%TO.P,U3,32,CCLK*%
%TO.N,SCL*%
X160070000Y-81100000D03*
D42*
%TO.P,U3,33,PAD*%
%TO.N,GND*%
X160270000Y-81900000D03*
X160270000Y-83100000D03*
X160270000Y-84300000D03*
X161470000Y-81900000D03*
X161470000Y-83100000D03*
D71*
X161470000Y-83100000D03*
D42*
X161470000Y-84300000D03*
X162670000Y-81900000D03*
X162670000Y-83100000D03*
X162670000Y-84300000D03*
%TD*%
D21*
%TO.P,C22,1*%
%TO.N,/Codec/M2-*%
X162345000Y-78295000D03*
%TO.P,C22,2*%
%TO.N,Net-(U3-MIC2N)*%
X162345000Y-79255000D03*
%TD*%
D33*
%TO.P,D8,1,A1*%
%TO.N,GND*%
X140500000Y-79090000D03*
%TO.P,D8,2,A2*%
%TO.N,CLK*%
X140500000Y-78250000D03*
%TD*%
D20*
%TO.P,R33,1*%
%TO.N,/Power/Vin*%
X173949998Y-142997501D03*
%TO.P,R33,2*%
%TO.N,/Power/REG_EN*%
X173949998Y-141977501D03*
%TD*%
D72*
%TO.P,Y1,1,1*%
%TO.N,/Peripherals/OSCO*%
X146412500Y-72600000D03*
%TO.P,Y1,2,2*%
%TO.N,/Peripherals/OSCI*%
X146412500Y-71200000D03*
%TD*%
D34*
%TO.P,TP1,1,1*%
%TO.N,Net-(U2-TXD0)*%
X141600000Y-108350000D03*
%TD*%
D30*
%TO.P,C46,1*%
%TO.N,BATT+*%
X149820000Y-139300000D03*
%TO.P,C46,2*%
%TO.N,GND*%
X150780000Y-139300000D03*
%TD*%
D33*
%TO.P,D9,1,A1*%
%TO.N,GND*%
X138500000Y-79090000D03*
%TO.P,D9,2,A2*%
%TO.N,MOSI*%
X138500000Y-78250000D03*
%TD*%
D20*
%TO.P,R6,1*%
%TO.N,+3.3V*%
X160030000Y-131010000D03*
%TO.P,R6,2*%
%TO.N,IO3*%
X160030000Y-129990000D03*
%TD*%
D21*
%TO.P,C42,1*%
%TO.N,GND*%
X164670000Y-90120000D03*
%TO.P,C42,2*%
%TO.N,+3.3VA*%
X164670000Y-91080000D03*
%TD*%
D62*
%TO.P,Q2,1,G*%
%TO.N,/Power/PSEN_GATE*%
X167600000Y-147900000D03*
D63*
%TO.P,Q2,2,S*%
%TO.N,GND*%
X168475000Y-147944500D03*
D62*
X169350000Y-147900000D03*
%TO.P,Q2,3,D*%
%TO.N,/Power/PSEN_DRIVE*%
X167600000Y-146600000D03*
X167600000Y-147250000D03*
D64*
X168475000Y-146929000D03*
D62*
X169350000Y-146600000D03*
X169350000Y-147250000D03*
%TD*%
D17*
%TO.P,C29,1*%
%TO.N,/Power/Batt+_unfuse*%
X147225000Y-146834500D03*
%TO.P,C29,2*%
%TO.N,GND*%
X148775000Y-146834500D03*
%TD*%
D12*
%TO.P,C11,1*%
%TO.N,+3.3V*%
X140630000Y-135850000D03*
%TO.P,C11,2*%
%TO.N,GND*%
X139080000Y-135850000D03*
%TD*%
D20*
%TO.P,R3,1*%
%TO.N,+3.3V*%
X143450000Y-137010000D03*
%TO.P,R3,2*%
%TO.N,HOLD*%
X143450000Y-135990000D03*
%TD*%
D21*
%TO.P,C5,1*%
%TO.N,IO5*%
X144730000Y-133470000D03*
%TO.P,C5,2*%
%TO.N,GND*%
X144730000Y-134430000D03*
%TD*%
D73*
%TO.P,MK1,1,-*%
%TO.N,/Codec/M2-*%
X168670000Y-63300000D03*
%TO.P,MK1,2,+*%
%TO.N,/Codec/M2+*%
X168670000Y-61900000D03*
%TD*%
D74*
%TO.N,IO7*%
X147350000Y-135209500D03*
X147300000Y-132850000D03*
%TO.N,GND*%
X146700000Y-134450000D03*
X168800000Y-125750000D03*
X145400000Y-134450000D03*
X164650000Y-89400000D03*
X147300000Y-90450000D03*
X172100000Y-141750000D03*
X138500000Y-79850000D03*
X172300000Y-136550000D03*
X155500000Y-147200000D03*
X136500000Y-79850000D03*
X155500000Y-123150000D03*
X148300000Y-74350000D03*
X157500000Y-136450000D03*
X159155000Y-155805000D03*
X140500000Y-79850000D03*
X139080000Y-133330000D03*
X150120000Y-96630000D03*
X146600000Y-63500000D03*
X167000000Y-80800000D03*
X145700000Y-129950000D03*
X160400000Y-77650000D03*
X154800000Y-130050000D03*
X134500000Y-79850000D03*
X172300000Y-142950000D03*
X139100000Y-136850000D03*
X153800000Y-134150000D03*
X160900000Y-74950000D03*
X149400000Y-71050000D03*
X139800000Y-61700000D03*
X170100000Y-147950000D03*
X153000000Y-112750000D03*
X146900000Y-93050000D03*
X164100000Y-149950000D03*
X166000000Y-77950000D03*
X132718399Y-84304600D03*
X142699500Y-134430000D03*
X142700000Y-79850000D03*
X172600000Y-135350000D03*
X159400000Y-147850000D03*
X166250000Y-79550000D03*
X165600000Y-148850000D03*
X157800000Y-80150000D03*
X139800000Y-113150000D03*
X160476089Y-88773911D03*
X156200000Y-110450000D03*
X151700000Y-112750000D03*
X147200000Y-87350000D03*
X160800000Y-151250000D03*
X172600000Y-133850000D03*
X164700000Y-135950000D03*
X151450000Y-139300000D03*
X152200000Y-80250000D03*
X158620000Y-88550000D03*
X150920000Y-96630000D03*
X144100000Y-134450000D03*
X164594500Y-76450000D03*
X157100000Y-82950000D03*
X155900000Y-79950000D03*
X142300000Y-127950000D03*
X145500000Y-111800000D03*
X149600000Y-146850000D03*
X150800000Y-63800000D03*
X147200000Y-130150000D03*
X149919503Y-64700000D03*
X149100000Y-112750000D03*
X159100000Y-131800000D03*
X172300000Y-144450000D03*
X167000000Y-83500000D03*
X151650000Y-147200000D03*
X150400000Y-112750000D03*
X167000000Y-82600000D03*
X167000000Y-81650000D03*
X152800000Y-90650000D03*
X165950000Y-88950000D03*
X160400000Y-147850000D03*
X151000000Y-130050000D03*
X132400000Y-76800000D03*
%TO.N,HOLD*%
X149120000Y-64700000D03*
X143450000Y-135209500D03*
X143450000Y-127950000D03*
%TO.N,IO0*%
X155500000Y-119350000D03*
%TO.N,IO5*%
X144700000Y-135209500D03*
X144700000Y-130500000D03*
%TO.N,IO3*%
X161150000Y-130900000D03*
%TO.N,IO6*%
X146050000Y-135209500D03*
X146000000Y-132850000D03*
%TO.N,/EN*%
X142100000Y-135209500D03*
X141571232Y-132952640D03*
%TO.N,+3.3V*%
X149300000Y-96650000D03*
X148300000Y-137050000D03*
X168200000Y-78450000D03*
X136500000Y-77350000D03*
X168200000Y-92650000D03*
X159595000Y-89150000D03*
X156600000Y-78250000D03*
X160030000Y-131770000D03*
X132700000Y-86350000D03*
X152300000Y-135150000D03*
X168900000Y-135150000D03*
X132400000Y-79300000D03*
X157100000Y-81970000D03*
%TO.N,ADCVREF*%
X164450000Y-81700000D03*
X159400000Y-75300000D03*
X163650000Y-73650000D03*
X165350000Y-79550000D03*
%TO.N,+3.3VA*%
X165350000Y-86550000D03*
X164650000Y-82600000D03*
%TO.N,/Codec/M2+*%
X161400000Y-77650000D03*
%TO.N,/Codec/M2-*%
X162300000Y-77650000D03*
%TO.N,/Codec/M1+*%
X163300000Y-77500000D03*
X162850000Y-85950000D03*
%TO.N,/Codec/M1-*%
X162000000Y-85950000D03*
X164097147Y-77438681D03*
%TO.N,Net-(U3-HEADSET)*%
X167250000Y-77850000D03*
X159050000Y-86100000D03*
%TO.N,BATT+*%
X162600000Y-154150000D03*
X165400000Y-152250000D03*
X148800000Y-149450000D03*
%TO.N,VBUS*%
X159600000Y-153250000D03*
%TO.N,Net-(D4-K)*%
X163900000Y-155850000D03*
%TO.N,Net-(D5-K)*%
X164900000Y-155850000D03*
%TO.N,MISO*%
X134900000Y-83250000D03*
X137500000Y-79850000D03*
X145990000Y-112740000D03*
%TO.N,CLK*%
X134900000Y-85450000D03*
X141500000Y-79850000D03*
X152340000Y-108950000D03*
%TO.N,MOSI*%
X139500000Y-79850000D03*
X134900000Y-87650000D03*
X153600000Y-110950000D03*
%TO.N,SD_CS*%
X142200000Y-112750000D03*
X132680000Y-88730000D03*
%TO.N,Net-(Q4-D)*%
X148000000Y-93050000D03*
%TO.N,SDA*%
X148500000Y-127950000D03*
X159884251Y-79973740D03*
X151100000Y-74550000D03*
%TO.N,SCL*%
X152900000Y-81450000D03*
X149800000Y-130250000D03*
%TO.N,HEADSET_INT*%
X153600000Y-130250000D03*
X160000000Y-86050000D03*
%TO.N,Net-(U8-LEDA)*%
X148300000Y-96650000D03*
%TO.N,DISPLAY_RESET*%
X154880000Y-112880000D03*
%TO.N,RTC_INT*%
X152300000Y-79050000D03*
X152340000Y-127950000D03*
%TO.N,MCLK*%
X155500000Y-125550000D03*
X155900000Y-80950000D03*
%TO.N,DISPLAY_CS*%
X151070000Y-111800000D03*
%TO.N,DISPLAY_DC*%
X149200000Y-109450000D03*
%TD*%
D75*
%TO.N,/Power/Batt+_unfuse*%
X147125000Y-145405500D02*
X147125000Y-146734500D01*
X147212500Y-155787500D02*
X145200000Y-157800000D01*
X147212500Y-148450000D02*
X147212500Y-155787500D01*
X140720000Y-157320000D02*
X140720000Y-155180000D01*
X147212500Y-148450000D02*
X147212500Y-146847000D01*
X145200000Y-157800000D02*
X141200000Y-157800000D01*
X141200000Y-157800000D02*
X140720000Y-157320000D01*
%TO.N,Net-(Q1-D)*%
X147125000Y-144450000D02*
X147125000Y-144105500D01*
X147125000Y-144755500D02*
X147125000Y-144450000D01*
X148000000Y-144434500D02*
X147140500Y-144434500D01*
X142720000Y-155180000D02*
X142720000Y-146730000D01*
X148859500Y-144434500D02*
X148875000Y-144450000D01*
X144694500Y-144755500D02*
X147125000Y-144755500D01*
X142720000Y-146730000D02*
X144694500Y-144755500D01*
X148875000Y-144450000D02*
X148875000Y-144105500D01*
X148875000Y-144755500D02*
X148875000Y-144450000D01*
X147140500Y-144434500D02*
X147125000Y-144450000D01*
X148000000Y-144434500D02*
X148859500Y-144434500D01*
D76*
%TO.N,IO7*%
X147350000Y-133370000D02*
X147350000Y-132900000D01*
X147260000Y-132810000D02*
X147260000Y-131750000D01*
X147350000Y-132900000D02*
X147300000Y-132850000D01*
X147350000Y-135890000D02*
X147350000Y-135109500D01*
X147300000Y-132850000D02*
X147260000Y-132810000D01*
D75*
%TO.N,GND*%
X165130000Y-90120000D02*
X165375000Y-89875000D01*
X171529995Y-144449999D02*
X172300000Y-144450000D01*
X149665000Y-151060000D02*
X149100000Y-151625000D01*
X171762499Y-135350000D02*
X172600000Y-135350000D01*
X163500000Y-87850000D02*
X162900000Y-87850000D01*
X157175000Y-151060000D02*
X157740000Y-151625000D01*
X139770000Y-113120000D02*
X139800000Y-113150000D01*
D76*
X172949998Y-142967501D02*
X172317501Y-142967501D01*
D75*
X150132500Y-71000000D02*
X150132500Y-72480000D01*
X169350000Y-147900000D02*
X170050000Y-147900000D01*
D76*
X166305000Y-82600000D02*
X167000000Y-82600000D01*
D75*
X150780000Y-139300000D02*
X150780000Y-138150000D01*
D76*
X160387500Y-152800000D02*
X161150000Y-152800000D01*
D75*
X150132500Y-71000000D02*
X149400000Y-71050000D01*
D76*
X146700000Y-134450000D02*
X146680000Y-134430000D01*
D75*
X163500000Y-89099999D02*
X163500000Y-87850000D01*
X139770000Y-114120000D02*
X139640000Y-114250000D01*
D76*
X160387500Y-151562500D02*
X160700000Y-151250000D01*
D75*
X172100000Y-141750000D02*
X172100000Y-141850000D01*
D76*
X157930000Y-82900000D02*
X159470000Y-82900000D01*
D75*
X172100000Y-141850000D02*
X172000000Y-141750000D01*
X164670000Y-90120000D02*
X165130000Y-90120000D01*
X139770000Y-113180000D02*
X139770000Y-114120000D01*
X164670000Y-90120000D02*
X164670000Y-89430000D01*
D76*
X146720000Y-134430000D02*
X146700000Y-134450000D01*
D75*
X165375000Y-89875000D02*
X165970000Y-89875000D01*
X169305500Y-147944500D02*
X169350000Y-147900000D01*
X148875000Y-145405500D02*
X148875000Y-146734500D01*
D76*
X163470000Y-82500000D02*
X162070000Y-82500000D01*
X142699500Y-134430000D02*
X144080000Y-134430000D01*
X148300000Y-73650000D02*
X148300000Y-74350000D01*
X160700000Y-151250000D02*
X160800000Y-151250000D01*
X161800000Y-135950000D02*
X161570000Y-135720000D01*
X166310000Y-80775000D02*
X166975000Y-80775000D01*
X169115000Y-126780000D02*
X169115000Y-126065000D01*
D75*
X152000000Y-147200000D02*
X152000000Y-148180001D01*
X150780000Y-137716637D02*
X150213363Y-137150000D01*
D76*
X146680000Y-134430000D02*
X145420000Y-134430000D01*
X151394500Y-91550000D02*
X151394500Y-90719500D01*
D75*
X168475000Y-147944500D02*
X169305500Y-147944500D01*
D76*
X132718399Y-84328399D02*
X132720000Y-84330000D01*
D75*
X171724998Y-135387501D02*
X171724998Y-136307504D01*
X159400000Y-147210000D02*
X159400000Y-147850000D01*
X172572496Y-133877504D02*
X172600000Y-133850000D01*
X164670000Y-89430000D02*
X164650000Y-89450000D01*
D76*
X160420000Y-77630000D02*
X160420000Y-77025000D01*
D75*
X159155000Y-155805000D02*
X159970000Y-155805000D01*
X171380002Y-141750000D02*
X172000000Y-141750000D01*
D76*
X166975000Y-81675000D02*
X167000000Y-81650000D01*
D75*
X165970000Y-89875000D02*
X165970000Y-88970000D01*
X164100000Y-149950000D02*
X164100000Y-150770000D01*
D76*
X157010000Y-135250000D02*
X157010000Y-135960000D01*
X138500000Y-79090000D02*
X138500000Y-79850000D01*
D75*
X160476089Y-88773911D02*
X160595000Y-88655000D01*
D76*
X146600000Y-63500000D02*
X147700000Y-63500000D01*
X160400000Y-77650000D02*
X160420000Y-77630000D01*
D75*
X139775000Y-133250000D02*
X139160000Y-133250000D01*
D76*
X145380000Y-134430000D02*
X144120000Y-134430000D01*
D75*
X165600000Y-148025000D02*
X165600000Y-148850000D01*
D76*
X160900000Y-74950000D02*
X161850000Y-74950000D01*
X132718399Y-84304600D02*
X132743799Y-84330000D01*
X147330000Y-134430000D02*
X146720000Y-134430000D01*
D75*
X149600000Y-146850000D02*
X148790500Y-146850000D01*
X150070000Y-151060000D02*
X149665000Y-151060000D01*
D76*
X134500000Y-79070000D02*
X134500000Y-79850000D01*
X142699500Y-134430000D02*
X142100000Y-134430000D01*
X161400000Y-152334314D02*
X160865686Y-151800000D01*
D75*
X139770000Y-112550000D02*
X139770000Y-113120000D01*
D76*
X154050000Y-134400000D02*
X154050000Y-135250000D01*
D75*
X170050000Y-147900000D02*
X170100000Y-147950000D01*
X165600000Y-149950000D02*
X164100000Y-149950000D01*
D76*
X166305000Y-83550000D02*
X166950000Y-83550000D01*
X151800000Y-91550000D02*
X151984999Y-91365001D01*
X148300000Y-73650000D02*
X148962500Y-73650000D01*
D75*
X160400000Y-147160000D02*
X160400000Y-147850000D01*
X150780000Y-138150000D02*
X150780000Y-137716637D01*
D76*
X148100000Y-90730000D02*
X147580000Y-90730000D01*
D75*
X160595000Y-88655000D02*
X160595000Y-87815000D01*
D76*
X169115000Y-126065000D02*
X168800000Y-125750000D01*
D75*
X139080000Y-135850000D02*
X139080000Y-134450000D01*
X151650000Y-147200000D02*
X152280000Y-147200000D01*
X139800000Y-113150000D02*
X139770000Y-113180000D01*
X139100000Y-135870000D02*
X139100000Y-136850000D01*
D76*
X161570000Y-135720000D02*
X161570000Y-133230000D01*
X151160000Y-96870000D02*
X150920000Y-96630000D01*
D75*
X164650000Y-89450000D02*
X164650000Y-89400000D01*
X139775000Y-133250000D02*
X139775000Y-131885000D01*
X171529995Y-144449999D02*
X171529995Y-142950002D01*
D76*
X164700000Y-135950000D02*
X161800000Y-135950000D01*
D75*
X156200000Y-111220000D02*
X156200000Y-110450000D01*
D76*
X151394500Y-91550000D02*
X151800000Y-91550000D01*
D75*
X165600000Y-148850000D02*
X165600000Y-149950000D01*
X158620000Y-88550000D02*
X158620000Y-87830000D01*
X162900000Y-87850000D02*
X164230000Y-87850000D01*
D76*
X145400000Y-134450000D02*
X145380000Y-134430000D01*
D75*
X172000000Y-141750000D02*
X172100000Y-141750000D01*
D76*
X161850000Y-74950000D02*
X162295000Y-75395000D01*
D75*
X171529997Y-142950000D02*
X171529997Y-141899995D01*
X148000000Y-145450000D02*
X148830500Y-145450000D01*
X147200000Y-87350000D02*
X147195000Y-87355000D01*
X155250000Y-147250000D02*
X155250000Y-148190000D01*
X159155000Y-155805000D02*
X157740000Y-155805000D01*
D76*
X145420000Y-134430000D02*
X145400000Y-134450000D01*
X148962500Y-73650000D02*
X149712500Y-72900000D01*
X157010000Y-135960000D02*
X157500000Y-136450000D01*
X159100000Y-130970000D02*
X159100000Y-131800000D01*
X152800000Y-91365001D02*
X152800000Y-90750000D01*
D75*
X171400000Y-140287500D02*
X171400000Y-136632502D01*
D76*
X144080000Y-134430000D02*
X144100000Y-134450000D01*
X165070000Y-133230000D02*
X165070000Y-135580000D01*
D75*
X171749997Y-133877504D02*
X171749997Y-135362502D01*
D76*
X136500000Y-79070000D02*
X136500000Y-79850000D01*
X150800000Y-63800000D02*
X150800000Y-61700000D01*
D75*
X151650000Y-147200000D02*
X152000000Y-147200000D01*
D76*
X160800000Y-151250000D02*
X160800000Y-151150000D01*
X146600000Y-63500000D02*
X145400000Y-63500000D01*
D75*
X139080000Y-133330000D02*
X139080000Y-134450000D01*
X156770000Y-151060000D02*
X157175000Y-151060000D01*
D76*
X172282499Y-142967501D02*
X171547498Y-142967501D01*
X139800000Y-61700000D02*
X140800000Y-61700000D01*
D75*
X142000000Y-134430000D02*
X147350000Y-134430000D01*
D76*
X151984999Y-91365001D02*
X152800000Y-91365001D01*
X172300000Y-142950000D02*
X172282499Y-142967501D01*
X152800000Y-90750000D02*
X152800000Y-90650000D01*
D75*
X139160000Y-133250000D02*
X139080000Y-133330000D01*
D76*
X157120000Y-82930000D02*
X157100000Y-82950000D01*
X160420000Y-77670000D02*
X160400000Y-77650000D01*
D75*
X155500000Y-147200000D02*
X154920000Y-147200000D01*
D76*
X166975000Y-80775000D02*
X167000000Y-80800000D01*
X162070000Y-85100000D02*
X162070000Y-83700000D01*
X172317501Y-142967501D02*
X172300000Y-142950000D01*
X162295000Y-76015000D02*
X162295000Y-75395000D01*
X160865686Y-151800000D02*
X160387500Y-151800000D01*
X160387500Y-151800000D02*
X160387500Y-151562500D01*
X140500000Y-79090000D02*
X140500000Y-79850000D01*
X147580000Y-90730000D02*
X147300000Y-90450000D01*
X165070000Y-135580000D02*
X164700000Y-135950000D01*
X166310000Y-81675000D02*
X166975000Y-81675000D01*
X151160000Y-97550000D02*
X151160000Y-96870000D01*
D75*
X171529997Y-141899995D02*
X171380000Y-141749998D01*
D76*
X149280000Y-138150000D02*
X149280000Y-137787348D01*
D75*
X147195000Y-87355000D02*
X146360000Y-87355000D01*
X171380000Y-141749998D02*
X171380000Y-140307500D01*
D76*
X144120000Y-134430000D02*
X144100000Y-134450000D01*
X132718399Y-84304600D02*
X132718399Y-84328399D01*
D75*
X155500000Y-147200000D02*
X155200000Y-147200000D01*
X171749997Y-133877504D02*
X172572496Y-133877504D01*
D76*
X157900000Y-82930000D02*
X157120000Y-82930000D01*
D75*
X155200000Y-147200000D02*
X155250000Y-147250000D01*
X164670000Y-90120000D02*
X164219999Y-90120000D01*
D76*
X150280000Y-136150000D02*
X150280000Y-136900000D01*
X166950000Y-83550000D02*
X167000000Y-83500000D01*
D75*
X171482502Y-136550000D02*
X172300000Y-136550000D01*
X171724998Y-136307504D02*
X171454997Y-136577505D01*
D76*
X153800000Y-134150000D02*
X154050000Y-134400000D01*
D75*
X132400000Y-77520000D02*
X132400000Y-76800000D01*
X164219999Y-90120000D02*
X163349999Y-89250000D01*
D76*
X160800000Y-151150000D02*
X161310000Y-150640000D01*
D75*
X150780000Y-139300000D02*
X151450000Y-139300000D01*
D76*
X132743799Y-84330000D02*
X133820000Y-84330000D01*
D75*
X165970000Y-88970000D02*
X165950000Y-88950000D01*
D76*
X160420000Y-78290000D02*
X160420000Y-77670000D01*
X149280000Y-137787348D02*
X149917348Y-137150000D01*
D75*
X148830500Y-145450000D02*
X148875000Y-145405500D01*
D76*
%TO.N,PWR*%
X131400000Y-73750000D02*
X141650000Y-63500000D01*
X141650000Y-63500000D02*
X142400000Y-63500000D01*
X140730000Y-113180000D02*
X140730000Y-112550000D01*
X139000000Y-96510000D02*
X131400000Y-88910000D01*
X140740000Y-110840000D02*
X139000000Y-109100000D01*
X140910000Y-113360000D02*
X140730000Y-113180000D01*
X140740000Y-111450000D02*
X140740000Y-110840000D01*
X139000000Y-109100000D02*
X139000000Y-96510000D01*
X131400000Y-88910000D02*
X131400000Y-73750000D01*
X140730000Y-112550000D02*
X140730000Y-111460000D01*
X140910000Y-114250000D02*
X140910000Y-113360000D01*
%TO.N,HOLD*%
X143450000Y-127950000D02*
X143450000Y-131750000D01*
X149120000Y-64700000D02*
X149120000Y-63580000D01*
X143450000Y-127950000D02*
X143450000Y-133370000D01*
X149120000Y-63580000D02*
X149200000Y-63500000D01*
X143450000Y-135990000D02*
X143450000Y-135209500D01*
%TO.N,IO0*%
X155500000Y-119350000D02*
X155500000Y-116450000D01*
X156150000Y-115800000D02*
X156150000Y-114250000D01*
X157200000Y-112210000D02*
X156230000Y-112210000D01*
X156150000Y-114250000D02*
X156150000Y-112230000D01*
X155500000Y-116450000D02*
X156150000Y-115800000D01*
%TO.N,IO5*%
X144700000Y-130500000D02*
X144720000Y-130520000D01*
X144720000Y-130520000D02*
X144720000Y-131750000D01*
X144700000Y-136000000D02*
X144700000Y-135209500D01*
X144700000Y-130500000D02*
X144730000Y-130530000D01*
X144730000Y-130530000D02*
X144730000Y-133370000D01*
%TO.N,IO3*%
X161150000Y-130900000D02*
X160240000Y-129990000D01*
X160195000Y-129985000D02*
X157400000Y-129985000D01*
%TO.N,IO6*%
X146050000Y-135990000D02*
X146050000Y-135209500D01*
X146050000Y-133370000D02*
X146050000Y-132850000D01*
X146050000Y-132850000D02*
X146000000Y-132850000D01*
X145990000Y-132790000D02*
X145990000Y-131750000D01*
X146000000Y-132800000D02*
X145990000Y-132790000D01*
X146000000Y-132850000D02*
X146000000Y-132800000D01*
%TO.N,/EN*%
X142180000Y-132952640D02*
X142180000Y-131750000D01*
X141571232Y-132952640D02*
X142180000Y-132952640D01*
X142180000Y-132952640D02*
X142100000Y-133032640D01*
X142100000Y-135990000D02*
X142100000Y-135209500D01*
X142100000Y-133032640D02*
X142100000Y-133370000D01*
D75*
%TO.N,+3.3V*%
X152330000Y-135120000D02*
X152300000Y-135150000D01*
X169137501Y-135387501D02*
X168900000Y-135150000D01*
X170174998Y-135387501D02*
X170174998Y-136257506D01*
X165970000Y-94620000D02*
X165970000Y-93860000D01*
X170199997Y-132349997D02*
X166400000Y-128550000D01*
D76*
X150200000Y-97550000D02*
X149290000Y-97550000D01*
D75*
X153900000Y-102250000D02*
X153900000Y-84050000D01*
X159595000Y-90445000D02*
X163010000Y-93860000D01*
X141960000Y-137050000D02*
X141200000Y-137050000D01*
X166400000Y-128550000D02*
X166400000Y-95050000D01*
X150200000Y-98150000D02*
X150600000Y-98550000D01*
X170450000Y-138012500D02*
X170450000Y-136622502D01*
X154900000Y-109650000D02*
X153900000Y-108650000D01*
X166400000Y-95050000D02*
X165970000Y-94620000D01*
X141500000Y-72150000D02*
X141500000Y-77350000D01*
X155980000Y-81970000D02*
X157100000Y-81970000D01*
X159595000Y-89150000D02*
X159595000Y-87845000D01*
X148300000Y-137050000D02*
X142040000Y-137050000D01*
X141500000Y-77350000D02*
X141500000Y-78060000D01*
X166990000Y-93860000D02*
X165970000Y-93860000D01*
X170199997Y-133877504D02*
X170199997Y-132349997D01*
D76*
X149290000Y-97550000D02*
X149290000Y-96660000D01*
D75*
X151092500Y-71000000D02*
X151092500Y-70242500D01*
X141500000Y-77350000D02*
X139600000Y-77350000D01*
D76*
X149290000Y-96660000D02*
X149300000Y-96650000D01*
D75*
X138600000Y-126950000D02*
X140910000Y-129260000D01*
X139600000Y-77350000D02*
X137500000Y-77350000D01*
X138600000Y-112250000D02*
X138600000Y-126950000D01*
X168200000Y-77120000D02*
X168200000Y-78450000D01*
X156600000Y-73550000D02*
X155200000Y-72150000D01*
X139500000Y-77450000D02*
X139600000Y-77350000D01*
X150100000Y-69250000D02*
X144400000Y-69250000D01*
X140630000Y-134450000D02*
X140630000Y-133355000D01*
X153900000Y-84050000D02*
X155980000Y-81970000D01*
X159595000Y-89150000D02*
X159595000Y-90445000D01*
X156615000Y-78265000D02*
X159470000Y-78265000D01*
X141200000Y-137050000D02*
X140630000Y-136480000D01*
X151125000Y-72150000D02*
X151125000Y-71032500D01*
X153900000Y-108650000D02*
X153900000Y-102250000D01*
X139500000Y-78060000D02*
X139500000Y-77450000D01*
X157200000Y-109950000D02*
X156900000Y-109650000D01*
X135500000Y-78040000D02*
X135500000Y-77450000D01*
X139400000Y-111450000D02*
X138600000Y-112250000D01*
D76*
X159470000Y-82100000D02*
X158030000Y-82100000D01*
D75*
X140630000Y-135850000D02*
X140630000Y-134450000D01*
X139720000Y-111450000D02*
X139400000Y-111450000D01*
X151092500Y-70242500D02*
X150100000Y-69250000D01*
X150600000Y-98550000D02*
X153900000Y-98550000D01*
X136500000Y-77350000D02*
X135600000Y-77350000D01*
X135500000Y-77450000D02*
X135600000Y-77350000D01*
X156600000Y-78250000D02*
X156600000Y-73550000D01*
X140910000Y-129260000D02*
X140910000Y-131750000D01*
X132900000Y-86550000D02*
X133800000Y-86550000D01*
D76*
X160030000Y-131010000D02*
X160030000Y-131770000D01*
D75*
X163010000Y-93860000D02*
X165970000Y-93860000D01*
X132400000Y-78480000D02*
X132400000Y-79300000D01*
X140735000Y-133250000D02*
X140735000Y-131925000D01*
X140630000Y-136480000D02*
X140630000Y-135850000D01*
X154900000Y-109650000D02*
X154900000Y-111190000D01*
X156600000Y-78250000D02*
X156615000Y-78265000D01*
X137500000Y-78040000D02*
X137500000Y-77350000D01*
X137500000Y-77350000D02*
X136500000Y-77350000D01*
X156900000Y-109650000D02*
X154900000Y-109650000D01*
D76*
X159470000Y-82500000D02*
X159470000Y-82100000D01*
D75*
X153900000Y-98550000D02*
X153900000Y-102250000D01*
X157100000Y-81970000D02*
X157900000Y-81970000D01*
X155200000Y-72150000D02*
X151125000Y-72150000D01*
X157200000Y-111190000D02*
X157200000Y-109950000D01*
X170199997Y-133877504D02*
X170199997Y-135362502D01*
X170174998Y-136257506D02*
X170494997Y-136577505D01*
X132700000Y-86350000D02*
X132900000Y-86550000D01*
X144400000Y-69250000D02*
X141500000Y-72150000D01*
X150200000Y-97550000D02*
X150200000Y-98150000D01*
X152330000Y-134460000D02*
X152330000Y-135120000D01*
X170174998Y-135387501D02*
X169137501Y-135387501D01*
X168200000Y-92650000D02*
X166990000Y-93860000D01*
D77*
%TO.N,D-*%
X153450000Y-150000000D02*
X153450000Y-147200000D01*
X153670000Y-151060000D02*
X153670000Y-150220000D01*
X153500000Y-150050000D02*
X153450000Y-150000000D01*
X152670000Y-150285000D02*
X152670000Y-151060000D01*
X153450000Y-141605026D02*
X155350000Y-139705026D01*
X155350000Y-139705026D02*
X155350000Y-135590000D01*
X155010000Y-135250000D02*
X155010000Y-134440000D01*
X153450000Y-147200000D02*
X153450000Y-141605026D01*
X155350000Y-135590000D02*
X155010000Y-135250000D01*
X153500000Y-150050000D02*
X152905000Y-150050000D01*
X153450000Y-147200000D02*
X153120000Y-147200000D01*
X153670000Y-150220000D02*
X153500000Y-150050000D01*
X152905000Y-150050000D02*
X152670000Y-150285000D01*
%TO.N,D+*%
X153800000Y-147200000D02*
X153800000Y-141750000D01*
X155700000Y-135600000D02*
X156050000Y-135250000D01*
X154170000Y-150220000D02*
X153800000Y-149850000D01*
X153170000Y-151820000D02*
X153400000Y-152050000D01*
X156050000Y-135250000D02*
X156050000Y-134440000D01*
X154170000Y-151060000D02*
X154170000Y-150220000D01*
X155700000Y-139850000D02*
X155700000Y-135600000D01*
X153800000Y-147200000D02*
X153980000Y-147200000D01*
X153800000Y-149850000D02*
X153800000Y-147200000D01*
X154170000Y-151780000D02*
X154170000Y-151060000D01*
X153800000Y-141750000D02*
X155700000Y-139850000D01*
X153170000Y-151060000D02*
X153170000Y-151820000D01*
X153900000Y-152050000D02*
X154170000Y-151780000D01*
X153400000Y-152050000D02*
X153900000Y-152050000D01*
D76*
%TO.N,ADCVREF*%
X163650000Y-73650000D02*
X165350000Y-75350000D01*
X159400000Y-75300000D02*
X159400000Y-76010000D01*
X165350000Y-75350000D02*
X165350000Y-79550000D01*
X163470000Y-82100000D02*
X164050000Y-82100000D01*
X164450000Y-81700000D02*
X165325000Y-81700000D01*
X164050000Y-82100000D02*
X164450000Y-81700000D01*
%TO.N,Net-(U3-DACVREF)*%
X164450000Y-83300000D02*
X164700000Y-83550000D01*
X163470000Y-83300000D02*
X164450000Y-83300000D01*
X164700000Y-83550000D02*
X165345000Y-83550000D01*
%TO.N,Net-(U3-VMID)*%
X163470000Y-81530000D02*
X164225000Y-80775000D01*
X163470000Y-81700000D02*
X163470000Y-81530000D01*
X164225000Y-80775000D02*
X165350000Y-80775000D01*
%TO.N,+3.3VA*%
X163470000Y-82900000D02*
X164350000Y-82900000D01*
D75*
X167250000Y-88450000D02*
X165350000Y-86550000D01*
X164670000Y-91080000D02*
X163770000Y-91080000D01*
X165970000Y-92840000D02*
X165970000Y-91425000D01*
X165970000Y-91425000D02*
X165375000Y-91425000D01*
D76*
X164350000Y-82900000D02*
X164650000Y-82600000D01*
D75*
X165375000Y-91425000D02*
X165030000Y-91080000D01*
X163325000Y-91525000D02*
X162399999Y-91525000D01*
X166775000Y-91425000D02*
X167250000Y-90950000D01*
X167250000Y-90950000D02*
X167250000Y-88450000D01*
D76*
X164650000Y-82600000D02*
X165345000Y-82600000D01*
D75*
X165970000Y-91425000D02*
X166775000Y-91425000D01*
X165030000Y-91080000D02*
X164670000Y-91080000D01*
X163770000Y-91080000D02*
X163325000Y-91525000D01*
%TO.N,+1V8*%
X161449999Y-88340001D02*
X161940000Y-87850000D01*
D76*
X160600000Y-86850000D02*
X160600000Y-86350000D01*
D75*
X160945000Y-86855000D02*
X160595000Y-86855000D01*
D76*
X160600000Y-86350000D02*
X160870000Y-86080000D01*
D75*
X161449999Y-89250000D02*
X161449999Y-88340001D01*
X161940000Y-87850000D02*
X160945000Y-86855000D01*
D76*
X160870000Y-86080000D02*
X160870000Y-85100000D01*
%TO.N,Net-(U3-CPBOT)*%
X163500000Y-86500000D02*
X163200000Y-86800000D01*
X163250000Y-85100000D02*
X163500000Y-85350000D01*
X163500000Y-85350000D02*
X163500000Y-86500000D01*
X163200000Y-86800000D02*
X162900000Y-86800000D01*
X162870000Y-85100000D02*
X163250000Y-85100000D01*
%TO.N,Net-(U3-CPTOP)*%
X161270000Y-86130000D02*
X161940000Y-86800000D01*
X161270000Y-85100000D02*
X161270000Y-86130000D01*
%TO.N,/Codec/M2+*%
X161400000Y-77650000D02*
X161395000Y-77645000D01*
X161395000Y-77655000D02*
X161400000Y-77650000D01*
X161395000Y-77645000D02*
X161395000Y-77035000D01*
X161395000Y-78295000D02*
X161395000Y-77655000D01*
%TO.N,Net-(U3-MIC2P)*%
X161670000Y-81100000D02*
X161670000Y-79470000D01*
X161670000Y-79470000D02*
X161455000Y-79255000D01*
%TO.N,/Codec/M2-*%
X162345000Y-78295000D02*
X162345000Y-77695000D01*
X162345000Y-77605000D02*
X162345000Y-77085000D01*
X162345000Y-77695000D02*
X162300000Y-77650000D01*
X162300000Y-77650000D02*
X162345000Y-77605000D01*
%TO.N,Net-(U3-MIC2N)*%
X162070000Y-81100000D02*
X162070000Y-79530000D01*
X162070000Y-79530000D02*
X162345000Y-79255000D01*
%TO.N,/Codec/M1+*%
X159206800Y-69275000D02*
X157206800Y-69275000D01*
X163295000Y-78295000D02*
X163295000Y-77505000D01*
X160275000Y-72040686D02*
X160275000Y-70343200D01*
X162798529Y-85900000D02*
X162850000Y-85950000D01*
X155775000Y-67843200D02*
X155775000Y-65375000D01*
X163295000Y-77505000D02*
X163300000Y-77500000D01*
X162470000Y-85571471D02*
X162798529Y-85900000D01*
X157120000Y-64030000D02*
X158570000Y-64030000D01*
X160275000Y-70343200D02*
X159206800Y-69275000D01*
X157206800Y-69275000D02*
X155775000Y-67843200D01*
X163300000Y-77500000D02*
X163300000Y-75065686D01*
X155775000Y-65375000D02*
X157120000Y-64030000D01*
X163300000Y-75065686D02*
X160275000Y-72040686D01*
X162470000Y-85100000D02*
X162470000Y-85571471D01*
X162850000Y-85950000D02*
X162850000Y-85900000D01*
%TO.N,Net-(U3-MIC1P)*%
X163295000Y-79689314D02*
X163295000Y-79255000D01*
X162470000Y-80514314D02*
X163295000Y-79689314D01*
X162470000Y-81100000D02*
X162470000Y-80514314D01*
%TO.N,/Codec/M1-*%
X156225000Y-65650000D02*
X156525000Y-65350000D01*
X162000000Y-86050000D02*
X161900000Y-85950000D01*
X159393200Y-68825000D02*
X157393200Y-68825000D01*
X163995000Y-77195000D02*
X163995000Y-75195000D01*
X161900000Y-65350000D02*
X163220000Y-64030000D01*
X156525000Y-65350000D02*
X161900000Y-65350000D01*
X164245000Y-77445000D02*
X163995000Y-77195000D01*
X161900000Y-85950000D02*
X162000000Y-85950000D01*
X162000000Y-85950000D02*
X162000000Y-86050000D01*
X157393200Y-68825000D02*
X156225000Y-67656800D01*
X160725000Y-70156800D02*
X159393200Y-68825000D01*
X161670000Y-85720000D02*
X161900000Y-85950000D01*
X163220000Y-64030000D02*
X166070000Y-64030000D01*
X163995000Y-75195000D02*
X160725000Y-71925000D01*
X160725000Y-71925000D02*
X160725000Y-70156800D01*
X164245000Y-78295000D02*
X164245000Y-77445000D01*
X156225000Y-67656800D02*
X156225000Y-65650000D01*
X161670000Y-85100000D02*
X161670000Y-85720000D01*
%TO.N,Net-(U3-MIC1N)*%
X162870000Y-81100000D02*
X162870000Y-80680000D01*
X162870000Y-80680000D02*
X164245000Y-79305000D01*
%TO.N,Net-(U3-CPVSSP)*%
X164300000Y-85050711D02*
X164300000Y-86820000D01*
X163749289Y-84500000D02*
X164300000Y-85050711D01*
X163470000Y-84500000D02*
X163749289Y-84500000D01*
%TO.N,Net-(U3-HEADSET)*%
X159050000Y-86100000D02*
X159050000Y-86151471D01*
X159101471Y-86100000D02*
X159050000Y-86100000D01*
X159050000Y-86151471D02*
X158620000Y-86581471D01*
X160070000Y-85131471D02*
X159101471Y-86100000D01*
X158620000Y-86581471D02*
X158620000Y-86870000D01*
X167220000Y-77820000D02*
X167250000Y-77850000D01*
X167220000Y-77110000D02*
X167220000Y-77820000D01*
%TO.N,Net-(C27-Pad2)*%
X160400000Y-76045000D02*
X161365000Y-76045000D01*
X159410000Y-77035000D02*
X160400000Y-76045000D01*
D75*
%TO.N,BATT+*%
X164725000Y-146475000D02*
X164450000Y-146200000D01*
X149800000Y-140150000D02*
X150400000Y-140750000D01*
X166550000Y-152225000D02*
X165400000Y-152250000D01*
X149800000Y-139320000D02*
X149800000Y-140150000D01*
X166550000Y-152225000D02*
X166550000Y-147400000D01*
X149700000Y-148450000D02*
X148787500Y-148450000D01*
X150400000Y-147750000D02*
X149700000Y-148450000D01*
X150400000Y-140750000D02*
X150400000Y-147750000D01*
X148800000Y-149450000D02*
X148800000Y-148462500D01*
X150280000Y-138150000D02*
X149780000Y-138150000D01*
X162412500Y-153962500D02*
X162600000Y-154150000D01*
X163900000Y-146150000D02*
X163900000Y-145810000D01*
X164880000Y-151730000D02*
X164100000Y-151730000D01*
X163900000Y-145810000D02*
X164160000Y-145550000D01*
X164160000Y-145550000D02*
X164160000Y-144950000D01*
X165600000Y-146475000D02*
X164725000Y-146475000D01*
X162412500Y-153300000D02*
X162412500Y-153962500D01*
X149780000Y-138150000D02*
X149780000Y-139260000D01*
X165400000Y-152250000D02*
X165375000Y-152225000D01*
X164450000Y-146200000D02*
X163850000Y-146200000D01*
X166550000Y-147400000D02*
X165625000Y-146475000D01*
X165375000Y-152225000D02*
X164880000Y-151730000D01*
%TO.N,VBUS*%
X158850000Y-146200000D02*
X160400000Y-146200000D01*
X160400000Y-146200000D02*
X161200000Y-146200000D01*
X159100000Y-152750000D02*
X159100000Y-150350000D01*
X159100000Y-150350000D02*
X159900000Y-149550000D01*
D76*
X162412500Y-151800000D02*
X162412500Y-150362500D01*
D75*
X158500000Y-145350000D02*
X158500000Y-144350000D01*
D76*
X161900000Y-149850000D02*
X161710000Y-149850000D01*
D75*
X160387500Y-153300000D02*
X159650000Y-153300000D01*
D76*
X161410000Y-149550000D02*
X161200000Y-149550000D01*
D75*
X159600000Y-153250000D02*
X159100000Y-152750000D01*
X159650000Y-153300000D02*
X159600000Y-153250000D01*
D76*
X161710000Y-149850000D02*
X161410000Y-149550000D01*
D75*
X158100000Y-145750000D02*
X158500000Y-145350000D01*
X158637500Y-146412500D02*
X158850000Y-146200000D01*
X158100000Y-146412500D02*
X158100000Y-145750000D01*
X161200000Y-149550000D02*
X161200000Y-146200000D01*
D76*
X162412500Y-150362500D02*
X161900000Y-149850000D01*
D75*
X159900000Y-149550000D02*
X161200000Y-149550000D01*
X161200000Y-146200000D02*
X161900000Y-146200000D01*
X160387500Y-153300000D02*
X160387500Y-154337500D01*
X158100000Y-146412500D02*
X158637500Y-146412500D01*
%TO.N,/Power/Vin*%
X169979997Y-142950000D02*
X169979997Y-142190001D01*
X170420000Y-141749998D02*
X170420000Y-140317500D01*
X169979995Y-145579995D02*
X170350000Y-145950000D01*
X162400000Y-143850000D02*
X162400000Y-144350000D01*
X162550000Y-145600000D02*
X162550000Y-146200000D01*
X162700000Y-143550000D02*
X162400000Y-143850000D01*
X162400000Y-145450000D02*
X162550000Y-145600000D01*
X161300000Y-144350000D02*
X162400000Y-144350000D01*
X170350000Y-145950000D02*
X173200000Y-145950000D01*
X169979995Y-144449999D02*
X169979995Y-145579995D01*
X173200000Y-145950000D02*
X173949998Y-145200002D01*
X169979995Y-144449999D02*
X169979995Y-142950002D01*
X169979995Y-144449999D02*
X169300000Y-144449999D01*
X169300000Y-144449999D02*
X168400000Y-143550000D01*
X168400000Y-143550000D02*
X162700000Y-143550000D01*
X169979997Y-142190001D02*
X170420000Y-141749998D01*
X162400000Y-144350000D02*
X162400000Y-145450000D01*
X173949998Y-145200002D02*
X173949998Y-142997501D01*
%TO.N,Net-(C34-Pad1)*%
X161420000Y-154350000D02*
X161420000Y-155595000D01*
D76*
%TO.N,/Power/REG_EN*%
X172700000Y-140350000D02*
X172412500Y-140350000D01*
X173949998Y-141977501D02*
X172979998Y-141977501D01*
X167970000Y-123780000D02*
X167300000Y-124450000D01*
X173949998Y-133999998D02*
X173949998Y-141977501D01*
X167300000Y-127350000D02*
X173949998Y-133999998D01*
X167300000Y-124450000D02*
X167300000Y-127350000D01*
X172949998Y-142007501D02*
X172949998Y-140599998D01*
X172949998Y-140599998D02*
X172700000Y-140350000D01*
X169115000Y-123780000D02*
X167970000Y-123780000D01*
%TO.N,Net-(D4-K)*%
X163900000Y-155150000D02*
X163900000Y-155850000D01*
%TO.N,Net-(D5-K)*%
X164900000Y-155150000D02*
X164900000Y-155850000D01*
%TO.N,SD_DETECT*%
X143830000Y-91620000D02*
X146285000Y-91620000D01*
X147260000Y-114250000D02*
X147260000Y-112410000D01*
X142400000Y-95050000D02*
X142400000Y-93050000D01*
X147260000Y-112410000D02*
X145400000Y-110550000D01*
X146335000Y-91570000D02*
X148100000Y-91570000D01*
X142400000Y-93050000D02*
X143830000Y-91620000D01*
X145400000Y-110550000D02*
X145400000Y-98050000D01*
X145400000Y-98050000D02*
X142400000Y-95050000D01*
%TO.N,MISO*%
X137500000Y-79060000D02*
X137500000Y-79850000D01*
X145990000Y-112740000D02*
X145990000Y-114250000D01*
X133820000Y-83230000D02*
X134880000Y-83230000D01*
X134880000Y-83230000D02*
X134900000Y-83250000D01*
X137330000Y-79060000D02*
X136500000Y-78230000D01*
%TO.N,CLK*%
X141330000Y-79080000D02*
X140500000Y-78250000D01*
X141500000Y-79850000D02*
X141500000Y-79080000D01*
X133820000Y-85430000D02*
X134880000Y-85430000D01*
X152340000Y-108950000D02*
X152340000Y-114250000D01*
X134880000Y-85430000D02*
X134900000Y-85450000D01*
%TO.N,MOSI*%
X134850000Y-87650000D02*
X134900000Y-87650000D01*
X153600000Y-110950000D02*
X153610000Y-110960000D01*
X153610000Y-110960000D02*
X153610000Y-114250000D01*
X133820000Y-87630000D02*
X134870000Y-87630000D01*
X139330000Y-79080000D02*
X138500000Y-78250000D01*
X134870000Y-87630000D02*
X134850000Y-87650000D01*
X139500000Y-79850000D02*
X139500000Y-79080000D01*
%TO.N,SD_CS*%
X134420000Y-78230000D02*
X132050000Y-80600000D01*
X135330000Y-79060000D02*
X134500000Y-78230000D01*
X142180000Y-114250000D02*
X142180000Y-112770000D01*
X132680000Y-88730000D02*
X133820000Y-88730000D01*
X142180000Y-112770000D02*
X142200000Y-112750000D01*
X132050000Y-88100000D02*
X132680000Y-88730000D01*
X132050000Y-80600000D02*
X132050000Y-88100000D01*
X134500000Y-78230000D02*
X134420000Y-78230000D01*
D78*
%TO.N,/Power/VBUS_IN*%
X155670000Y-151780000D02*
X155670000Y-151060000D01*
X154900000Y-152550000D02*
X155670000Y-151780000D01*
X151900000Y-152550000D02*
X154900000Y-152550000D01*
D75*
X157462500Y-147987500D02*
X158100000Y-147987500D01*
X155970000Y-149480000D02*
X157462500Y-147987500D01*
D78*
X151170000Y-151820000D02*
X151900000Y-152550000D01*
X151170000Y-151060000D02*
X151170000Y-151820000D01*
D75*
X155970000Y-151060000D02*
X155970000Y-149480000D01*
D77*
%TO.N,T1*%
X160045000Y-121095000D02*
X157400000Y-121095000D01*
X165400000Y-126450000D02*
X160045000Y-121095000D01*
X165400000Y-131400000D02*
X165400000Y-126450000D01*
X164570000Y-132230000D02*
X165400000Y-131400000D01*
X164570000Y-133230000D02*
X164570000Y-132230000D01*
%TO.N,T2*%
X164550000Y-127100000D02*
X159815000Y-122365000D01*
X164070000Y-133230000D02*
X164070000Y-131830000D01*
X164070000Y-131830000D02*
X164550000Y-131350000D01*
X159815000Y-122365000D02*
X157400000Y-122365000D01*
X164550000Y-131350000D02*
X164550000Y-127100000D01*
%TO.N,T3*%
X163800000Y-131300000D02*
X163800000Y-127950000D01*
X163570000Y-131530000D02*
X163800000Y-131300000D01*
X163570000Y-133230000D02*
X163570000Y-131530000D01*
X163800000Y-127950000D02*
X159485000Y-123635000D01*
X159485000Y-123635000D02*
X157400000Y-123635000D01*
%TO.N,T4*%
X159355000Y-124905000D02*
X157400000Y-124905000D01*
X163070000Y-128620000D02*
X159355000Y-124905000D01*
X163070000Y-133230000D02*
X163070000Y-128620000D01*
%TO.N,T5*%
X162570000Y-133230000D02*
X162570000Y-129670000D01*
X162570000Y-129670000D02*
X159075000Y-126175000D01*
X159075000Y-126175000D02*
X157400000Y-126175000D01*
D79*
%TO.N,Net-(J2-PadR1)*%
X173000000Y-70950000D02*
X168680000Y-66630000D01*
X170500000Y-85450000D02*
X173000000Y-82950000D01*
X173000000Y-82950000D02*
X173000000Y-70950000D01*
X168680000Y-66630000D02*
X158570000Y-66630000D01*
X166365000Y-85450000D02*
X170500000Y-85450000D01*
%TO.N,Net-(J2-PadT)*%
X170000000Y-81631371D02*
X170000000Y-72450000D01*
X167131371Y-84500000D02*
X170000000Y-81631371D01*
X170000000Y-72450000D02*
X168180000Y-70630000D01*
X166365000Y-84500000D02*
X167131371Y-84500000D01*
X168180000Y-70630000D02*
X166070000Y-70630000D01*
D78*
%TO.N,/Codec/HP_Detect*%
X168190000Y-76090000D02*
X167220000Y-76090000D01*
X167220000Y-75170000D02*
X166070000Y-74020000D01*
X166070000Y-74020000D02*
X166070000Y-72630000D01*
X167220000Y-76090000D02*
X167220000Y-75170000D01*
D76*
%TO.N,/Power/CC1*%
X152170000Y-150120000D02*
X152000000Y-149950000D01*
X152170000Y-151060000D02*
X152170000Y-150120000D01*
X152000000Y-149950000D02*
X152000000Y-149200001D01*
%TO.N,/Power/CC2*%
X155170000Y-151060000D02*
X155170000Y-150080000D01*
X155250000Y-150000000D02*
X155250000Y-149210000D01*
X155170000Y-150080000D02*
X155250000Y-150000000D01*
%TO.N,/Power/PSEN_GATE*%
X167500000Y-148850000D02*
X167600000Y-148750000D01*
X167500000Y-149950000D02*
X167500000Y-148850000D01*
X167600000Y-148750000D02*
X167600000Y-147900000D01*
D75*
%TO.N,/Power/PSEN_DRIVE*%
X165250000Y-144250000D02*
X167600000Y-146600000D01*
X167600000Y-146950000D02*
X167600000Y-147250000D01*
X163140000Y-144510000D02*
X163400000Y-144250000D01*
X167600000Y-146600000D02*
X167600000Y-146950000D01*
X169329000Y-146929000D02*
X169350000Y-146950000D01*
X167621000Y-146929000D02*
X168475000Y-146929000D01*
X163400000Y-144250000D02*
X165250000Y-144250000D01*
X168475000Y-146929000D02*
X169329000Y-146929000D01*
X169350000Y-147250000D02*
X169350000Y-146600000D01*
X167600000Y-146950000D02*
X167621000Y-146929000D01*
X163140000Y-144950000D02*
X163140000Y-144510000D01*
X163200000Y-146200000D02*
X163200000Y-145010000D01*
%TO.N,Net-(Q3A-D2-Pad7)*%
X163210000Y-149170000D02*
X163860000Y-149170000D01*
X162202500Y-148099990D02*
X163569990Y-148099990D01*
X161910000Y-149170000D02*
X162560000Y-149170000D01*
X162560000Y-149170000D02*
X163210000Y-149170000D01*
D76*
%TO.N,DISPLAY_BACKLIGHT_EN*%
X148000000Y-94950000D02*
X147000000Y-95950000D01*
X151350000Y-92425000D02*
X152760001Y-92425000D01*
X147000000Y-110340000D02*
X148400000Y-111740000D01*
X151350000Y-92425000D02*
X151350000Y-93800000D01*
X151350000Y-93800000D02*
X150200000Y-94950000D01*
X147000000Y-95950000D02*
X147000000Y-110340000D01*
X148400000Y-111740000D02*
X148400000Y-114120000D01*
X150200000Y-94950000D02*
X148000000Y-94950000D01*
%TO.N,Net-(Q4-D)*%
X148400000Y-93050000D02*
X149025000Y-92425000D01*
X150050000Y-90675000D02*
X150300000Y-90675000D01*
X149025000Y-92425000D02*
X150700000Y-92425000D01*
X150300000Y-90675000D02*
X150700000Y-90675000D01*
X150700000Y-92425000D02*
X150700000Y-90675000D01*
X148000000Y-93050000D02*
X148400000Y-93050000D01*
D77*
%TO.N,/TD-*%
X154880000Y-133290000D02*
X154880000Y-131750000D01*
%TO.N,/TD+*%
X156150000Y-133320000D02*
X156150000Y-131750000D01*
D76*
%TO.N,SDA*%
X148530000Y-134180000D02*
X148530000Y-131750000D01*
X160470000Y-81100000D02*
X160470000Y-80559489D01*
X159884251Y-79973740D02*
X159470000Y-79559489D01*
X151125000Y-74525000D02*
X151100000Y-74550000D01*
X148530000Y-127980000D02*
X148530000Y-131750000D01*
X149280000Y-134930000D02*
X148530000Y-134180000D01*
X159470000Y-79559489D02*
X159470000Y-79285000D01*
X149280000Y-136150000D02*
X149280000Y-134930000D01*
X160470000Y-80559489D02*
X159884251Y-79973740D01*
X151125000Y-73650000D02*
X151125000Y-74525000D01*
X148500000Y-127950000D02*
X148530000Y-127980000D01*
%TO.N,SCL*%
X151900000Y-76820000D02*
X154365000Y-79285000D01*
X159450000Y-81100000D02*
X158520000Y-80170000D01*
X152900000Y-80750000D02*
X154365000Y-79285000D01*
X152900000Y-81450000D02*
X152900000Y-80750000D01*
X149800000Y-131750000D02*
X149800000Y-130250000D01*
X151900000Y-73450000D02*
X151900000Y-76820000D01*
X154365000Y-79285000D02*
X158520000Y-79285000D01*
X160070000Y-81100000D02*
X159450000Y-81100000D01*
X151125000Y-73150000D02*
X151600000Y-73150000D01*
X149800000Y-136130000D02*
X149800000Y-131750000D01*
X151600000Y-73150000D02*
X151900000Y-73450000D01*
X158520000Y-80170000D02*
X158520000Y-79285000D01*
%TO.N,Net-(U3-CE)*%
X160870000Y-81100000D02*
X160870000Y-79760000D01*
X160870000Y-79760000D02*
X160420000Y-79310000D01*
%TO.N,HEADSET_INT*%
X160470000Y-85580000D02*
X160470000Y-85100000D01*
X153610000Y-131750000D02*
X153610000Y-130260000D01*
X160000000Y-86050000D02*
X160470000Y-85580000D01*
X159595000Y-86825000D02*
X159595000Y-86455000D01*
X159595000Y-86455000D02*
X160000000Y-86050000D01*
X153610000Y-130260000D02*
X153600000Y-130250000D01*
%TO.N,Net-(U3-LOUT)*%
X164100000Y-83700000D02*
X164900000Y-84500000D01*
X164900000Y-84500000D02*
X165345000Y-84500000D01*
X163470000Y-83700000D02*
X164100000Y-83700000D01*
%TO.N,Net-(U3-ROUT)*%
X163470000Y-84100000D02*
X163914975Y-84100000D01*
X163914975Y-84100000D02*
X165264975Y-85450000D01*
%TO.N,/Power/STBY*%
X163250000Y-152800000D02*
X163900000Y-153450000D01*
X163900000Y-153450000D02*
X163900000Y-154130000D01*
X162412500Y-152800000D02*
X163250000Y-152800000D01*
%TO.N,/Power/CHRG*%
X164900000Y-153150000D02*
X164900000Y-154130000D01*
X162422500Y-152310000D02*
X164060000Y-152310000D01*
X164060000Y-152310000D02*
X164900000Y-153150000D01*
%TO.N,/Power/PROG*%
X159600000Y-151240000D02*
X159600000Y-152050000D01*
X159600000Y-152050000D02*
X159850000Y-152300000D01*
X159850000Y-152300000D02*
X160387500Y-152300000D01*
X160290000Y-150550000D02*
X159600000Y-151240000D01*
%TO.N,Net-(U8-LEDA)*%
X148270000Y-96680000D02*
X148300000Y-96650000D01*
X148270000Y-97550000D02*
X148270000Y-96680000D01*
%TO.N,DISPLAY_RESET*%
X154880000Y-112880000D02*
X154880000Y-114250000D01*
X154880000Y-112880000D02*
X154880000Y-112340000D01*
%TO.N,RTC_INT*%
X152340000Y-127950000D02*
X152340000Y-131750000D01*
X152300000Y-79050000D02*
X148800000Y-79050000D01*
X152330000Y-133440000D02*
X152330000Y-131760000D01*
X147200000Y-73712500D02*
X147762500Y-73150000D01*
X147762500Y-73150000D02*
X148300000Y-73150000D01*
X148800000Y-79050000D02*
X147200000Y-77450000D01*
X147200000Y-77450000D02*
X147200000Y-73712500D01*
%TO.N,FUEL_INT*%
X151070000Y-133380000D02*
X151070000Y-131750000D01*
X150780000Y-136150000D02*
X150780000Y-133670000D01*
X150780000Y-133670000D02*
X151070000Y-133380000D01*
D77*
%TO.N,T6*%
X162070000Y-130620000D02*
X162070000Y-133230000D01*
X158895000Y-127445000D02*
X162070000Y-130620000D01*
X157400000Y-127445000D02*
X158895000Y-127445000D01*
D76*
%TO.N,SDOUT*%
X157700000Y-90650000D02*
X157700000Y-86350000D01*
X159207746Y-85042254D02*
X159470000Y-84780000D01*
X157400000Y-119825000D02*
X161175000Y-119825000D01*
X157700000Y-86350000D02*
X159007746Y-85042254D01*
X163700000Y-96650000D02*
X157700000Y-90650000D01*
X161175000Y-119825000D02*
X163700000Y-117300000D01*
X163700000Y-117300000D02*
X163700000Y-96650000D01*
X159470000Y-84780000D02*
X159470000Y-84500000D01*
X159007746Y-85042254D02*
X159207746Y-85042254D01*
%TO.N,LRCK*%
X162400000Y-97450000D02*
X162400000Y-117100000D01*
X159470000Y-84100000D02*
X158993626Y-84100000D01*
X160945000Y-118555000D02*
X157400000Y-118555000D01*
X158993626Y-84100000D02*
X156700000Y-86393626D01*
X156700000Y-91750000D02*
X162400000Y-97450000D01*
X162400000Y-117100000D02*
X160945000Y-118555000D01*
X156700000Y-86393626D02*
X156700000Y-91750000D01*
%TO.N,SDIN*%
X156865686Y-84650000D02*
X157877940Y-84650000D01*
X159315000Y-117285000D02*
X161000000Y-115600000D01*
X158827940Y-83700000D02*
X159470000Y-83700000D01*
X161000000Y-115600000D02*
X161000000Y-98150000D01*
X157400000Y-117285000D02*
X159315000Y-117285000D01*
X157877940Y-84650000D02*
X158827940Y-83700000D01*
X161000000Y-98150000D02*
X155700000Y-92850000D01*
X155700000Y-85815686D02*
X156865686Y-84650000D01*
X155700000Y-92850000D02*
X155700000Y-85815686D01*
%TO.N,SCLK*%
X158100000Y-83750000D02*
X156400000Y-83750000D01*
X159470000Y-83300000D02*
X158550000Y-83300000D01*
X159600000Y-112900000D02*
X157400000Y-115100000D01*
X154700000Y-85450000D02*
X154700000Y-93850000D01*
X157400000Y-115100000D02*
X157400000Y-116015000D01*
X156400000Y-83750000D02*
X154700000Y-85450000D01*
X154700000Y-93850000D02*
X159600000Y-98750000D01*
X159600000Y-98750000D02*
X159600000Y-112900000D01*
X158550000Y-83300000D02*
X158100000Y-83750000D01*
%TO.N,MCLK*%
X158950000Y-81700000D02*
X159470000Y-81700000D01*
X158200000Y-80950000D02*
X158950000Y-81700000D01*
X156565000Y-128715000D02*
X157400000Y-128715000D01*
X155500000Y-127650000D02*
X156565000Y-128715000D01*
X155900000Y-80950000D02*
X158200000Y-80950000D01*
X155500000Y-125550000D02*
X155500000Y-127650000D01*
%TO.N,DISPLAY_CS*%
X151070000Y-111800000D02*
X151070000Y-114250000D01*
%TO.N,DISPLAY_DC*%
X149800000Y-110050000D02*
X149200000Y-109450000D01*
X149800000Y-114250000D02*
X149800000Y-110050000D01*
%TO.N,Net-(U2-TXD0)*%
X143450000Y-112000000D02*
X141600000Y-110150000D01*
X143450000Y-114250000D02*
X143450000Y-112000000D01*
X141600000Y-110150000D02*
X141600000Y-108350000D01*
%TO.N,Net-(U2-RXD0)*%
X144720000Y-114250000D02*
X144720000Y-111370000D01*
X144200000Y-110850000D02*
X144200000Y-105550000D01*
X144720000Y-111370000D02*
X144200000Y-110850000D01*
X144200000Y-105550000D02*
X141600000Y-102950000D01*
%TO.N,/Peripherals/OSCI*%
X148300000Y-72150000D02*
X147500000Y-72150000D01*
X147500000Y-72150000D02*
X146550000Y-71200000D01*
%TO.N,/Peripherals/OSCO*%
X148300000Y-72650000D02*
X146462500Y-72650000D01*
%TO.N,Net-(U10-CLKOUT)*%
X151900000Y-72650000D02*
X154200000Y-74950000D01*
X151125000Y-72650000D02*
X151900000Y-72650000D01*
%TD*%
M02*
