%TF.GenerationSoftware,KiCad,Pcbnew,7.0.2-0*%
%TF.CreationDate,2023-08-13T19:41:18+08:00*%
%TF.ProjectId,Wheel,57686565-6c2e-46b6-9963-61645f706362,rev?*%
%TF.SameCoordinates,Original*%
%TF.FileFunction,Legend,Top*%
%TF.FilePolarity,Positive*%
%FSLAX46Y46*%
G04 Gerber Fmt 4.6, Leading zero omitted, Abs format (unit mm)*
G04 Created by KiCad (PCBNEW 7.0.2-0) date 2023-08-13 19:41:18*
%MOMM*%
%LPD*%
G01*
G04 APERTURE LIST*
%ADD10C,0.150000*%
%ADD11C,0.200000*%
%ADD12C,0.100000*%
G04 APERTURE END LIST*
D10*
X224801768Y-119530343D02*
G75*
G03*
X224801768Y-119530343I-6249999J0D01*
G01*
D11*
X216950282Y-100300000D02*
G75*
G03*
X216950282Y-100300000I-17725282J0D01*
G01*
D10*
G36*
X192904082Y-86938743D02*
G01*
X193899860Y-86938743D01*
X194587159Y-88897327D01*
X194595952Y-88897327D01*
X195288381Y-86938743D01*
X196280495Y-86938743D01*
X196280495Y-89940000D01*
X195621772Y-89940000D01*
X195621772Y-87638499D01*
X195613712Y-87638499D01*
X194828227Y-89940000D01*
X194326308Y-89940000D01*
X193570865Y-87638499D01*
X193562072Y-87638499D01*
X193562072Y-89940000D01*
X192904082Y-89940000D01*
X192904082Y-86938743D01*
G37*
G36*
X196891591Y-86938743D02*
G01*
X198921981Y-86938743D01*
X198921981Y-87548374D01*
X197550314Y-87548374D01*
X197550314Y-88111109D01*
X198845778Y-88111109D01*
X198845778Y-88720739D01*
X197550314Y-88720739D01*
X197550314Y-89330369D01*
X198998185Y-89330369D01*
X198998185Y-89940000D01*
X196891591Y-89940000D01*
X196891591Y-86938743D01*
G37*
G36*
X199510362Y-86938743D02*
G01*
X200405024Y-86938743D01*
X201674842Y-89024089D01*
X201683635Y-89024089D01*
X201683635Y-86938743D01*
X202342358Y-86938743D01*
X202342358Y-89940000D01*
X201481402Y-89940000D01*
X200177145Y-87803363D01*
X200168353Y-87803363D01*
X200168353Y-89940000D01*
X199510362Y-89940000D01*
X199510362Y-86938743D01*
G37*
G36*
X205452791Y-88793279D02*
G01*
X205452476Y-88826639D01*
X205451531Y-88859671D01*
X205449957Y-88892378D01*
X205447753Y-88924758D01*
X205444920Y-88956812D01*
X205441456Y-88988540D01*
X205437363Y-89019941D01*
X205432641Y-89051017D01*
X205427288Y-89081765D01*
X205421306Y-89112188D01*
X205414695Y-89142284D01*
X205407453Y-89172054D01*
X205399582Y-89201498D01*
X205391081Y-89230615D01*
X205381951Y-89259406D01*
X205372191Y-89287871D01*
X205361901Y-89315849D01*
X205350999Y-89343364D01*
X205339484Y-89370415D01*
X205321064Y-89410122D01*
X205301265Y-89448785D01*
X205280088Y-89486405D01*
X205257533Y-89522983D01*
X205233600Y-89558516D01*
X205208288Y-89593007D01*
X205181599Y-89626454D01*
X205153531Y-89658858D01*
X205134054Y-89679881D01*
X205103689Y-89710430D01*
X205071947Y-89739704D01*
X205038826Y-89767703D01*
X205004327Y-89794427D01*
X204968449Y-89819876D01*
X204943766Y-89836133D01*
X204918469Y-89851824D01*
X204892560Y-89866948D01*
X204866039Y-89881505D01*
X204838905Y-89895496D01*
X204811159Y-89908919D01*
X204782800Y-89921776D01*
X204753829Y-89934067D01*
X204739113Y-89940000D01*
X204709340Y-89951357D01*
X204679007Y-89961981D01*
X204648112Y-89971873D01*
X204616656Y-89981032D01*
X204584639Y-89989459D01*
X204552061Y-89997152D01*
X204518923Y-90004113D01*
X204485223Y-90010341D01*
X204450962Y-90015837D01*
X204416140Y-90020600D01*
X204380757Y-90024630D01*
X204344814Y-90027927D01*
X204308309Y-90030491D01*
X204271243Y-90032323D01*
X204233616Y-90033422D01*
X204195429Y-90033789D01*
X204156706Y-90033422D01*
X204118572Y-90032323D01*
X204081029Y-90030491D01*
X204044074Y-90027927D01*
X204007710Y-90024630D01*
X203971935Y-90020600D01*
X203936750Y-90015837D01*
X203902154Y-90010341D01*
X203868148Y-90004113D01*
X203834732Y-89997152D01*
X203801905Y-89989459D01*
X203769668Y-89981032D01*
X203738020Y-89971873D01*
X203706962Y-89961981D01*
X203676494Y-89951357D01*
X203646615Y-89940000D01*
X203617426Y-89927992D01*
X203588844Y-89915419D01*
X203560869Y-89902278D01*
X203533500Y-89888571D01*
X203506738Y-89874297D01*
X203480583Y-89859457D01*
X203455035Y-89844049D01*
X203430094Y-89828075D01*
X203405759Y-89811534D01*
X203370395Y-89785661D01*
X203336396Y-89758512D01*
X203303762Y-89730088D01*
X203272494Y-89700389D01*
X203252407Y-89679881D01*
X203223414Y-89648172D01*
X203195787Y-89615421D01*
X203169524Y-89581626D01*
X203144627Y-89546788D01*
X203121095Y-89510906D01*
X203098929Y-89473981D01*
X203078128Y-89436013D01*
X203058692Y-89397002D01*
X203040621Y-89356947D01*
X203029333Y-89329665D01*
X203018651Y-89301918D01*
X203013538Y-89287871D01*
X203003866Y-89259406D01*
X202994819Y-89230615D01*
X202986395Y-89201498D01*
X202978596Y-89172054D01*
X202971420Y-89142284D01*
X202964868Y-89112188D01*
X202958941Y-89081765D01*
X202953637Y-89051017D01*
X202948957Y-89019941D01*
X202944901Y-88988540D01*
X202941470Y-88956812D01*
X202938662Y-88924758D01*
X202936478Y-88892378D01*
X202934918Y-88859671D01*
X202933982Y-88826639D01*
X202933670Y-88793279D01*
X202933670Y-86938743D01*
X203591660Y-86938743D01*
X203591660Y-88770565D01*
X203592347Y-88805575D01*
X203594408Y-88839899D01*
X203597843Y-88873536D01*
X203602651Y-88906486D01*
X203608834Y-88938749D01*
X203616390Y-88970325D01*
X203625320Y-89001214D01*
X203635624Y-89031416D01*
X203647348Y-89060782D01*
X203660170Y-89089164D01*
X203674092Y-89116561D01*
X203689113Y-89142974D01*
X203705233Y-89168402D01*
X203722452Y-89192845D01*
X203740771Y-89216304D01*
X203760188Y-89238778D01*
X203780819Y-89259982D01*
X203802411Y-89279994D01*
X203824966Y-89298816D01*
X203848482Y-89316448D01*
X203872959Y-89332888D01*
X203898399Y-89348138D01*
X203924800Y-89362197D01*
X203952163Y-89375066D01*
X203980487Y-89386572D01*
X204009407Y-89396544D01*
X204038922Y-89404982D01*
X204069033Y-89411885D01*
X204099739Y-89417255D01*
X204131040Y-89421090D01*
X204162937Y-89423392D01*
X204195429Y-89424159D01*
X204227715Y-89423392D01*
X204259359Y-89421090D01*
X204290363Y-89417255D01*
X204320725Y-89411885D01*
X204350447Y-89404982D01*
X204379527Y-89396544D01*
X204407966Y-89386572D01*
X204435764Y-89375066D01*
X204462772Y-89362197D01*
X204488841Y-89348138D01*
X204513971Y-89332888D01*
X204544064Y-89312151D01*
X204572689Y-89289554D01*
X204599848Y-89265096D01*
X204620519Y-89244191D01*
X204625540Y-89238778D01*
X204645118Y-89216304D01*
X204663551Y-89192845D01*
X204680838Y-89168402D01*
X204696981Y-89142974D01*
X204711979Y-89116561D01*
X204725833Y-89089164D01*
X204738541Y-89060782D01*
X204750104Y-89031416D01*
X204760580Y-89001214D01*
X204769659Y-88970325D01*
X204777341Y-88938749D01*
X204783627Y-88906486D01*
X204788515Y-88873536D01*
X204792007Y-88839899D01*
X204794102Y-88805575D01*
X204794801Y-88770565D01*
X204794801Y-86938743D01*
X205452791Y-86938743D01*
X205452791Y-88793279D01*
G37*
%TO.C,G\u002A\u002A\u002A*%
G36*
X200875167Y-113137686D02*
G01*
X200881019Y-113997100D01*
X200876781Y-114667107D01*
X200862070Y-115158857D01*
X200836499Y-115483500D01*
X200799684Y-115652185D01*
X200787578Y-115672666D01*
X200617421Y-115761165D01*
X200333831Y-115808015D01*
X200245850Y-115810672D01*
X199945977Y-115779430D01*
X199735345Y-115700376D01*
X199704122Y-115672666D01*
X199664157Y-115544785D01*
X199635543Y-115264002D01*
X199617893Y-114819168D01*
X199610823Y-114199134D01*
X199613947Y-113392749D01*
X199616533Y-113137686D01*
X199643478Y-110740712D01*
X200245850Y-110740712D01*
X200848222Y-110740712D01*
X200875167Y-113137686D01*
G37*
G36*
X202742653Y-110729266D02*
G01*
X202771260Y-110735639D01*
X203006720Y-110794735D01*
X203006720Y-113198776D01*
X203005908Y-113955922D01*
X203002200Y-114536959D01*
X202993684Y-114966568D01*
X202978449Y-115269427D01*
X202954585Y-115470218D01*
X202920180Y-115593619D01*
X202873324Y-115664310D01*
X202812529Y-115706745D01*
X202540315Y-115789815D01*
X202222491Y-115804592D01*
X201944754Y-115753994D01*
X201812423Y-115672666D01*
X201772458Y-115544785D01*
X201743843Y-115264002D01*
X201726193Y-114819168D01*
X201719123Y-114199134D01*
X201722248Y-113392749D01*
X201724833Y-113137686D01*
X201751779Y-110740712D01*
X202143790Y-110708627D01*
X202466367Y-110702411D01*
X202742653Y-110729266D01*
G37*
D12*
%TO.C,mouse-bite-2mm-slot*%
X213602022Y-111752169D02*
G75*
G03*
X215016235Y-113166382I707107J-707106D01*
G01*
X212187808Y-115994809D02*
G75*
G03*
X210773595Y-114580596I-707107J707106D01*
G01*
%TO.C,G\u002A\u002A\u002A*%
G36*
X185420248Y-100234932D02*
G01*
X185394275Y-102591546D01*
X185029946Y-102621681D01*
X184740782Y-102609691D01*
X184616046Y-102522636D01*
X184602952Y-102392055D01*
X184593421Y-102096811D01*
X184587745Y-101666108D01*
X184586214Y-101129149D01*
X184589120Y-100515137D01*
X184592589Y-100165783D01*
X184618702Y-97938110D01*
X185032462Y-97908215D01*
X185446221Y-97878319D01*
X185420248Y-100234932D01*
G37*
G36*
X188835878Y-100211165D02*
G01*
X188834545Y-100860419D01*
X188830801Y-101440122D01*
X188825028Y-101923809D01*
X188817605Y-102285017D01*
X188808914Y-102497280D01*
X188802296Y-102543072D01*
X188720739Y-102483747D01*
X188517570Y-102320011D01*
X188218744Y-102073220D01*
X187850219Y-101764733D01*
X187614700Y-101565901D01*
X187202263Y-101215265D01*
X186830827Y-100896890D01*
X186531009Y-100637212D01*
X186333429Y-100462673D01*
X186282261Y-100415316D01*
X186225689Y-100349477D01*
X186210576Y-100278259D01*
X186253934Y-100182256D01*
X186372774Y-100042063D01*
X186584108Y-99838272D01*
X186904947Y-99551479D01*
X187352305Y-99162277D01*
X187469856Y-99060580D01*
X188835878Y-97879257D01*
X188835878Y-100211165D01*
G37*
G36*
X196535114Y-111160470D02*
G01*
X196720749Y-111317290D01*
X197015411Y-111567233D01*
X197382822Y-111879488D01*
X197786709Y-112223242D01*
X197910338Y-112328564D01*
X198975225Y-113235970D01*
X197656703Y-114368094D01*
X197233628Y-114728811D01*
X196860574Y-115042044D01*
X196561450Y-115288112D01*
X196360168Y-115447330D01*
X196281478Y-115500218D01*
X196265702Y-115409072D01*
X196251614Y-115152998D01*
X196239856Y-114758042D01*
X196231071Y-114250253D01*
X196225900Y-113655675D01*
X196224775Y-113200000D01*
X196224775Y-110899782D01*
X196535114Y-111160470D01*
G37*
G36*
X213659218Y-97906664D02*
G01*
X213783954Y-97993719D01*
X213797048Y-98124300D01*
X213806579Y-98419544D01*
X213812255Y-98850247D01*
X213813786Y-99387206D01*
X213810880Y-100001218D01*
X213807411Y-100350572D01*
X213781298Y-102578245D01*
X213367538Y-102608140D01*
X212953779Y-102638036D01*
X212979752Y-100281423D01*
X213005725Y-97924809D01*
X213370054Y-97894674D01*
X213659218Y-97906664D01*
G37*
G36*
X209679261Y-98032608D02*
G01*
X209882430Y-98196344D01*
X210181256Y-98443135D01*
X210549781Y-98751622D01*
X210785300Y-98950454D01*
X211197737Y-99301090D01*
X211569173Y-99619465D01*
X211868991Y-99879143D01*
X212066571Y-100053682D01*
X212117739Y-100101039D01*
X212174311Y-100166878D01*
X212189424Y-100238096D01*
X212146066Y-100334099D01*
X212027226Y-100474292D01*
X211815892Y-100678083D01*
X211495053Y-100964876D01*
X211047695Y-101354078D01*
X210930144Y-101455775D01*
X209564122Y-102637098D01*
X209564122Y-100305190D01*
X209565455Y-99655936D01*
X209569199Y-99076233D01*
X209574972Y-98592546D01*
X209582395Y-98231338D01*
X209591086Y-98019075D01*
X209597704Y-97973283D01*
X209679261Y-98032608D01*
G37*
%TD*%
M02*
