%TF.GenerationSoftware,KiCad,Pcbnew,7.0.2-0*%
%TF.CreationDate,2023-08-14T19:33:42+08:00*%
%TF.ProjectId,Top:bottom_plate,546f703a-626f-4747-946f-6d5f706c6174,rev?*%
%TF.SameCoordinates,Original*%
%TF.FileFunction,Profile,NP*%
%FSLAX46Y46*%
G04 Gerber Fmt 4.6, Leading zero omitted, Abs format (unit mm)*
G04 Created by KiCad (PCBNEW 7.0.2-0) date 2023-08-14 19:33:42*
%MOMM*%
%LPD*%
G01*
G04 APERTURE LIST*
%TA.AperFunction,Profile*%
%ADD10C,0.100000*%
%TD*%
G04 APERTURE END LIST*
D10*
X151000000Y-134350000D02*
X153015001Y-134350000D01*
X153015001Y-44600000D02*
X151000000Y-44600000D01*
X156304887Y-139048488D02*
X156720896Y-139179650D01*
X197550535Y-137885534D02*
X197845223Y-137563938D01*
X199015001Y-44600000D02*
X198995966Y-44164224D01*
X154479467Y-41064466D02*
X154184779Y-41386062D01*
X156304900Y-39901537D02*
X155901910Y-40068461D01*
X180595155Y-39600000D02*
X178595155Y-39598379D01*
X198345128Y-136850000D02*
X198546540Y-136463091D01*
X198713464Y-136060101D02*
X198844630Y-135644095D01*
X157579222Y-39619027D02*
X157146760Y-39675961D01*
X153483462Y-42486909D02*
X153316538Y-42889899D01*
X158015001Y-39600000D02*
X157579222Y-39619027D01*
X155901910Y-40068461D02*
X155515001Y-40269873D01*
X195725088Y-39901562D02*
X195309087Y-39770392D01*
X194015001Y-139350000D02*
X194450780Y-139330973D01*
X194883236Y-39675976D02*
X194450777Y-39619035D01*
X197845193Y-41386089D02*
X197550506Y-41064495D01*
X157579220Y-139330982D02*
X158015001Y-139350000D01*
X198844630Y-135644095D02*
X198939040Y-135218241D01*
X155515001Y-40269873D02*
X155147119Y-40504240D01*
X196285001Y-43400000D02*
G75*
G03*
X196285001Y-43400000I-1100000J0D01*
G01*
X198110761Y-137217882D02*
X198345128Y-136850000D01*
X157146754Y-139274054D02*
X157579220Y-139330982D01*
X197228912Y-40769808D02*
X196882859Y-40504271D01*
X196514980Y-40269903D02*
X196128075Y-40068489D01*
X153015001Y-134350000D02*
X153034019Y-134785781D01*
X153090947Y-135218247D02*
X153185351Y-135644105D01*
X194450777Y-39619035D02*
X194015001Y-39600000D01*
X153034028Y-44164221D02*
X153015001Y-44600000D01*
X198995974Y-134785779D02*
X199015001Y-134350000D01*
X198110730Y-41732142D02*
X197845193Y-41386089D01*
X196128075Y-40068489D02*
X195725088Y-39901562D01*
X153483434Y-136463109D02*
X153684844Y-136850021D01*
X153090962Y-43731759D02*
X153034028Y-44164221D01*
X154184748Y-137563965D02*
X154479438Y-137885563D01*
X199015001Y-134350000D02*
X199015001Y-44600000D01*
X154184779Y-41386062D02*
X153919241Y-41732118D01*
X196128092Y-138881539D02*
X196515001Y-138680127D01*
X153316513Y-136060114D02*
X153483434Y-136463109D01*
X198995966Y-44164224D02*
X198939025Y-43731765D01*
X154801063Y-40769778D02*
X154479467Y-41064466D01*
X178595155Y-39598379D02*
X178594548Y-39600000D01*
X153316538Y-42889899D02*
X153185372Y-43305905D01*
X155147119Y-40504240D02*
X154801063Y-40769778D01*
X198713439Y-42889913D02*
X198546512Y-42486926D01*
X195309087Y-39770392D02*
X194883236Y-39675976D01*
X195309096Y-139179629D02*
X195725102Y-139048463D01*
X153185351Y-135644105D02*
X153316513Y-136060114D01*
X153919210Y-137217907D02*
X154184748Y-137563965D01*
X178594548Y-39600000D02*
X158015001Y-39600000D01*
X198546512Y-42486926D02*
X198345098Y-42100021D01*
X156720906Y-39770371D02*
X156304900Y-39901537D01*
X198939040Y-135218241D02*
X198995974Y-134785779D01*
X198939025Y-43731765D02*
X198844609Y-43305914D01*
X194015001Y-39600000D02*
X180595155Y-39600000D01*
X196285001Y-135550000D02*
G75*
G03*
X196285001Y-135550000I-1100000J0D01*
G01*
X156720896Y-139179650D02*
X157146754Y-139274054D01*
X154801036Y-138180253D02*
X155147094Y-138445791D01*
X157146760Y-39675961D02*
X156720906Y-39770371D01*
X196882883Y-138445760D02*
X197228939Y-138180222D01*
X195725102Y-139048463D02*
X196128092Y-138881539D01*
X194883242Y-139274039D02*
X195309096Y-139179629D01*
X155901892Y-138881567D02*
X156304887Y-139048488D01*
X194450780Y-139330973D02*
X194883242Y-139274039D01*
X197550506Y-41064495D02*
X197228912Y-40769808D01*
X153034019Y-134785781D02*
X153090947Y-135218247D01*
X154479438Y-137885563D02*
X154801036Y-138180253D01*
X197228939Y-138180222D02*
X197550535Y-137885534D01*
X157945001Y-43400000D02*
G75*
G03*
X157945001Y-43400000I-1100000J0D01*
G01*
X158015001Y-139350000D02*
X194015001Y-139350000D01*
X196515001Y-138680127D02*
X196882883Y-138445760D01*
X155147094Y-138445791D02*
X155514980Y-138680157D01*
X157945001Y-135550000D02*
G75*
G03*
X157945001Y-135550000I-1100000J0D01*
G01*
X197845223Y-137563938D02*
X198110761Y-137217882D01*
X155514980Y-138680157D02*
X155901892Y-138881567D01*
X198546540Y-136463091D02*
X198713464Y-136060101D01*
X153684874Y-42100000D02*
X153483462Y-42486909D01*
X198345098Y-42100021D02*
X198110730Y-41732142D01*
X196882859Y-40504271D02*
X196514980Y-40269903D01*
X198844609Y-43305914D02*
X198713439Y-42889913D01*
X153185372Y-43305905D02*
X153090962Y-43731759D01*
X153684844Y-136850021D02*
X153919210Y-137217907D01*
X153919241Y-41732118D02*
X153684874Y-42100000D01*
X106786089Y-40769808D02*
X106464495Y-41064495D01*
X105301537Y-136060101D02*
X105468461Y-136463091D01*
X108705905Y-139179629D02*
X109131759Y-139274039D01*
X146868247Y-139274054D02*
X147294105Y-139179650D01*
X107500000Y-138680127D02*
X107886909Y-138881539D01*
X148500021Y-138680157D02*
X148867907Y-138445791D01*
X149213938Y-40769778D02*
X148867882Y-40504240D01*
X105019027Y-134785779D02*
X105075961Y-135218241D01*
X148867882Y-40504240D02*
X148500000Y-40269873D01*
X109131765Y-39675976D02*
X108705914Y-39770392D01*
X146868241Y-39675961D02*
X146435779Y-39619027D01*
X147294095Y-39770371D02*
X146868241Y-39675961D01*
X107886926Y-40068489D02*
X107500021Y-40269903D01*
X149535534Y-41064466D02*
X149213938Y-40769778D01*
X105075961Y-135218241D02*
X105170371Y-135644095D01*
X150980982Y-134785781D02*
X151000000Y-134350000D01*
X147710114Y-139048488D02*
X148113109Y-138881567D01*
X105669873Y-136850000D02*
X105904240Y-137217882D01*
X147710101Y-39901537D02*
X147294095Y-39770371D01*
X113919845Y-46598445D02*
G75*
G03*
X111419845Y-49098379I-45J-2499955D01*
G01*
X149213965Y-138180253D02*
X149535563Y-137885563D01*
X149535563Y-137885563D02*
X149830253Y-137563965D01*
X110000000Y-39600000D02*
X109564224Y-39619035D01*
X105669903Y-42100021D02*
X105468489Y-42486926D01*
X107500021Y-40269903D02*
X107132142Y-40504271D01*
X146000000Y-39600000D02*
X110000000Y-39600000D01*
X142103886Y-89861686D02*
G75*
G03*
X144603886Y-87361669I14J2499986D01*
G01*
X112670735Y-43179966D02*
G75*
G03*
X112670735Y-43179966I-490688J0D01*
G01*
X113919845Y-46598379D02*
X142103886Y-46598379D01*
X109131759Y-139274039D02*
X109564221Y-139330973D01*
X105000000Y-134350000D02*
X105019027Y-134785779D01*
X109930000Y-135550000D02*
G75*
G03*
X109930000Y-135550000I-1100000J0D01*
G01*
X147294105Y-139179650D02*
X147710114Y-139048488D01*
X105019035Y-44164224D02*
X105000000Y-44600000D01*
X105075976Y-43731765D02*
X105019035Y-44164224D01*
X108705914Y-39770392D02*
X108289913Y-39901562D01*
X106169778Y-137563938D02*
X106464466Y-137885534D01*
X148113091Y-40068461D02*
X147710101Y-39901537D01*
X108289899Y-139048463D02*
X108705905Y-139179629D01*
X106464495Y-41064495D02*
X106169808Y-41386089D01*
X106464466Y-137885534D02*
X106786062Y-138180222D01*
X148500000Y-40269873D02*
X148113091Y-40068461D01*
X107132142Y-40504271D02*
X106786089Y-40769808D01*
X109564224Y-39619035D02*
X109131765Y-39675976D01*
X140919846Y-135098380D02*
G75*
G03*
X140919846Y-135098380I-500000J0D01*
G01*
X109564221Y-139330973D02*
X110000000Y-139350000D01*
X148867907Y-138445791D02*
X149213965Y-138180253D01*
X150829629Y-43305905D02*
X150698463Y-42889899D01*
X150330127Y-42100000D02*
X150095760Y-41732118D01*
X150698488Y-136060114D02*
X150829650Y-135644105D01*
X150829650Y-135644105D02*
X150924054Y-135218247D01*
X146000000Y-139350000D02*
X146435781Y-139330982D01*
X144603886Y-49098379D02*
X144603886Y-87361669D01*
X111419845Y-87361669D02*
X111419845Y-49098379D01*
X150531567Y-136463109D02*
X150698488Y-136060114D01*
X148113109Y-138881567D02*
X148500021Y-138680157D01*
X105170392Y-43305914D02*
X105075976Y-43731765D01*
X114855511Y-43199585D02*
G75*
G03*
X114855511Y-43199585I-490688J0D01*
G01*
X150531539Y-42486909D02*
X150330127Y-42100000D01*
X106169808Y-41386089D02*
X105904271Y-41732142D01*
X150924039Y-43731759D02*
X150829629Y-43305905D01*
X113753313Y-44282164D02*
G75*
G03*
X113753313Y-44282164I-490688J0D01*
G01*
X149830253Y-137563965D02*
X150095791Y-137217907D01*
X105468461Y-136463091D02*
X105669873Y-136850000D01*
X150095760Y-41732118D02*
X149830222Y-41386062D01*
X147250000Y-115100000D02*
G75*
G03*
X147250000Y-115100000I-19250000J0D01*
G01*
X109930000Y-43400000D02*
G75*
G03*
X109930000Y-43400000I-1100000J0D01*
G01*
X105170371Y-135644095D02*
X105301537Y-136060101D01*
X110000000Y-139350000D02*
X146000000Y-139350000D01*
X105301562Y-42889913D02*
X105170392Y-43305914D01*
X150924054Y-135218247D02*
X150980982Y-134785781D01*
X148270000Y-43400000D02*
G75*
G03*
X148270000Y-43400000I-1100000J0D01*
G01*
X150698463Y-42889899D02*
X150531539Y-42486909D01*
X108289913Y-39901562D02*
X107886926Y-40068489D01*
X111419831Y-87361669D02*
G75*
G03*
X113919845Y-89861669I2499969J-31D01*
G01*
X144603921Y-49098379D02*
G75*
G03*
X142103886Y-46598379I-2500021J-21D01*
G01*
X150330157Y-136850021D02*
X150531567Y-136463109D01*
X150095791Y-137217907D02*
X150330157Y-136850021D01*
X146435779Y-39619027D02*
X146000000Y-39600000D01*
X146435781Y-139330982D02*
X146868247Y-139274054D01*
X149830222Y-41386062D02*
X149535534Y-41064466D01*
X113772933Y-42097387D02*
G75*
G03*
X113772933Y-42097387I-490688J0D01*
G01*
X105468489Y-42486926D02*
X105301562Y-42889913D01*
X148270000Y-135550000D02*
G75*
G03*
X148270000Y-135550000I-1100000J0D01*
G01*
X107132118Y-138445760D02*
X107500000Y-138680127D01*
X105904240Y-137217882D02*
X106169778Y-137563938D01*
X142103886Y-89861669D02*
X113919845Y-89861669D01*
X150980973Y-44164221D02*
X150924039Y-43731759D01*
X105904271Y-41732142D02*
X105669903Y-42100021D01*
X106786062Y-138180222D02*
X107132118Y-138445760D01*
X107886909Y-138881539D02*
X108289899Y-139048463D01*
X151000000Y-44600000D02*
X150980973Y-44164221D01*
X105000000Y-44600000D02*
X105000000Y-134350000D01*
M02*
