%TF.GenerationSoftware,KiCad,Pcbnew,7.0.2-0*%
%TF.CreationDate,2023-08-14T19:33:41+08:00*%
%TF.ProjectId,Top:bottom_plate,546f703a-626f-4747-946f-6d5f706c6174,rev?*%
%TF.SameCoordinates,Original*%
%TF.FileFunction,Legend,Bot*%
%TF.FilePolarity,Positive*%
%FSLAX46Y46*%
G04 Gerber Fmt 4.6, Leading zero omitted, Abs format (unit mm)*
G04 Created by KiCad (PCBNEW 7.0.2-0) date 2023-08-14 19:33:41*
%MOMM*%
%LPD*%
G01*
G04 APERTURE LIST*
%ADD10C,0.150000*%
G04 APERTURE END LIST*
D10*
X152000000Y-44800000D02*
X152000000Y-46450000D01*
X152000000Y-47050000D02*
X152000000Y-47050000D01*
X152000000Y-47650000D02*
X152000000Y-49300000D01*
X152000000Y-49900000D02*
X152000000Y-49900000D01*
X152000000Y-50500000D02*
X152000000Y-52150000D01*
X152000000Y-52750000D02*
X152000000Y-52750000D01*
X152000000Y-53350000D02*
X152000000Y-55000000D01*
X152000000Y-55600000D02*
X152000000Y-55600000D01*
X152000000Y-56200000D02*
X152000000Y-57850000D01*
X152000000Y-58450000D02*
X152000000Y-58450000D01*
X152000000Y-59050000D02*
X152000000Y-60700000D01*
X152000000Y-61300000D02*
X152000000Y-61300000D01*
X152000000Y-61900000D02*
X152000000Y-63550000D01*
X152000000Y-64150000D02*
X152000000Y-64150000D01*
X152000000Y-64750000D02*
X152000000Y-66400000D01*
X152000000Y-67000000D02*
X152000000Y-67000000D01*
X152000000Y-67600000D02*
X152000000Y-69250000D01*
X152000000Y-69850000D02*
X152000000Y-69850000D01*
X152000000Y-70450000D02*
X152000000Y-72100000D01*
X152000000Y-72700000D02*
X152000000Y-72700000D01*
X152000000Y-73300000D02*
X152000000Y-74950000D01*
X152000000Y-75550000D02*
X152000000Y-75550000D01*
X152000000Y-76150000D02*
X152000000Y-77800000D01*
X152000000Y-78400000D02*
X152000000Y-78400000D01*
X152000000Y-79000000D02*
X152000000Y-80650000D01*
X152000000Y-81250000D02*
X152000000Y-81250000D01*
X152000000Y-81850000D02*
X152000000Y-83500000D01*
X152000000Y-84100000D02*
X152000000Y-84100000D01*
X152000000Y-84700000D02*
X152000000Y-86350000D01*
X152000000Y-86950000D02*
X152000000Y-86950000D01*
X152000000Y-87550000D02*
X152000000Y-89200000D01*
X152000000Y-89800000D02*
X152000000Y-89800000D01*
X152000000Y-90400000D02*
X152000000Y-92050000D01*
X152000000Y-92650000D02*
X152000000Y-92650000D01*
X152000000Y-93250000D02*
X152000000Y-94900000D01*
X152000000Y-95500000D02*
X152000000Y-95500000D01*
X152000000Y-96100000D02*
X152000000Y-97750000D01*
X152000000Y-98350000D02*
X152000000Y-98350000D01*
X152000000Y-98950000D02*
X152000000Y-100600000D01*
X152000000Y-101200000D02*
X152000000Y-101200000D01*
X152000000Y-101800000D02*
X152000000Y-103450000D01*
X152000000Y-104050000D02*
X152000000Y-104050000D01*
X152000000Y-104650000D02*
X152000000Y-106300000D01*
X152000000Y-106900000D02*
X152000000Y-106900000D01*
X152000000Y-107500000D02*
X152000000Y-109150000D01*
X152000000Y-109750000D02*
X152000000Y-109750000D01*
X152000000Y-110350000D02*
X152000000Y-112000000D01*
X152000000Y-112600000D02*
X152000000Y-112600000D01*
X152000000Y-113200000D02*
X152000000Y-114850000D01*
X152000000Y-115450000D02*
X152000000Y-115450000D01*
X152000000Y-116050000D02*
X152000000Y-117700000D01*
X152000000Y-118300000D02*
X152000000Y-118300000D01*
X152000000Y-118900000D02*
X152000000Y-120550000D01*
X152000000Y-121150000D02*
X152000000Y-121150000D01*
X152000000Y-121750000D02*
X152000000Y-123400000D01*
X152000000Y-124000000D02*
X152000000Y-124000000D01*
X152000000Y-124600000D02*
X152000000Y-126250000D01*
X152000000Y-126850000D02*
X152000000Y-126850000D01*
X152000000Y-127450000D02*
X152000000Y-129100000D01*
X152000000Y-129700000D02*
X152000000Y-129700000D01*
X152000000Y-130300000D02*
X152000000Y-131950000D01*
X152000000Y-132550000D02*
X152000000Y-132550000D01*
X152000000Y-133150000D02*
X152000000Y-134000000D01*
X130200000Y-135400000D02*
X139800000Y-135400000D01*
X139800000Y-139400000D01*
X130200000Y-139400000D01*
X130200000Y-135400000D01*
G36*
X130200000Y-135400000D02*
G01*
X139800000Y-135400000D01*
X139800000Y-139400000D01*
X130200000Y-139400000D01*
X130200000Y-135400000D01*
G37*
X123773809Y-92577619D02*
X123773809Y-93291904D01*
X123773809Y-93291904D02*
X123726190Y-93434761D01*
X123726190Y-93434761D02*
X123630952Y-93530000D01*
X123630952Y-93530000D02*
X123488095Y-93577619D01*
X123488095Y-93577619D02*
X123392857Y-93577619D01*
X124726190Y-93577619D02*
X124250000Y-93577619D01*
X124250000Y-93577619D02*
X124250000Y-92577619D01*
X125630952Y-93482380D02*
X125583333Y-93530000D01*
X125583333Y-93530000D02*
X125440476Y-93577619D01*
X125440476Y-93577619D02*
X125345238Y-93577619D01*
X125345238Y-93577619D02*
X125202381Y-93530000D01*
X125202381Y-93530000D02*
X125107143Y-93434761D01*
X125107143Y-93434761D02*
X125059524Y-93339523D01*
X125059524Y-93339523D02*
X125011905Y-93149047D01*
X125011905Y-93149047D02*
X125011905Y-93006190D01*
X125011905Y-93006190D02*
X125059524Y-92815714D01*
X125059524Y-92815714D02*
X125107143Y-92720476D01*
X125107143Y-92720476D02*
X125202381Y-92625238D01*
X125202381Y-92625238D02*
X125345238Y-92577619D01*
X125345238Y-92577619D02*
X125440476Y-92577619D01*
X125440476Y-92577619D02*
X125583333Y-92625238D01*
X125583333Y-92625238D02*
X125630952Y-92672857D01*
X126345238Y-92577619D02*
X126345238Y-93291904D01*
X126345238Y-93291904D02*
X126297619Y-93434761D01*
X126297619Y-93434761D02*
X126202381Y-93530000D01*
X126202381Y-93530000D02*
X126059524Y-93577619D01*
X126059524Y-93577619D02*
X125964286Y-93577619D01*
X127297619Y-93577619D02*
X126821429Y-93577619D01*
X126821429Y-93577619D02*
X126821429Y-92577619D01*
X128202381Y-93482380D02*
X128154762Y-93530000D01*
X128154762Y-93530000D02*
X128011905Y-93577619D01*
X128011905Y-93577619D02*
X127916667Y-93577619D01*
X127916667Y-93577619D02*
X127773810Y-93530000D01*
X127773810Y-93530000D02*
X127678572Y-93434761D01*
X127678572Y-93434761D02*
X127630953Y-93339523D01*
X127630953Y-93339523D02*
X127583334Y-93149047D01*
X127583334Y-93149047D02*
X127583334Y-93006190D01*
X127583334Y-93006190D02*
X127630953Y-92815714D01*
X127630953Y-92815714D02*
X127678572Y-92720476D01*
X127678572Y-92720476D02*
X127773810Y-92625238D01*
X127773810Y-92625238D02*
X127916667Y-92577619D01*
X127916667Y-92577619D02*
X128011905Y-92577619D01*
X128011905Y-92577619D02*
X128154762Y-92625238D01*
X128154762Y-92625238D02*
X128202381Y-92672857D01*
X128916667Y-92577619D02*
X128916667Y-93291904D01*
X128916667Y-93291904D02*
X128869048Y-93434761D01*
X128869048Y-93434761D02*
X128773810Y-93530000D01*
X128773810Y-93530000D02*
X128630953Y-93577619D01*
X128630953Y-93577619D02*
X128535715Y-93577619D01*
X129869048Y-93577619D02*
X129392858Y-93577619D01*
X129392858Y-93577619D02*
X129392858Y-92577619D01*
X130773810Y-93482380D02*
X130726191Y-93530000D01*
X130726191Y-93530000D02*
X130583334Y-93577619D01*
X130583334Y-93577619D02*
X130488096Y-93577619D01*
X130488096Y-93577619D02*
X130345239Y-93530000D01*
X130345239Y-93530000D02*
X130250001Y-93434761D01*
X130250001Y-93434761D02*
X130202382Y-93339523D01*
X130202382Y-93339523D02*
X130154763Y-93149047D01*
X130154763Y-93149047D02*
X130154763Y-93006190D01*
X130154763Y-93006190D02*
X130202382Y-92815714D01*
X130202382Y-92815714D02*
X130250001Y-92720476D01*
X130250001Y-92720476D02*
X130345239Y-92625238D01*
X130345239Y-92625238D02*
X130488096Y-92577619D01*
X130488096Y-92577619D02*
X130583334Y-92577619D01*
X130583334Y-92577619D02*
X130726191Y-92625238D01*
X130726191Y-92625238D02*
X130773810Y-92672857D01*
X131488096Y-92577619D02*
X131488096Y-93291904D01*
X131488096Y-93291904D02*
X131440477Y-93434761D01*
X131440477Y-93434761D02*
X131345239Y-93530000D01*
X131345239Y-93530000D02*
X131202382Y-93577619D01*
X131202382Y-93577619D02*
X131107144Y-93577619D01*
X132440477Y-93577619D02*
X131964287Y-93577619D01*
X131964287Y-93577619D02*
X131964287Y-92577619D01*
X133345239Y-93482380D02*
X133297620Y-93530000D01*
X133297620Y-93530000D02*
X133154763Y-93577619D01*
X133154763Y-93577619D02*
X133059525Y-93577619D01*
X133059525Y-93577619D02*
X132916668Y-93530000D01*
X132916668Y-93530000D02*
X132821430Y-93434761D01*
X132821430Y-93434761D02*
X132773811Y-93339523D01*
X132773811Y-93339523D02*
X132726192Y-93149047D01*
X132726192Y-93149047D02*
X132726192Y-93006190D01*
X132726192Y-93006190D02*
X132773811Y-92815714D01*
X132773811Y-92815714D02*
X132821430Y-92720476D01*
X132821430Y-92720476D02*
X132916668Y-92625238D01*
X132916668Y-92625238D02*
X133059525Y-92577619D01*
X133059525Y-92577619D02*
X133154763Y-92577619D01*
X133154763Y-92577619D02*
X133297620Y-92625238D01*
X133297620Y-92625238D02*
X133345239Y-92672857D01*
%TO.C,G\u002A\u002A\u002A*%
G36*
X190321016Y-51078371D02*
G01*
X190289227Y-51631829D01*
X189977616Y-54429059D01*
X189411910Y-57219171D01*
X188588386Y-60010948D01*
X187503318Y-62813175D01*
X186152981Y-65634634D01*
X184533652Y-68484110D01*
X182641605Y-71370387D01*
X180473116Y-74302247D01*
X180197683Y-74652023D01*
X179374895Y-75670990D01*
X178410931Y-76835523D01*
X177344658Y-78100670D01*
X176214944Y-79421481D01*
X175060656Y-80753003D01*
X173920661Y-82050284D01*
X172833826Y-83268373D01*
X171839019Y-84362318D01*
X170975106Y-85287167D01*
X170818392Y-85456250D01*
X170439613Y-85878114D01*
X169936191Y-86448242D01*
X169345094Y-87123924D01*
X168703290Y-87862450D01*
X168047749Y-88621113D01*
X167415439Y-89357202D01*
X166843328Y-90028009D01*
X166368385Y-90590825D01*
X166027579Y-91002941D01*
X164496923Y-92988284D01*
X163170622Y-94930144D01*
X162094886Y-96776057D01*
X161264733Y-98536630D01*
X160675180Y-100222468D01*
X160321246Y-101844175D01*
X160197947Y-103412359D01*
X160198115Y-103919706D01*
X160217486Y-104480044D01*
X160270198Y-104884933D01*
X160368066Y-105211632D01*
X160522904Y-105537403D01*
X160676650Y-105806565D01*
X161265019Y-106607723D01*
X162035870Y-107372336D01*
X162999488Y-108104770D01*
X164166154Y-108809387D01*
X165546150Y-109490554D01*
X167149758Y-110152632D01*
X168987260Y-110799987D01*
X171068939Y-111436982D01*
X173405076Y-112067982D01*
X176005954Y-112697350D01*
X178881855Y-113329450D01*
X179026599Y-113359911D01*
X180330733Y-113634210D01*
X181398197Y-113858763D01*
X182267642Y-114042169D01*
X182977722Y-114193032D01*
X183567088Y-114319950D01*
X184074395Y-114431527D01*
X184538294Y-114536364D01*
X184997439Y-114643061D01*
X185490481Y-114760221D01*
X186056073Y-114896444D01*
X186732869Y-115060332D01*
X187559520Y-115260487D01*
X188590669Y-115520347D01*
X190263516Y-115999983D01*
X191660944Y-116488300D01*
X192789404Y-116990410D01*
X193655349Y-117511425D01*
X194265231Y-118056454D01*
X194625502Y-118630610D01*
X194742615Y-119239005D01*
X194623021Y-119886748D01*
X194273172Y-120578952D01*
X193883380Y-121046964D01*
X193139429Y-121644473D01*
X192119590Y-122247434D01*
X190829101Y-122854227D01*
X189273199Y-123463234D01*
X187457122Y-124072836D01*
X185386107Y-124681413D01*
X183065392Y-125287348D01*
X180500215Y-125889020D01*
X177695812Y-126484811D01*
X174657422Y-127073102D01*
X171390282Y-127652274D01*
X170002110Y-127888369D01*
X168681384Y-128112101D01*
X167569862Y-128296602D01*
X166629297Y-128445574D01*
X165821441Y-128562715D01*
X165108047Y-128651725D01*
X164450868Y-128716303D01*
X163811657Y-128760150D01*
X163152166Y-128786964D01*
X162434148Y-128800444D01*
X161619356Y-128804292D01*
X160669544Y-128802205D01*
X159546462Y-128797884D01*
X158744741Y-128795670D01*
X157616493Y-128793346D01*
X156730779Y-128789245D01*
X156091589Y-128779424D01*
X155702907Y-128759942D01*
X155568721Y-128726857D01*
X155693019Y-128676227D01*
X156079786Y-128604112D01*
X156733010Y-128506568D01*
X157656679Y-128379654D01*
X158854777Y-128219429D01*
X160331294Y-128021951D01*
X160536052Y-127994391D01*
X161553408Y-127856210D01*
X162461949Y-127729896D01*
X163317431Y-127607020D01*
X164175609Y-127479154D01*
X165092239Y-127337868D01*
X166123076Y-127174734D01*
X167323876Y-126981323D01*
X168750395Y-126749207D01*
X170960735Y-126379553D01*
X174158871Y-125809889D01*
X177133574Y-125236085D01*
X179878676Y-124659826D01*
X182388010Y-124082800D01*
X184655408Y-123506692D01*
X186674702Y-122933189D01*
X188439724Y-122363978D01*
X189944307Y-121800744D01*
X191182284Y-121245176D01*
X192147487Y-120698958D01*
X192833748Y-120163779D01*
X192947021Y-120049099D01*
X193265196Y-119614779D01*
X193339290Y-119222739D01*
X193160113Y-118849725D01*
X192718473Y-118472483D01*
X192005176Y-118067762D01*
X191698926Y-117921801D01*
X191072978Y-117660518D01*
X190333206Y-117396877D01*
X189455674Y-117124396D01*
X188416447Y-116836593D01*
X187191590Y-116526985D01*
X185757166Y-116189090D01*
X184089241Y-115816426D01*
X182163878Y-115402510D01*
X181565847Y-115275641D01*
X180579194Y-115065411D01*
X179666175Y-114869783D01*
X178878195Y-114699821D01*
X178266661Y-114566590D01*
X177882979Y-114481153D01*
X177484059Y-114390098D01*
X176832352Y-114241885D01*
X176077446Y-114070601D01*
X175314440Y-113897843D01*
X173721490Y-113524288D01*
X171083827Y-112836591D01*
X168721347Y-112123348D01*
X166627990Y-111381618D01*
X164797694Y-110608462D01*
X163224402Y-109800942D01*
X161902052Y-108956116D01*
X160824584Y-108071047D01*
X159985940Y-107142794D01*
X159380059Y-106168417D01*
X159219173Y-105824325D01*
X159027557Y-105296688D01*
X158918231Y-104742632D01*
X158859724Y-104032998D01*
X158848639Y-103752761D01*
X158923621Y-102121796D01*
X159236816Y-100432231D01*
X159792145Y-98674875D01*
X160593531Y-96840536D01*
X161644896Y-94920023D01*
X162950162Y-92904144D01*
X164513250Y-90783708D01*
X164585452Y-90691066D01*
X165082735Y-90059403D01*
X165558829Y-89464520D01*
X165962807Y-88969572D01*
X166243744Y-88637710D01*
X166323028Y-88547713D01*
X166696357Y-88121198D01*
X167151981Y-87597785D01*
X167608822Y-87070556D01*
X168011252Y-86609558D01*
X168566425Y-85981506D01*
X169170677Y-85304038D01*
X169749271Y-84661278D01*
X170422313Y-83917351D01*
X171784995Y-82406857D01*
X172981569Y-81073660D01*
X174031440Y-79895841D01*
X174954014Y-78851483D01*
X175768696Y-77918669D01*
X176494890Y-77075480D01*
X177152001Y-76300000D01*
X177909314Y-75387309D01*
X180029783Y-72693150D01*
X181902067Y-70085265D01*
X183537102Y-67544742D01*
X184945827Y-65052673D01*
X186139180Y-62590148D01*
X187128099Y-60138257D01*
X187923522Y-57678090D01*
X187923593Y-57677837D01*
X188226198Y-56482999D01*
X188501859Y-55147862D01*
X188738056Y-53754682D01*
X188922270Y-52385714D01*
X189041979Y-51123217D01*
X189084664Y-50049444D01*
X189084664Y-49187640D01*
X189748806Y-49187640D01*
X190412948Y-49187640D01*
X190321016Y-51078371D01*
G37*
%TD*%
M02*
